{
	"patcher" : 	{
		"fileversion" : 1,
		"rect" : [ 25.0, 69.0, 571.0, 310.0 ],
		"bglocked" : 0,
		"defrect" : [ 25.0, 69.0, 571.0, 310.0 ],
		"openrect" : [ 0.0, 0.0, 0.0, 0.0 ],
		"openinpresentation" : 1,
		"default_fontsize" : 12.0,
		"default_fontface" : 0,
		"default_fontname" : "Arial",
		"gridonopen" : 0,
		"gridsize" : [ 15.0, 15.0 ],
		"gridsnaponopen" : 0,
		"toolbarvisible" : 1,
		"boxanimatetime" : 200,
		"imprint" : 0,
		"enablehscroll" : 1,
		"enablevscroll" : 1,
		"devicewidth" : 0.0,
		"boxes" : [ 			{
				"box" : 				{
					"maxclass" : "inlet",
					"numinlets" : 0,
					"numoutlets" : 1,
					"patching_rect" : [ 15.0, 15.0, 25.0, 25.0 ],
					"id" : "obj-1",
					"outlettype" : [ "" ],
					"comment" : ""
				}

			}
, 			{
				"box" : 				{
					"maxclass" : "button",
					"numinlets" : 1,
					"bgcolor" : [ 0.0, 0.0, 0.0, 0.0 ],
					"numoutlets" : 1,
					"patching_rect" : [ 29.0, 237.0, 21.0, 21.0 ],
					"presentation" : 1,
					"id" : "obj-10",
					"fgcolor" : [ 0.0, 0.0, 0.0, 0.0 ],
					"outlettype" : [ "bang" ],
					"outlinecolor" : [ 0.0, 0.0, 0.0, 0.0 ],
					"blinkcolor" : [ 0.913725, 0.301961, 0.266667, 0.501961 ],
					"ignoreclick" : 1,
					"presentation_rect" : [ 29.0, 237.0, 21.0, 21.0 ]
				}

			}
, 			{
				"box" : 				{
					"maxclass" : "button",
					"numinlets" : 1,
					"bgcolor" : [ 0.0, 0.0, 0.0, 0.0 ],
					"numoutlets" : 1,
					"patching_rect" : [ 298.0, 238.0, 21.0, 21.0 ],
					"presentation" : 1,
					"id" : "obj-11",
					"fgcolor" : [ 0.0, 0.0, 0.0, 0.0 ],
					"outlettype" : [ "bang" ],
					"outlinecolor" : [ 0.0, 0.0, 0.0, 0.0 ],
					"blinkcolor" : [ 0.913725, 0.301961, 0.266667, 0.501961 ],
					"ignoreclick" : 1,
					"presentation_rect" : [ 298.0, 238.0, 21.0, 21.0 ]
				}

			}
, 			{
				"box" : 				{
					"maxclass" : "button",
					"numinlets" : 1,
					"bgcolor" : [ 0.0, 0.0, 0.0, 0.0 ],
					"numoutlets" : 1,
					"patching_rect" : [ 268.0, 238.0, 21.0, 21.0 ],
					"presentation" : 1,
					"id" : "obj-13",
					"fgcolor" : [ 0.0, 0.0, 0.0, 0.0 ],
					"outlettype" : [ "bang" ],
					"outlinecolor" : [ 0.0, 0.0, 0.0, 0.0 ],
					"blinkcolor" : [ 0.913725, 0.301961, 0.266667, 0.501961 ],
					"ignoreclick" : 1,
					"presentation_rect" : [ 268.0, 238.0, 21.0, 21.0 ]
				}

			}
, 			{
				"box" : 				{
					"maxclass" : "button",
					"numinlets" : 1,
					"bgcolor" : [ 0.0, 0.0, 0.0, 0.0 ],
					"numoutlets" : 1,
					"patching_rect" : [ 238.0, 238.0, 21.0, 21.0 ],
					"presentation" : 1,
					"id" : "obj-24",
					"fgcolor" : [ 0.0, 0.0, 0.0, 0.0 ],
					"outlettype" : [ "bang" ],
					"outlinecolor" : [ 0.0, 0.0, 0.0, 0.0 ],
					"blinkcolor" : [ 0.913725, 0.301961, 0.266667, 0.501961 ],
					"ignoreclick" : 1,
					"presentation_rect" : [ 238.0, 238.0, 21.0, 21.0 ]
				}

			}
, 			{
				"box" : 				{
					"maxclass" : "button",
					"numinlets" : 1,
					"bgcolor" : [ 0.0, 0.0, 0.0, 0.0 ],
					"numoutlets" : 1,
					"patching_rect" : [ 208.0, 238.0, 21.0, 21.0 ],
					"presentation" : 1,
					"id" : "obj-37",
					"fgcolor" : [ 0.0, 0.0, 0.0, 0.0 ],
					"outlettype" : [ "bang" ],
					"outlinecolor" : [ 0.0, 0.0, 0.0, 0.0 ],
					"blinkcolor" : [ 0.913725, 0.301961, 0.266667, 0.501961 ],
					"ignoreclick" : 1,
					"presentation_rect" : [ 208.0, 238.0, 21.0, 21.0 ]
				}

			}
, 			{
				"box" : 				{
					"maxclass" : "button",
					"numinlets" : 1,
					"bgcolor" : [ 0.0, 0.0, 0.0, 0.0 ],
					"numoutlets" : 1,
					"patching_rect" : [ 178.0, 238.0, 21.0, 21.0 ],
					"presentation" : 1,
					"id" : "obj-180",
					"fgcolor" : [ 0.0, 0.0, 0.0, 0.0 ],
					"outlettype" : [ "bang" ],
					"outlinecolor" : [ 0.0, 0.0, 0.0, 0.0 ],
					"blinkcolor" : [ 0.913725, 0.301961, 0.266667, 0.501961 ],
					"ignoreclick" : 1,
					"presentation_rect" : [ 178.0, 238.0, 21.0, 21.0 ]
				}

			}
, 			{
				"box" : 				{
					"maxclass" : "button",
					"numinlets" : 1,
					"bgcolor" : [ 0.0, 0.0, 0.0, 0.0 ],
					"numoutlets" : 1,
					"patching_rect" : [ 148.0, 238.0, 21.0, 21.0 ],
					"presentation" : 1,
					"id" : "obj-186",
					"fgcolor" : [ 0.0, 0.0, 0.0, 0.0 ],
					"outlettype" : [ "bang" ],
					"outlinecolor" : [ 0.0, 0.0, 0.0, 0.0 ],
					"blinkcolor" : [ 0.913725, 0.301961, 0.266667, 0.501961 ],
					"ignoreclick" : 1,
					"presentation_rect" : [ 148.0, 238.0, 21.0, 21.0 ]
				}

			}
, 			{
				"box" : 				{
					"maxclass" : "button",
					"numinlets" : 1,
					"bgcolor" : [ 0.0, 0.0, 0.0, 0.0 ],
					"numoutlets" : 1,
					"patching_rect" : [ 118.0, 238.0, 21.0, 21.0 ],
					"presentation" : 1,
					"id" : "obj-193",
					"fgcolor" : [ 0.0, 0.0, 0.0, 0.0 ],
					"outlettype" : [ "bang" ],
					"outlinecolor" : [ 0.0, 0.0, 0.0, 0.0 ],
					"blinkcolor" : [ 0.913725, 0.301961, 0.266667, 0.501961 ],
					"ignoreclick" : 1,
					"presentation_rect" : [ 118.0, 238.0, 21.0, 21.0 ]
				}

			}
, 			{
				"box" : 				{
					"maxclass" : "button",
					"numinlets" : 1,
					"bgcolor" : [ 0.0, 0.0, 0.0, 0.0 ],
					"numoutlets" : 1,
					"patching_rect" : [ 88.0, 238.0, 21.0, 21.0 ],
					"presentation" : 1,
					"id" : "obj-194",
					"fgcolor" : [ 0.0, 0.0, 0.0, 0.0 ],
					"outlettype" : [ "bang" ],
					"outlinecolor" : [ 0.0, 0.0, 0.0, 0.0 ],
					"blinkcolor" : [ 0.913725, 0.301961, 0.266667, 0.501961 ],
					"ignoreclick" : 1,
					"presentation_rect" : [ 88.0, 238.0, 21.0, 21.0 ]
				}

			}
, 			{
				"box" : 				{
					"maxclass" : "button",
					"numinlets" : 1,
					"bgcolor" : [ 0.0, 0.0, 0.0, 0.0 ],
					"numoutlets" : 1,
					"patching_rect" : [ 58.0, 238.0, 21.0, 21.0 ],
					"presentation" : 1,
					"id" : "obj-195",
					"fgcolor" : [ 0.0, 0.0, 0.0, 0.0 ],
					"outlettype" : [ "bang" ],
					"outlinecolor" : [ 0.0, 0.0, 0.0, 0.0 ],
					"blinkcolor" : [ 0.913725, 0.301961, 0.266667, 0.501961 ],
					"ignoreclick" : 1,
					"presentation_rect" : [ 58.0, 238.0, 21.0, 21.0 ]
				}

			}
, 			{
				"box" : 				{
					"maxclass" : "message",
					"text" : "42",
					"numinlets" : 2,
					"bgcolor" : [ 0.866667, 0.866667, 0.866667, 0.0 ],
					"numoutlets" : 1,
					"patching_rect" : [ 300.0, 240.0, 32.5, 16.0 ],
					"presentation" : 1,
					"fontname" : "Arial",
					"id" : "obj-204",
					"textcolor" : [ 0.929412, 0.360784, 0.866667, 1.0 ],
					"outlettype" : [ "" ],
					"fontface" : 1,
					"fontsize" : 10.0,
					"ignoreclick" : 1,
					"presentation_rect" : [ 300.0, 240.0, 32.5, 16.0 ]
				}

			}
, 			{
				"box" : 				{
					"maxclass" : "message",
					"text" : "40",
					"numinlets" : 2,
					"bgcolor" : [ 0.866667, 0.866667, 0.866667, 0.0 ],
					"numoutlets" : 1,
					"patching_rect" : [ 270.0, 240.0, 32.5, 16.0 ],
					"presentation" : 1,
					"fontname" : "Arial",
					"id" : "obj-205",
					"textcolor" : [ 0.929412, 0.360784, 0.866667, 1.0 ],
					"outlettype" : [ "" ],
					"fontface" : 1,
					"fontsize" : 10.0,
					"ignoreclick" : 1,
					"presentation_rect" : [ 270.0, 240.0, 32.5, 16.0 ]
				}

			}
, 			{
				"box" : 				{
					"maxclass" : "message",
					"text" : "38",
					"numinlets" : 2,
					"bgcolor" : [ 0.866667, 0.866667, 0.866667, 0.0 ],
					"numoutlets" : 1,
					"patching_rect" : [ 240.0, 240.0, 32.5, 16.0 ],
					"presentation" : 1,
					"fontname" : "Arial",
					"id" : "obj-206",
					"textcolor" : [ 0.929412, 0.360784, 0.866667, 1.0 ],
					"outlettype" : [ "" ],
					"fontface" : 1,
					"fontsize" : 10.0,
					"ignoreclick" : 1,
					"presentation_rect" : [ 240.0, 240.0, 32.5, 16.0 ]
				}

			}
, 			{
				"box" : 				{
					"maxclass" : "message",
					"text" : "36",
					"numinlets" : 2,
					"bgcolor" : [ 0.866667, 0.866667, 0.866667, 0.0 ],
					"numoutlets" : 1,
					"patching_rect" : [ 210.0, 240.0, 32.5, 16.0 ],
					"presentation" : 1,
					"fontname" : "Arial",
					"id" : "obj-207",
					"textcolor" : [ 0.929412, 0.360784, 0.866667, 1.0 ],
					"outlettype" : [ "" ],
					"fontface" : 1,
					"fontsize" : 10.0,
					"ignoreclick" : 1,
					"presentation_rect" : [ 210.0, 240.0, 32.5, 16.0 ]
				}

			}
, 			{
				"box" : 				{
					"maxclass" : "message",
					"text" : "49",
					"numinlets" : 2,
					"bgcolor" : [ 0.866667, 0.866667, 0.866667, 0.0 ],
					"numoutlets" : 1,
					"patching_rect" : [ 180.0, 240.0, 32.5, 16.0 ],
					"presentation" : 1,
					"fontname" : "Arial",
					"id" : "obj-208",
					"textcolor" : [ 0.929412, 0.360784, 0.866667, 1.0 ],
					"outlettype" : [ "" ],
					"fontface" : 1,
					"fontsize" : 10.0,
					"ignoreclick" : 1,
					"presentation_rect" : [ 180.0, 240.0, 32.5, 16.0 ]
				}

			}
, 			{
				"box" : 				{
					"maxclass" : "message",
					"text" : "51",
					"numinlets" : 2,
					"bgcolor" : [ 0.866667, 0.866667, 0.866667, 0.0 ],
					"numoutlets" : 1,
					"patching_rect" : [ 150.0, 240.0, 32.5, 16.0 ],
					"presentation" : 1,
					"fontname" : "Arial",
					"id" : "obj-209",
					"textcolor" : [ 0.929412, 0.360784, 0.866667, 1.0 ],
					"outlettype" : [ "" ],
					"fontface" : 1,
					"fontsize" : 10.0,
					"ignoreclick" : 1,
					"presentation_rect" : [ 150.0, 240.0, 32.5, 16.0 ]
				}

			}
, 			{
				"box" : 				{
					"maxclass" : "message",
					"text" : "43",
					"numinlets" : 2,
					"bgcolor" : [ 0.866667, 0.866667, 0.866667, 0.0 ],
					"numoutlets" : 1,
					"patching_rect" : [ 120.0, 240.0, 32.5, 16.0 ],
					"presentation" : 1,
					"fontname" : "Arial",
					"id" : "obj-210",
					"textcolor" : [ 0.929412, 0.360784, 0.866667, 1.0 ],
					"outlettype" : [ "" ],
					"fontface" : 1,
					"fontsize" : 10.0,
					"ignoreclick" : 1,
					"presentation_rect" : [ 120.0, 240.0, 32.5, 16.0 ]
				}

			}
, 			{
				"box" : 				{
					"maxclass" : "message",
					"text" : "45",
					"numinlets" : 2,
					"bgcolor" : [ 0.866667, 0.866667, 0.866667, 0.0 ],
					"numoutlets" : 1,
					"patching_rect" : [ 90.0, 240.0, 32.5, 16.0 ],
					"presentation" : 1,
					"fontname" : "Arial",
					"id" : "obj-211",
					"textcolor" : [ 0.929412, 0.360784, 0.866667, 1.0 ],
					"outlettype" : [ "" ],
					"fontface" : 1,
					"fontsize" : 10.0,
					"ignoreclick" : 1,
					"presentation_rect" : [ 90.0, 240.0, 32.5, 16.0 ]
				}

			}
, 			{
				"box" : 				{
					"maxclass" : "message",
					"text" : "48",
					"numinlets" : 2,
					"bgcolor" : [ 0.866667, 0.866667, 0.866667, 0.0 ],
					"numoutlets" : 1,
					"patching_rect" : [ 60.0, 240.0, 32.5, 16.0 ],
					"presentation" : 1,
					"fontname" : "Arial",
					"id" : "obj-212",
					"textcolor" : [ 0.929412, 0.360784, 0.866667, 1.0 ],
					"outlettype" : [ "" ],
					"fontface" : 1,
					"fontsize" : 10.0,
					"ignoreclick" : 1,
					"presentation_rect" : [ 60.0, 240.0, 32.5, 16.0 ]
				}

			}
, 			{
				"box" : 				{
					"maxclass" : "message",
					"text" : "39",
					"numinlets" : 2,
					"bgcolor" : [ 0.866667, 0.866667, 0.866667, 0.0 ],
					"numoutlets" : 1,
					"patching_rect" : [ 30.0, 240.0, 32.5, 16.0 ],
					"presentation" : 1,
					"fontname" : "Arial",
					"id" : "obj-214",
					"textcolor" : [ 0.929412, 0.360784, 0.866667, 1.0 ],
					"outlettype" : [ "" ],
					"fontface" : 1,
					"fontsize" : 10.0,
					"ignoreclick" : 1,
					"presentation_rect" : [ 30.0, 240.0, 32.5, 16.0 ]
				}

			}
, 			{
				"box" : 				{
					"maxclass" : "newobj",
					"text" : "spray 10 27",
					"numinlets" : 1,
					"numoutlets" : 10,
					"patching_rect" : [ 30.0, 210.0, 286.5, 20.0 ],
					"fontname" : "Arial",
					"id" : "obj-215",
					"outlettype" : [ "", "", "", "", "", "", "", "", "", "" ],
					"fontsize" : 12.0
				}

			}
, 			{
				"box" : 				{
					"maxclass" : "button",
					"numinlets" : 1,
					"bgcolor" : [ 0.0, 0.0, 0.0, 0.0 ],
					"numoutlets" : 1,
					"patching_rect" : [ 315.0, 177.0, 21.0, 21.0 ],
					"presentation" : 1,
					"id" : "obj-178",
					"fgcolor" : [ 0.0, 0.0, 0.0, 0.0 ],
					"outlettype" : [ "bang" ],
					"outlinecolor" : [ 0.0, 0.0, 0.0, 0.0 ],
					"blinkcolor" : [ 0.913725, 0.301961, 0.266667, 0.501961 ],
					"ignoreclick" : 1,
					"presentation_rect" : [ 315.0, 177.0, 21.0, 21.0 ]
				}

			}
, 			{
				"box" : 				{
					"maxclass" : "button",
					"numinlets" : 1,
					"bgcolor" : [ 0.0, 0.0, 0.0, 0.0 ],
					"numoutlets" : 1,
					"patching_rect" : [ 496.0, 180.0, 21.0, 21.0 ],
					"presentation" : 1,
					"id" : "obj-187",
					"fgcolor" : [ 0.0, 0.0, 0.0, 0.0 ],
					"outlettype" : [ "bang" ],
					"outlinecolor" : [ 0.0, 0.0, 0.0, 0.0 ],
					"blinkcolor" : [ 0.913725, 0.301961, 0.266667, 0.501961 ],
					"ignoreclick" : 1,
					"presentation_rect" : [ 496.0, 180.0, 21.0, 21.0 ]
				}

			}
, 			{
				"box" : 				{
					"maxclass" : "button",
					"numinlets" : 1,
					"bgcolor" : [ 0.0, 0.0, 0.0, 0.0 ],
					"numoutlets" : 1,
					"patching_rect" : [ 464.0, 178.0, 21.0, 21.0 ],
					"presentation" : 1,
					"id" : "obj-188",
					"fgcolor" : [ 0.0, 0.0, 0.0, 0.0 ],
					"outlettype" : [ "bang" ],
					"outlinecolor" : [ 0.0, 0.0, 0.0, 0.0 ],
					"blinkcolor" : [ 0.913725, 0.301961, 0.266667, 0.501961 ],
					"ignoreclick" : 1,
					"presentation_rect" : [ 464.0, 178.0, 21.0, 21.0 ]
				}

			}
, 			{
				"box" : 				{
					"maxclass" : "button",
					"numinlets" : 1,
					"bgcolor" : [ 0.0, 0.0, 0.0, 0.0 ],
					"numoutlets" : 1,
					"patching_rect" : [ 434.0, 178.0, 21.0, 21.0 ],
					"presentation" : 1,
					"id" : "obj-189",
					"fgcolor" : [ 0.0, 0.0, 0.0, 0.0 ],
					"outlettype" : [ "bang" ],
					"outlinecolor" : [ 0.0, 0.0, 0.0, 0.0 ],
					"blinkcolor" : [ 0.913725, 0.301961, 0.266667, 0.501961 ],
					"ignoreclick" : 1,
					"presentation_rect" : [ 434.0, 178.0, 21.0, 21.0 ]
				}

			}
, 			{
				"box" : 				{
					"maxclass" : "button",
					"numinlets" : 1,
					"bgcolor" : [ 0.0, 0.0, 0.0, 0.0 ],
					"numoutlets" : 1,
					"patching_rect" : [ 404.0, 178.0, 21.0, 21.0 ],
					"presentation" : 1,
					"id" : "obj-190",
					"fgcolor" : [ 0.0, 0.0, 0.0, 0.0 ],
					"outlettype" : [ "bang" ],
					"outlinecolor" : [ 0.0, 0.0, 0.0, 0.0 ],
					"blinkcolor" : [ 0.913725, 0.301961, 0.266667, 0.501961 ],
					"ignoreclick" : 1,
					"presentation_rect" : [ 404.0, 178.0, 21.0, 21.0 ]
				}

			}
, 			{
				"box" : 				{
					"maxclass" : "button",
					"numinlets" : 1,
					"bgcolor" : [ 0.0, 0.0, 0.0, 0.0 ],
					"numoutlets" : 1,
					"patching_rect" : [ 374.0, 178.0, 21.0, 21.0 ],
					"presentation" : 1,
					"id" : "obj-191",
					"fgcolor" : [ 0.0, 0.0, 0.0, 0.0 ],
					"outlettype" : [ "bang" ],
					"outlinecolor" : [ 0.0, 0.0, 0.0, 0.0 ],
					"blinkcolor" : [ 0.913725, 0.301961, 0.266667, 0.501961 ],
					"ignoreclick" : 1,
					"presentation_rect" : [ 374.0, 178.0, 21.0, 21.0 ]
				}

			}
, 			{
				"box" : 				{
					"maxclass" : "button",
					"numinlets" : 1,
					"bgcolor" : [ 0.0, 0.0, 0.0, 0.0 ],
					"numoutlets" : 1,
					"patching_rect" : [ 344.0, 178.0, 21.0, 21.0 ],
					"presentation" : 1,
					"id" : "obj-192",
					"fgcolor" : [ 0.0, 0.0, 0.0, 0.0 ],
					"outlettype" : [ "bang" ],
					"outlinecolor" : [ 0.0, 0.0, 0.0, 0.0 ],
					"blinkcolor" : [ 0.913725, 0.301961, 0.266667, 0.501961 ],
					"ignoreclick" : 1,
					"presentation_rect" : [ 344.0, 178.0, 21.0, 21.0 ]
				}

			}
, 			{
				"box" : 				{
					"maxclass" : "message",
					"text" : "42",
					"numinlets" : 2,
					"bgcolor" : [ 0.866667, 0.866667, 0.866667, 0.0 ],
					"numoutlets" : 1,
					"patching_rect" : [ 498.0, 182.0, 32.5, 16.0 ],
					"presentation" : 1,
					"fontname" : "Arial",
					"id" : "obj-196",
					"textcolor" : [ 0.929412, 0.360784, 0.866667, 1.0 ],
					"outlettype" : [ "" ],
					"fontface" : 1,
					"fontsize" : 10.0,
					"ignoreclick" : 1,
					"presentation_rect" : [ 498.0, 182.0, 32.5, 16.0 ]
				}

			}
, 			{
				"box" : 				{
					"maxclass" : "message",
					"text" : "49",
					"numinlets" : 2,
					"bgcolor" : [ 0.866667, 0.866667, 0.866667, 0.0 ],
					"numoutlets" : 1,
					"patching_rect" : [ 466.0, 180.0, 32.5, 16.0 ],
					"presentation" : 1,
					"fontname" : "Arial",
					"id" : "obj-197",
					"textcolor" : [ 0.929412, 0.360784, 0.866667, 1.0 ],
					"outlettype" : [ "" ],
					"fontface" : 1,
					"fontsize" : 10.0,
					"ignoreclick" : 1,
					"presentation_rect" : [ 466.0, 180.0, 32.5, 16.0 ]
				}

			}
, 			{
				"box" : 				{
					"maxclass" : "message",
					"text" : "51",
					"numinlets" : 2,
					"bgcolor" : [ 0.866667, 0.866667, 0.866667, 0.0 ],
					"numoutlets" : 1,
					"patching_rect" : [ 436.0, 180.0, 32.5, 16.0 ],
					"presentation" : 1,
					"fontname" : "Arial",
					"id" : "obj-198",
					"textcolor" : [ 0.929412, 0.360784, 0.866667, 1.0 ],
					"outlettype" : [ "" ],
					"fontface" : 1,
					"fontsize" : 10.0,
					"ignoreclick" : 1,
					"presentation_rect" : [ 436.0, 180.0, 32.5, 16.0 ]
				}

			}
, 			{
				"box" : 				{
					"maxclass" : "message",
					"text" : "43",
					"numinlets" : 2,
					"bgcolor" : [ 0.866667, 0.866667, 0.866667, 0.0 ],
					"numoutlets" : 1,
					"patching_rect" : [ 406.0, 180.0, 32.5, 16.0 ],
					"presentation" : 1,
					"fontname" : "Arial",
					"id" : "obj-199",
					"textcolor" : [ 0.929412, 0.360784, 0.866667, 1.0 ],
					"outlettype" : [ "" ],
					"fontface" : 1,
					"fontsize" : 10.0,
					"ignoreclick" : 1,
					"presentation_rect" : [ 406.0, 180.0, 32.5, 16.0 ]
				}

			}
, 			{
				"box" : 				{
					"maxclass" : "message",
					"text" : "45",
					"numinlets" : 2,
					"bgcolor" : [ 0.866667, 0.866667, 0.866667, 0.0 ],
					"numoutlets" : 1,
					"patching_rect" : [ 376.0, 180.0, 32.5, 16.0 ],
					"presentation" : 1,
					"fontname" : "Arial",
					"id" : "obj-200",
					"textcolor" : [ 0.929412, 0.360784, 0.866667, 1.0 ],
					"outlettype" : [ "" ],
					"fontface" : 1,
					"fontsize" : 10.0,
					"ignoreclick" : 1,
					"presentation_rect" : [ 376.0, 180.0, 32.5, 16.0 ]
				}

			}
, 			{
				"box" : 				{
					"maxclass" : "message",
					"text" : "48",
					"numinlets" : 2,
					"bgcolor" : [ 0.866667, 0.866667, 0.866667, 0.0 ],
					"numoutlets" : 1,
					"patching_rect" : [ 346.0, 180.0, 32.5, 16.0 ],
					"presentation" : 1,
					"fontname" : "Arial",
					"id" : "obj-201",
					"textcolor" : [ 0.929412, 0.360784, 0.866667, 1.0 ],
					"outlettype" : [ "" ],
					"fontface" : 1,
					"fontsize" : 10.0,
					"ignoreclick" : 1,
					"presentation_rect" : [ 346.0, 180.0, 32.5, 16.0 ]
				}

			}
, 			{
				"box" : 				{
					"maxclass" : "message",
					"text" : "49",
					"numinlets" : 2,
					"bgcolor" : [ 0.866667, 0.866667, 0.866667, 0.0 ],
					"numoutlets" : 1,
					"patching_rect" : [ 316.0, 180.0, 32.5, 16.0 ],
					"presentation" : 1,
					"fontname" : "Arial",
					"id" : "obj-202",
					"textcolor" : [ 0.929412, 0.360784, 0.866667, 1.0 ],
					"outlettype" : [ "" ],
					"fontface" : 1,
					"fontsize" : 10.0,
					"ignoreclick" : 1,
					"presentation_rect" : [ 316.0, 180.0, 32.5, 16.0 ]
				}

			}
, 			{
				"box" : 				{
					"maxclass" : "button",
					"numinlets" : 1,
					"bgcolor" : [ 0.0, 0.0, 0.0, 0.0 ],
					"numoutlets" : 1,
					"patching_rect" : [ 15.0, 177.0, 21.0, 21.0 ],
					"presentation" : 1,
					"id" : "obj-69",
					"fgcolor" : [ 0.0, 0.0, 0.0, 0.0 ],
					"outlettype" : [ "bang" ],
					"outlinecolor" : [ 0.0, 0.0, 0.0, 0.0 ],
					"blinkcolor" : [ 0.913725, 0.301961, 0.266667, 0.501961 ],
					"ignoreclick" : 1,
					"presentation_rect" : [ 15.0, 177.0, 21.0, 21.0 ]
				}

			}
, 			{
				"box" : 				{
					"maxclass" : "button",
					"numinlets" : 1,
					"bgcolor" : [ 0.0, 0.0, 0.0, 0.0 ],
					"numoutlets" : 1,
					"patching_rect" : [ 284.0, 178.0, 21.0, 21.0 ],
					"presentation" : 1,
					"id" : "obj-72",
					"fgcolor" : [ 0.0, 0.0, 0.0, 0.0 ],
					"outlettype" : [ "bang" ],
					"outlinecolor" : [ 0.0, 0.0, 0.0, 0.0 ],
					"blinkcolor" : [ 0.913725, 0.301961, 0.266667, 0.501961 ],
					"ignoreclick" : 1,
					"presentation_rect" : [ 284.0, 178.0, 21.0, 21.0 ]
				}

			}
, 			{
				"box" : 				{
					"maxclass" : "button",
					"numinlets" : 1,
					"bgcolor" : [ 0.0, 0.0, 0.0, 0.0 ],
					"numoutlets" : 1,
					"patching_rect" : [ 254.0, 178.0, 21.0, 21.0 ],
					"presentation" : 1,
					"id" : "obj-74",
					"fgcolor" : [ 0.0, 0.0, 0.0, 0.0 ],
					"outlettype" : [ "bang" ],
					"outlinecolor" : [ 0.0, 0.0, 0.0, 0.0 ],
					"blinkcolor" : [ 0.913725, 0.301961, 0.266667, 0.501961 ],
					"ignoreclick" : 1,
					"presentation_rect" : [ 254.0, 178.0, 21.0, 21.0 ]
				}

			}
, 			{
				"box" : 				{
					"maxclass" : "button",
					"numinlets" : 1,
					"bgcolor" : [ 0.0, 0.0, 0.0, 0.0 ],
					"numoutlets" : 1,
					"patching_rect" : [ 224.0, 178.0, 21.0, 21.0 ],
					"presentation" : 1,
					"id" : "obj-75",
					"fgcolor" : [ 0.0, 0.0, 0.0, 0.0 ],
					"outlettype" : [ "bang" ],
					"outlinecolor" : [ 0.0, 0.0, 0.0, 0.0 ],
					"blinkcolor" : [ 0.913725, 0.301961, 0.266667, 0.501961 ],
					"ignoreclick" : 1,
					"presentation_rect" : [ 224.0, 178.0, 21.0, 21.0 ]
				}

			}
, 			{
				"box" : 				{
					"maxclass" : "button",
					"numinlets" : 1,
					"bgcolor" : [ 0.0, 0.0, 0.0, 0.0 ],
					"numoutlets" : 1,
					"patching_rect" : [ 194.0, 178.0, 21.0, 21.0 ],
					"presentation" : 1,
					"id" : "obj-77",
					"fgcolor" : [ 0.0, 0.0, 0.0, 0.0 ],
					"outlettype" : [ "bang" ],
					"outlinecolor" : [ 0.0, 0.0, 0.0, 0.0 ],
					"blinkcolor" : [ 0.913725, 0.301961, 0.266667, 0.501961 ],
					"ignoreclick" : 1,
					"presentation_rect" : [ 194.0, 178.0, 21.0, 21.0 ]
				}

			}
, 			{
				"box" : 				{
					"maxclass" : "button",
					"numinlets" : 1,
					"bgcolor" : [ 0.0, 0.0, 0.0, 0.0 ],
					"numoutlets" : 1,
					"patching_rect" : [ 164.0, 178.0, 21.0, 21.0 ],
					"presentation" : 1,
					"id" : "obj-78",
					"fgcolor" : [ 0.0, 0.0, 0.0, 0.0 ],
					"outlettype" : [ "bang" ],
					"outlinecolor" : [ 0.0, 0.0, 0.0, 0.0 ],
					"blinkcolor" : [ 0.913725, 0.301961, 0.266667, 0.501961 ],
					"ignoreclick" : 1,
					"presentation_rect" : [ 164.0, 178.0, 21.0, 21.0 ]
				}

			}
, 			{
				"box" : 				{
					"maxclass" : "button",
					"numinlets" : 1,
					"bgcolor" : [ 0.0, 0.0, 0.0, 0.0 ],
					"numoutlets" : 1,
					"patching_rect" : [ 134.0, 178.0, 21.0, 21.0 ],
					"presentation" : 1,
					"id" : "obj-79",
					"fgcolor" : [ 0.0, 0.0, 0.0, 0.0 ],
					"outlettype" : [ "bang" ],
					"outlinecolor" : [ 0.0, 0.0, 0.0, 0.0 ],
					"blinkcolor" : [ 0.913725, 0.301961, 0.266667, 0.501961 ],
					"ignoreclick" : 1,
					"presentation_rect" : [ 134.0, 178.0, 21.0, 21.0 ]
				}

			}
, 			{
				"box" : 				{
					"maxclass" : "button",
					"numinlets" : 1,
					"bgcolor" : [ 0.0, 0.0, 0.0, 0.0 ],
					"numoutlets" : 1,
					"patching_rect" : [ 104.0, 178.0, 21.0, 21.0 ],
					"presentation" : 1,
					"id" : "obj-80",
					"fgcolor" : [ 0.0, 0.0, 0.0, 0.0 ],
					"outlettype" : [ "bang" ],
					"outlinecolor" : [ 0.0, 0.0, 0.0, 0.0 ],
					"blinkcolor" : [ 0.913725, 0.301961, 0.266667, 0.501961 ],
					"ignoreclick" : 1,
					"presentation_rect" : [ 104.0, 178.0, 21.0, 21.0 ]
				}

			}
, 			{
				"box" : 				{
					"maxclass" : "button",
					"numinlets" : 1,
					"bgcolor" : [ 0.0, 0.0, 0.0, 0.0 ],
					"numoutlets" : 1,
					"patching_rect" : [ 74.0, 178.0, 21.0, 21.0 ],
					"presentation" : 1,
					"id" : "obj-81",
					"fgcolor" : [ 0.0, 0.0, 0.0, 0.0 ],
					"outlettype" : [ "bang" ],
					"outlinecolor" : [ 0.0, 0.0, 0.0, 0.0 ],
					"blinkcolor" : [ 0.913725, 0.301961, 0.266667, 0.501961 ],
					"ignoreclick" : 1,
					"presentation_rect" : [ 74.0, 178.0, 21.0, 21.0 ]
				}

			}
, 			{
				"box" : 				{
					"maxclass" : "button",
					"numinlets" : 1,
					"bgcolor" : [ 0.0, 0.0, 0.0, 0.0 ],
					"numoutlets" : 1,
					"patching_rect" : [ 44.0, 178.0, 21.0, 21.0 ],
					"presentation" : 1,
					"id" : "obj-85",
					"fgcolor" : [ 0.0, 0.0, 0.0, 0.0 ],
					"outlettype" : [ "bang" ],
					"outlinecolor" : [ 0.0, 0.0, 0.0, 0.0 ],
					"blinkcolor" : [ 0.913725, 0.301961, 0.266667, 0.501961 ],
					"ignoreclick" : 1,
					"presentation_rect" : [ 44.0, 178.0, 21.0, 21.0 ]
				}

			}
, 			{
				"box" : 				{
					"maxclass" : "message",
					"text" : "40",
					"numinlets" : 2,
					"bgcolor" : [ 0.866667, 0.866667, 0.866667, 0.0 ],
					"numoutlets" : 1,
					"patching_rect" : [ 286.0, 180.0, 32.5, 16.0 ],
					"presentation" : 1,
					"fontname" : "Arial",
					"id" : "obj-87",
					"textcolor" : [ 0.929412, 0.360784, 0.866667, 1.0 ],
					"outlettype" : [ "" ],
					"fontface" : 1,
					"fontsize" : 10.0,
					"ignoreclick" : 1,
					"presentation_rect" : [ 286.0, 180.0, 32.5, 16.0 ]
				}

			}
, 			{
				"box" : 				{
					"maxclass" : "message",
					"text" : "42",
					"numinlets" : 2,
					"bgcolor" : [ 0.866667, 0.866667, 0.866667, 0.0 ],
					"numoutlets" : 1,
					"patching_rect" : [ 256.0, 180.0, 32.5, 16.0 ],
					"presentation" : 1,
					"fontname" : "Arial",
					"id" : "obj-89",
					"textcolor" : [ 0.929412, 0.360784, 0.866667, 1.0 ],
					"outlettype" : [ "" ],
					"fontface" : 1,
					"fontsize" : 10.0,
					"ignoreclick" : 1,
					"presentation_rect" : [ 256.0, 180.0, 32.5, 16.0 ]
				}

			}
, 			{
				"box" : 				{
					"maxclass" : "message",
					"text" : "43",
					"numinlets" : 2,
					"bgcolor" : [ 0.866667, 0.866667, 0.866667, 0.0 ],
					"numoutlets" : 1,
					"patching_rect" : [ 226.0, 180.0, 32.5, 16.0 ],
					"presentation" : 1,
					"fontname" : "Arial",
					"id" : "obj-99",
					"textcolor" : [ 0.929412, 0.360784, 0.866667, 1.0 ],
					"outlettype" : [ "" ],
					"fontface" : 1,
					"fontsize" : 10.0,
					"ignoreclick" : 1,
					"presentation_rect" : [ 226.0, 180.0, 32.5, 16.0 ]
				}

			}
, 			{
				"box" : 				{
					"maxclass" : "message",
					"text" : "49",
					"numinlets" : 2,
					"bgcolor" : [ 0.866667, 0.866667, 0.866667, 0.0 ],
					"numoutlets" : 1,
					"patching_rect" : [ 196.0, 180.0, 32.5, 16.0 ],
					"presentation" : 1,
					"fontname" : "Arial",
					"id" : "obj-112",
					"textcolor" : [ 0.929412, 0.360784, 0.866667, 1.0 ],
					"outlettype" : [ "" ],
					"fontface" : 1,
					"fontsize" : 10.0,
					"ignoreclick" : 1,
					"presentation_rect" : [ 196.0, 180.0, 32.5, 16.0 ]
				}

			}
, 			{
				"box" : 				{
					"maxclass" : "message",
					"text" : "40",
					"numinlets" : 2,
					"bgcolor" : [ 0.866667, 0.866667, 0.866667, 0.0 ],
					"numoutlets" : 1,
					"patching_rect" : [ 166.0, 180.0, 32.5, 16.0 ],
					"presentation" : 1,
					"fontname" : "Arial",
					"id" : "obj-113",
					"textcolor" : [ 0.929412, 0.360784, 0.866667, 1.0 ],
					"outlettype" : [ "" ],
					"fontface" : 1,
					"fontsize" : 10.0,
					"ignoreclick" : 1,
					"presentation_rect" : [ 166.0, 180.0, 32.5, 16.0 ]
				}

			}
, 			{
				"box" : 				{
					"maxclass" : "message",
					"text" : "45",
					"numinlets" : 2,
					"bgcolor" : [ 0.866667, 0.866667, 0.866667, 0.0 ],
					"numoutlets" : 1,
					"patching_rect" : [ 136.0, 180.0, 32.5, 16.0 ],
					"presentation" : 1,
					"fontname" : "Arial",
					"id" : "obj-125",
					"textcolor" : [ 0.929412, 0.360784, 0.866667, 1.0 ],
					"outlettype" : [ "" ],
					"fontface" : 1,
					"fontsize" : 10.0,
					"ignoreclick" : 1,
					"presentation_rect" : [ 136.0, 180.0, 32.5, 16.0 ]
				}

			}
, 			{
				"box" : 				{
					"maxclass" : "message",
					"text" : "38",
					"numinlets" : 2,
					"bgcolor" : [ 0.866667, 0.866667, 0.866667, 0.0 ],
					"numoutlets" : 1,
					"patching_rect" : [ 106.0, 180.0, 32.5, 16.0 ],
					"presentation" : 1,
					"fontname" : "Arial",
					"id" : "obj-157",
					"textcolor" : [ 0.929412, 0.360784, 0.866667, 1.0 ],
					"outlettype" : [ "" ],
					"fontface" : 1,
					"fontsize" : 10.0,
					"ignoreclick" : 1,
					"presentation_rect" : [ 106.0, 180.0, 32.5, 16.0 ]
				}

			}
, 			{
				"box" : 				{
					"maxclass" : "message",
					"text" : "48",
					"numinlets" : 2,
					"bgcolor" : [ 0.866667, 0.866667, 0.866667, 0.0 ],
					"numoutlets" : 1,
					"patching_rect" : [ 76.0, 180.0, 32.5, 16.0 ],
					"presentation" : 1,
					"fontname" : "Arial",
					"id" : "obj-164",
					"textcolor" : [ 0.929412, 0.360784, 0.866667, 1.0 ],
					"outlettype" : [ "" ],
					"fontface" : 1,
					"fontsize" : 10.0,
					"ignoreclick" : 1,
					"presentation_rect" : [ 76.0, 180.0, 32.5, 16.0 ]
				}

			}
, 			{
				"box" : 				{
					"maxclass" : "message",
					"text" : "36",
					"numinlets" : 2,
					"bgcolor" : [ 0.866667, 0.866667, 0.866667, 0.0 ],
					"numoutlets" : 1,
					"patching_rect" : [ 46.0, 180.0, 32.5, 16.0 ],
					"presentation" : 1,
					"fontname" : "Arial",
					"id" : "obj-166",
					"textcolor" : [ 0.929412, 0.360784, 0.866667, 1.0 ],
					"outlettype" : [ "" ],
					"fontface" : 1,
					"fontsize" : 10.0,
					"ignoreclick" : 1,
					"presentation_rect" : [ 46.0, 180.0, 32.5, 16.0 ]
				}

			}
, 			{
				"box" : 				{
					"maxclass" : "message",
					"text" : "39",
					"numinlets" : 2,
					"bgcolor" : [ 0.866667, 0.866667, 0.866667, 0.0 ],
					"numoutlets" : 1,
					"patching_rect" : [ 16.0, 180.0, 32.5, 16.0 ],
					"presentation" : 1,
					"fontname" : "Arial",
					"id" : "obj-172",
					"textcolor" : [ 0.929412, 0.360784, 0.866667, 1.0 ],
					"outlettype" : [ "" ],
					"fontface" : 1,
					"fontsize" : 10.0,
					"ignoreclick" : 1,
					"presentation_rect" : [ 16.0, 180.0, 32.5, 16.0 ]
				}

			}
, 			{
				"box" : 				{
					"maxclass" : "newobj",
					"text" : "spray 17 10",
					"numinlets" : 1,
					"numoutlets" : 17,
					"patching_rect" : [ 16.0, 150.0, 497.0, 20.0 ],
					"fontname" : "Arial",
					"id" : "obj-176",
					"outlettype" : [ "", "", "", "", "", "", "", "", "", "", "", "", "", "", "", "", "" ],
					"fontsize" : 12.0
				}

			}
, 			{
				"box" : 				{
					"maxclass" : "button",
					"numinlets" : 1,
					"bgcolor" : [ 0.0, 0.0, 0.0, 0.0 ],
					"numoutlets" : 1,
					"patching_rect" : [ 30.0, 117.0, 21.0, 21.0 ],
					"presentation" : 1,
					"id" : "obj-114",
					"fgcolor" : [ 0.0, 0.0, 0.0, 0.0 ],
					"outlettype" : [ "bang" ],
					"outlinecolor" : [ 0.0, 0.0, 0.0, 0.0 ],
					"blinkcolor" : [ 0.913725, 0.301961, 0.266667, 0.501961 ],
					"ignoreclick" : 1,
					"presentation_rect" : [ 30.0, 117.0, 21.0, 21.0 ]
				}

			}
, 			{
				"box" : 				{
					"maxclass" : "button",
					"numinlets" : 1,
					"bgcolor" : [ 0.0, 0.0, 0.0, 0.0 ],
					"numoutlets" : 1,
					"patching_rect" : [ 299.0, 118.0, 21.0, 21.0 ],
					"presentation" : 1,
					"id" : "obj-159",
					"fgcolor" : [ 0.0, 0.0, 0.0, 0.0 ],
					"outlettype" : [ "bang" ],
					"outlinecolor" : [ 0.0, 0.0, 0.0, 0.0 ],
					"blinkcolor" : [ 0.913725, 0.301961, 0.266667, 0.501961 ],
					"ignoreclick" : 1,
					"presentation_rect" : [ 299.0, 118.0, 21.0, 21.0 ]
				}

			}
, 			{
				"box" : 				{
					"maxclass" : "button",
					"numinlets" : 1,
					"bgcolor" : [ 0.0, 0.0, 0.0, 0.0 ],
					"numoutlets" : 1,
					"patching_rect" : [ 269.0, 118.0, 21.0, 21.0 ],
					"presentation" : 1,
					"id" : "obj-155",
					"fgcolor" : [ 0.0, 0.0, 0.0, 0.0 ],
					"outlettype" : [ "bang" ],
					"outlinecolor" : [ 0.0, 0.0, 0.0, 0.0 ],
					"blinkcolor" : [ 0.913725, 0.301961, 0.266667, 0.501961 ],
					"ignoreclick" : 1,
					"presentation_rect" : [ 269.0, 118.0, 21.0, 21.0 ]
				}

			}
, 			{
				"box" : 				{
					"maxclass" : "button",
					"numinlets" : 1,
					"bgcolor" : [ 0.0, 0.0, 0.0, 0.0 ],
					"numoutlets" : 1,
					"patching_rect" : [ 239.0, 118.0, 21.0, 21.0 ],
					"presentation" : 1,
					"id" : "obj-156",
					"fgcolor" : [ 0.0, 0.0, 0.0, 0.0 ],
					"outlettype" : [ "bang" ],
					"outlinecolor" : [ 0.0, 0.0, 0.0, 0.0 ],
					"blinkcolor" : [ 0.913725, 0.301961, 0.266667, 0.501961 ],
					"ignoreclick" : 1,
					"presentation_rect" : [ 239.0, 118.0, 21.0, 21.0 ]
				}

			}
, 			{
				"box" : 				{
					"maxclass" : "button",
					"numinlets" : 1,
					"bgcolor" : [ 0.0, 0.0, 0.0, 0.0 ],
					"numoutlets" : 1,
					"patching_rect" : [ 209.0, 118.0, 21.0, 21.0 ],
					"presentation" : 1,
					"id" : "obj-158",
					"fgcolor" : [ 0.0, 0.0, 0.0, 0.0 ],
					"outlettype" : [ "bang" ],
					"outlinecolor" : [ 0.0, 0.0, 0.0, 0.0 ],
					"blinkcolor" : [ 0.913725, 0.301961, 0.266667, 0.501961 ],
					"ignoreclick" : 1,
					"presentation_rect" : [ 209.0, 118.0, 21.0, 21.0 ]
				}

			}
, 			{
				"box" : 				{
					"maxclass" : "button",
					"numinlets" : 1,
					"bgcolor" : [ 0.0, 0.0, 0.0, 0.0 ],
					"numoutlets" : 1,
					"patching_rect" : [ 179.0, 118.0, 21.0, 21.0 ],
					"presentation" : 1,
					"id" : "obj-153",
					"fgcolor" : [ 0.0, 0.0, 0.0, 0.0 ],
					"outlettype" : [ "bang" ],
					"outlinecolor" : [ 0.0, 0.0, 0.0, 0.0 ],
					"blinkcolor" : [ 0.913725, 0.301961, 0.266667, 0.501961 ],
					"ignoreclick" : 1,
					"presentation_rect" : [ 179.0, 118.0, 21.0, 21.0 ]
				}

			}
, 			{
				"box" : 				{
					"maxclass" : "button",
					"numinlets" : 1,
					"bgcolor" : [ 0.0, 0.0, 0.0, 0.0 ],
					"numoutlets" : 1,
					"patching_rect" : [ 149.0, 118.0, 21.0, 21.0 ],
					"presentation" : 1,
					"id" : "obj-152",
					"fgcolor" : [ 0.0, 0.0, 0.0, 0.0 ],
					"outlettype" : [ "bang" ],
					"outlinecolor" : [ 0.0, 0.0, 0.0, 0.0 ],
					"blinkcolor" : [ 0.913725, 0.301961, 0.266667, 0.501961 ],
					"ignoreclick" : 1,
					"presentation_rect" : [ 149.0, 118.0, 21.0, 21.0 ]
				}

			}
, 			{
				"box" : 				{
					"maxclass" : "button",
					"numinlets" : 1,
					"bgcolor" : [ 0.0, 0.0, 0.0, 0.0 ],
					"numoutlets" : 1,
					"patching_rect" : [ 119.0, 118.0, 21.0, 21.0 ],
					"presentation" : 1,
					"id" : "obj-151",
					"fgcolor" : [ 0.0, 0.0, 0.0, 0.0 ],
					"outlettype" : [ "bang" ],
					"outlinecolor" : [ 0.0, 0.0, 0.0, 0.0 ],
					"blinkcolor" : [ 0.913725, 0.301961, 0.266667, 0.501961 ],
					"ignoreclick" : 1,
					"presentation_rect" : [ 119.0, 118.0, 21.0, 21.0 ]
				}

			}
, 			{
				"box" : 				{
					"maxclass" : "button",
					"numinlets" : 1,
					"bgcolor" : [ 0.0, 0.0, 0.0, 0.0 ],
					"numoutlets" : 1,
					"patching_rect" : [ 89.0, 118.0, 21.0, 21.0 ],
					"presentation" : 1,
					"id" : "obj-150",
					"fgcolor" : [ 0.0, 0.0, 0.0, 0.0 ],
					"outlettype" : [ "bang" ],
					"outlinecolor" : [ 0.0, 0.0, 0.0, 0.0 ],
					"blinkcolor" : [ 0.913725, 0.301961, 0.266667, 0.501961 ],
					"ignoreclick" : 1,
					"presentation_rect" : [ 89.0, 118.0, 21.0, 21.0 ]
				}

			}
, 			{
				"box" : 				{
					"maxclass" : "button",
					"numinlets" : 1,
					"bgcolor" : [ 0.0, 0.0, 0.0, 0.0 ],
					"numoutlets" : 1,
					"patching_rect" : [ 59.0, 118.0, 21.0, 21.0 ],
					"presentation" : 1,
					"id" : "obj-148",
					"fgcolor" : [ 0.0, 0.0, 0.0, 0.0 ],
					"outlettype" : [ "bang" ],
					"outlinecolor" : [ 0.0, 0.0, 0.0, 0.0 ],
					"blinkcolor" : [ 0.913725, 0.301961, 0.266667, 0.501961 ],
					"ignoreclick" : 1,
					"presentation_rect" : [ 59.0, 118.0, 21.0, 21.0 ]
				}

			}
, 			{
				"box" : 				{
					"maxclass" : "message",
					"text" : "69",
					"numinlets" : 2,
					"bgcolor" : [ 0.866667, 0.866667, 0.866667, 0.0 ],
					"numoutlets" : 1,
					"patching_rect" : [ 301.0, 120.0, 32.5, 16.0 ],
					"presentation" : 1,
					"fontname" : "Arial",
					"id" : "obj-32",
					"textcolor" : [ 0.929412, 0.360784, 0.866667, 1.0 ],
					"outlettype" : [ "" ],
					"fontface" : 1,
					"fontsize" : 10.0,
					"ignoreclick" : 1,
					"presentation_rect" : [ 301.0, 120.0, 32.5, 16.0 ]
				}

			}
, 			{
				"box" : 				{
					"maxclass" : "message",
					"text" : "68",
					"numinlets" : 2,
					"bgcolor" : [ 0.866667, 0.866667, 0.866667, 0.0 ],
					"numoutlets" : 1,
					"patching_rect" : [ 271.0, 120.0, 32.5, 16.0 ],
					"presentation" : 1,
					"fontname" : "Arial",
					"id" : "obj-33",
					"textcolor" : [ 0.929412, 0.360784, 0.866667, 1.0 ],
					"outlettype" : [ "" ],
					"fontface" : 1,
					"fontsize" : 10.0,
					"ignoreclick" : 1,
					"presentation_rect" : [ 271.0, 120.0, 32.5, 16.0 ]
				}

			}
, 			{
				"box" : 				{
					"maxclass" : "message",
					"text" : "67",
					"numinlets" : 2,
					"bgcolor" : [ 0.866667, 0.866667, 0.866667, 0.0 ],
					"numoutlets" : 1,
					"patching_rect" : [ 241.0, 120.0, 32.5, 16.0 ],
					"presentation" : 1,
					"fontname" : "Arial",
					"id" : "obj-28",
					"textcolor" : [ 0.929412, 0.360784, 0.866667, 1.0 ],
					"outlettype" : [ "" ],
					"fontface" : 1,
					"fontsize" : 10.0,
					"ignoreclick" : 1,
					"presentation_rect" : [ 241.0, 120.0, 32.5, 16.0 ]
				}

			}
, 			{
				"box" : 				{
					"maxclass" : "message",
					"text" : "66",
					"numinlets" : 2,
					"bgcolor" : [ 0.866667, 0.866667, 0.866667, 0.0 ],
					"numoutlets" : 1,
					"patching_rect" : [ 211.0, 120.0, 32.5, 16.0 ],
					"presentation" : 1,
					"fontname" : "Arial",
					"id" : "obj-29",
					"textcolor" : [ 0.929412, 0.360784, 0.866667, 1.0 ],
					"outlettype" : [ "" ],
					"fontface" : 1,
					"fontsize" : 10.0,
					"ignoreclick" : 1,
					"presentation_rect" : [ 211.0, 120.0, 32.5, 16.0 ]
				}

			}
, 			{
				"box" : 				{
					"maxclass" : "message",
					"text" : "65",
					"numinlets" : 2,
					"bgcolor" : [ 0.866667, 0.866667, 0.866667, 0.0 ],
					"numoutlets" : 1,
					"patching_rect" : [ 181.0, 120.0, 32.5, 16.0 ],
					"presentation" : 1,
					"fontname" : "Arial",
					"id" : "obj-30",
					"textcolor" : [ 0.929412, 0.360784, 0.866667, 1.0 ],
					"outlettype" : [ "" ],
					"fontface" : 1,
					"fontsize" : 10.0,
					"ignoreclick" : 1,
					"presentation_rect" : [ 181.0, 120.0, 32.5, 16.0 ]
				}

			}
, 			{
				"box" : 				{
					"maxclass" : "message",
					"text" : "64",
					"numinlets" : 2,
					"bgcolor" : [ 0.866667, 0.866667, 0.866667, 0.0 ],
					"numoutlets" : 1,
					"patching_rect" : [ 151.0, 120.0, 32.5, 16.0 ],
					"presentation" : 1,
					"fontname" : "Arial",
					"id" : "obj-31",
					"textcolor" : [ 0.929412, 0.360784, 0.866667, 1.0 ],
					"outlettype" : [ "" ],
					"fontface" : 1,
					"fontsize" : 10.0,
					"ignoreclick" : 1,
					"presentation_rect" : [ 151.0, 120.0, 32.5, 16.0 ]
				}

			}
, 			{
				"box" : 				{
					"maxclass" : "message",
					"text" : "63",
					"numinlets" : 2,
					"bgcolor" : [ 0.866667, 0.866667, 0.866667, 0.0 ],
					"numoutlets" : 1,
					"patching_rect" : [ 121.0, 120.0, 32.5, 16.0 ],
					"presentation" : 1,
					"fontname" : "Arial",
					"id" : "obj-26",
					"textcolor" : [ 0.929412, 0.360784, 0.866667, 1.0 ],
					"outlettype" : [ "" ],
					"fontface" : 1,
					"fontsize" : 10.0,
					"ignoreclick" : 1,
					"presentation_rect" : [ 121.0, 120.0, 32.5, 16.0 ]
				}

			}
, 			{
				"box" : 				{
					"maxclass" : "message",
					"text" : "62",
					"numinlets" : 2,
					"bgcolor" : [ 0.866667, 0.866667, 0.866667, 0.0 ],
					"numoutlets" : 1,
					"patching_rect" : [ 91.0, 120.0, 32.5, 16.0 ],
					"presentation" : 1,
					"fontname" : "Arial",
					"id" : "obj-27",
					"textcolor" : [ 0.929412, 0.360784, 0.866667, 1.0 ],
					"outlettype" : [ "" ],
					"fontface" : 1,
					"fontsize" : 10.0,
					"ignoreclick" : 1,
					"presentation_rect" : [ 91.0, 120.0, 32.5, 16.0 ]
				}

			}
, 			{
				"box" : 				{
					"maxclass" : "message",
					"text" : "61",
					"numinlets" : 2,
					"bgcolor" : [ 0.866667, 0.866667, 0.866667, 0.0 ],
					"numoutlets" : 1,
					"patching_rect" : [ 61.0, 120.0, 32.5, 16.0 ],
					"presentation" : 1,
					"fontname" : "Arial",
					"id" : "obj-25",
					"textcolor" : [ 0.929412, 0.360784, 0.866667, 1.0 ],
					"outlettype" : [ "" ],
					"fontface" : 1,
					"fontsize" : 10.0,
					"ignoreclick" : 1,
					"presentation_rect" : [ 61.0, 120.0, 32.5, 16.0 ]
				}

			}
, 			{
				"box" : 				{
					"maxclass" : "message",
					"text" : "60",
					"numinlets" : 2,
					"bgcolor" : [ 0.866667, 0.866667, 0.866667, 0.0 ],
					"numoutlets" : 1,
					"patching_rect" : [ 31.0, 120.0, 32.5, 16.0 ],
					"presentation" : 1,
					"fontname" : "Arial",
					"id" : "obj-20",
					"textcolor" : [ 0.929412, 0.360784, 0.866667, 1.0 ],
					"outlettype" : [ "" ],
					"fontface" : 1,
					"fontsize" : 10.0,
					"ignoreclick" : 1,
					"presentation_rect" : [ 31.0, 120.0, 32.5, 16.0 ]
				}

			}
, 			{
				"box" : 				{
					"maxclass" : "newobj",
					"text" : "spray 10",
					"numinlets" : 1,
					"numoutlets" : 10,
					"patching_rect" : [ 31.0, 90.0, 288.5, 20.0 ],
					"fontname" : "Arial",
					"id" : "obj-14",
					"outlettype" : [ "", "", "", "", "", "", "", "", "", "" ],
					"fontsize" : 12.0
				}

			}
 ],
		"lines" : [ 			{
				"patchline" : 				{
					"source" : [ "obj-1", 0 ],
					"destination" : [ "obj-215", 0 ],
					"hidden" : 0,
					"midpoints" : [  ]
				}

			}
, 			{
				"patchline" : 				{
					"source" : [ "obj-1", 0 ],
					"destination" : [ "obj-176", 0 ],
					"hidden" : 0,
					"midpoints" : [  ]
				}

			}
, 			{
				"patchline" : 				{
					"source" : [ "obj-1", 0 ],
					"destination" : [ "obj-14", 0 ],
					"hidden" : 0,
					"midpoints" : [  ]
				}

			}
, 			{
				"patchline" : 				{
					"source" : [ "obj-176", 12 ],
					"destination" : [ "obj-200", 1 ],
					"hidden" : 0,
					"midpoints" : [  ]
				}

			}
, 			{
				"patchline" : 				{
					"source" : [ "obj-176", 13 ],
					"destination" : [ "obj-199", 1 ],
					"hidden" : 0,
					"midpoints" : [  ]
				}

			}
, 			{
				"patchline" : 				{
					"source" : [ "obj-176", 14 ],
					"destination" : [ "obj-198", 1 ],
					"hidden" : 0,
					"midpoints" : [  ]
				}

			}
, 			{
				"patchline" : 				{
					"source" : [ "obj-176", 15 ],
					"destination" : [ "obj-197", 1 ],
					"hidden" : 0,
					"midpoints" : [  ]
				}

			}
, 			{
				"patchline" : 				{
					"source" : [ "obj-176", 16 ],
					"destination" : [ "obj-196", 1 ],
					"hidden" : 0,
					"midpoints" : [  ]
				}

			}
, 			{
				"patchline" : 				{
					"source" : [ "obj-176", 11 ],
					"destination" : [ "obj-201", 1 ],
					"hidden" : 0,
					"midpoints" : [  ]
				}

			}
, 			{
				"patchline" : 				{
					"source" : [ "obj-176", 11 ],
					"destination" : [ "obj-192", 0 ],
					"hidden" : 0,
					"midpoints" : [  ]
				}

			}
, 			{
				"patchline" : 				{
					"source" : [ "obj-176", 10 ],
					"destination" : [ "obj-202", 1 ],
					"hidden" : 0,
					"midpoints" : [  ]
				}

			}
, 			{
				"patchline" : 				{
					"source" : [ "obj-176", 16 ],
					"destination" : [ "obj-187", 0 ],
					"hidden" : 0,
					"midpoints" : [  ]
				}

			}
, 			{
				"patchline" : 				{
					"source" : [ "obj-176", 15 ],
					"destination" : [ "obj-188", 0 ],
					"hidden" : 0,
					"midpoints" : [  ]
				}

			}
, 			{
				"patchline" : 				{
					"source" : [ "obj-176", 14 ],
					"destination" : [ "obj-189", 0 ],
					"hidden" : 0,
					"midpoints" : [  ]
				}

			}
, 			{
				"patchline" : 				{
					"source" : [ "obj-176", 13 ],
					"destination" : [ "obj-190", 0 ],
					"hidden" : 0,
					"midpoints" : [  ]
				}

			}
, 			{
				"patchline" : 				{
					"source" : [ "obj-176", 12 ],
					"destination" : [ "obj-191", 0 ],
					"hidden" : 0,
					"midpoints" : [  ]
				}

			}
, 			{
				"patchline" : 				{
					"source" : [ "obj-176", 10 ],
					"destination" : [ "obj-178", 0 ],
					"hidden" : 0,
					"midpoints" : [  ]
				}

			}
, 			{
				"patchline" : 				{
					"source" : [ "obj-176", 9 ],
					"destination" : [ "obj-72", 0 ],
					"hidden" : 0,
					"midpoints" : [  ]
				}

			}
, 			{
				"patchline" : 				{
					"source" : [ "obj-176", 8 ],
					"destination" : [ "obj-74", 0 ],
					"hidden" : 0,
					"midpoints" : [  ]
				}

			}
, 			{
				"patchline" : 				{
					"source" : [ "obj-176", 7 ],
					"destination" : [ "obj-75", 0 ],
					"hidden" : 0,
					"midpoints" : [  ]
				}

			}
, 			{
				"patchline" : 				{
					"source" : [ "obj-176", 6 ],
					"destination" : [ "obj-77", 0 ],
					"hidden" : 0,
					"midpoints" : [  ]
				}

			}
, 			{
				"patchline" : 				{
					"source" : [ "obj-176", 5 ],
					"destination" : [ "obj-78", 0 ],
					"hidden" : 0,
					"midpoints" : [  ]
				}

			}
, 			{
				"patchline" : 				{
					"source" : [ "obj-176", 4 ],
					"destination" : [ "obj-79", 0 ],
					"hidden" : 0,
					"midpoints" : [  ]
				}

			}
, 			{
				"patchline" : 				{
					"source" : [ "obj-176", 3 ],
					"destination" : [ "obj-80", 0 ],
					"hidden" : 0,
					"midpoints" : [  ]
				}

			}
, 			{
				"patchline" : 				{
					"source" : [ "obj-176", 2 ],
					"destination" : [ "obj-81", 0 ],
					"hidden" : 0,
					"midpoints" : [  ]
				}

			}
, 			{
				"patchline" : 				{
					"source" : [ "obj-176", 1 ],
					"destination" : [ "obj-85", 0 ],
					"hidden" : 0,
					"midpoints" : [  ]
				}

			}
, 			{
				"patchline" : 				{
					"source" : [ "obj-176", 0 ],
					"destination" : [ "obj-69", 0 ],
					"hidden" : 0,
					"midpoints" : [  ]
				}

			}
, 			{
				"patchline" : 				{
					"source" : [ "obj-176", 0 ],
					"destination" : [ "obj-172", 1 ],
					"hidden" : 0,
					"midpoints" : [  ]
				}

			}
, 			{
				"patchline" : 				{
					"source" : [ "obj-176", 1 ],
					"destination" : [ "obj-166", 1 ],
					"hidden" : 0,
					"midpoints" : [  ]
				}

			}
, 			{
				"patchline" : 				{
					"source" : [ "obj-176", 2 ],
					"destination" : [ "obj-164", 1 ],
					"hidden" : 0,
					"midpoints" : [  ]
				}

			}
, 			{
				"patchline" : 				{
					"source" : [ "obj-176", 3 ],
					"destination" : [ "obj-157", 1 ],
					"hidden" : 0,
					"midpoints" : [  ]
				}

			}
, 			{
				"patchline" : 				{
					"source" : [ "obj-176", 4 ],
					"destination" : [ "obj-125", 1 ],
					"hidden" : 0,
					"midpoints" : [  ]
				}

			}
, 			{
				"patchline" : 				{
					"source" : [ "obj-176", 5 ],
					"destination" : [ "obj-113", 1 ],
					"hidden" : 0,
					"midpoints" : [  ]
				}

			}
, 			{
				"patchline" : 				{
					"source" : [ "obj-176", 6 ],
					"destination" : [ "obj-112", 1 ],
					"hidden" : 0,
					"midpoints" : [  ]
				}

			}
, 			{
				"patchline" : 				{
					"source" : [ "obj-176", 7 ],
					"destination" : [ "obj-99", 1 ],
					"hidden" : 0,
					"midpoints" : [  ]
				}

			}
, 			{
				"patchline" : 				{
					"source" : [ "obj-176", 8 ],
					"destination" : [ "obj-89", 1 ],
					"hidden" : 0,
					"midpoints" : [  ]
				}

			}
, 			{
				"patchline" : 				{
					"source" : [ "obj-176", 9 ],
					"destination" : [ "obj-87", 1 ],
					"hidden" : 0,
					"midpoints" : [  ]
				}

			}
, 			{
				"patchline" : 				{
					"source" : [ "obj-14", 9 ],
					"destination" : [ "obj-159", 0 ],
					"hidden" : 0,
					"midpoints" : [  ]
				}

			}
, 			{
				"patchline" : 				{
					"source" : [ "obj-14", 8 ],
					"destination" : [ "obj-155", 0 ],
					"hidden" : 0,
					"midpoints" : [  ]
				}

			}
, 			{
				"patchline" : 				{
					"source" : [ "obj-14", 7 ],
					"destination" : [ "obj-156", 0 ],
					"hidden" : 0,
					"midpoints" : [  ]
				}

			}
, 			{
				"patchline" : 				{
					"source" : [ "obj-14", 6 ],
					"destination" : [ "obj-158", 0 ],
					"hidden" : 0,
					"midpoints" : [  ]
				}

			}
, 			{
				"patchline" : 				{
					"source" : [ "obj-14", 5 ],
					"destination" : [ "obj-153", 0 ],
					"hidden" : 0,
					"midpoints" : [  ]
				}

			}
, 			{
				"patchline" : 				{
					"source" : [ "obj-14", 4 ],
					"destination" : [ "obj-152", 0 ],
					"hidden" : 0,
					"midpoints" : [  ]
				}

			}
, 			{
				"patchline" : 				{
					"source" : [ "obj-14", 3 ],
					"destination" : [ "obj-151", 0 ],
					"hidden" : 0,
					"midpoints" : [  ]
				}

			}
, 			{
				"patchline" : 				{
					"source" : [ "obj-14", 2 ],
					"destination" : [ "obj-150", 0 ],
					"hidden" : 0,
					"midpoints" : [  ]
				}

			}
, 			{
				"patchline" : 				{
					"source" : [ "obj-14", 1 ],
					"destination" : [ "obj-148", 0 ],
					"hidden" : 0,
					"midpoints" : [  ]
				}

			}
, 			{
				"patchline" : 				{
					"source" : [ "obj-14", 0 ],
					"destination" : [ "obj-114", 0 ],
					"hidden" : 0,
					"midpoints" : [  ]
				}

			}
, 			{
				"patchline" : 				{
					"source" : [ "obj-14", 0 ],
					"destination" : [ "obj-20", 1 ],
					"hidden" : 0,
					"midpoints" : [  ]
				}

			}
, 			{
				"patchline" : 				{
					"source" : [ "obj-14", 1 ],
					"destination" : [ "obj-25", 1 ],
					"hidden" : 0,
					"midpoints" : [  ]
				}

			}
, 			{
				"patchline" : 				{
					"source" : [ "obj-14", 2 ],
					"destination" : [ "obj-27", 1 ],
					"hidden" : 0,
					"midpoints" : [  ]
				}

			}
, 			{
				"patchline" : 				{
					"source" : [ "obj-14", 3 ],
					"destination" : [ "obj-26", 1 ],
					"hidden" : 0,
					"midpoints" : [  ]
				}

			}
, 			{
				"patchline" : 				{
					"source" : [ "obj-14", 4 ],
					"destination" : [ "obj-31", 1 ],
					"hidden" : 0,
					"midpoints" : [  ]
				}

			}
, 			{
				"patchline" : 				{
					"source" : [ "obj-14", 5 ],
					"destination" : [ "obj-30", 1 ],
					"hidden" : 0,
					"midpoints" : [  ]
				}

			}
, 			{
				"patchline" : 				{
					"source" : [ "obj-14", 6 ],
					"destination" : [ "obj-29", 1 ],
					"hidden" : 0,
					"midpoints" : [  ]
				}

			}
, 			{
				"patchline" : 				{
					"source" : [ "obj-14", 7 ],
					"destination" : [ "obj-28", 1 ],
					"hidden" : 0,
					"midpoints" : [  ]
				}

			}
, 			{
				"patchline" : 				{
					"source" : [ "obj-14", 8 ],
					"destination" : [ "obj-33", 1 ],
					"hidden" : 0,
					"midpoints" : [  ]
				}

			}
, 			{
				"patchline" : 				{
					"source" : [ "obj-14", 9 ],
					"destination" : [ "obj-32", 1 ],
					"hidden" : 0,
					"midpoints" : [  ]
				}

			}
, 			{
				"patchline" : 				{
					"source" : [ "obj-215", 9 ],
					"destination" : [ "obj-11", 0 ],
					"hidden" : 0,
					"midpoints" : [  ]
				}

			}
, 			{
				"patchline" : 				{
					"source" : [ "obj-215", 8 ],
					"destination" : [ "obj-13", 0 ],
					"hidden" : 0,
					"midpoints" : [  ]
				}

			}
, 			{
				"patchline" : 				{
					"source" : [ "obj-215", 7 ],
					"destination" : [ "obj-24", 0 ],
					"hidden" : 0,
					"midpoints" : [  ]
				}

			}
, 			{
				"patchline" : 				{
					"source" : [ "obj-215", 6 ],
					"destination" : [ "obj-37", 0 ],
					"hidden" : 0,
					"midpoints" : [  ]
				}

			}
, 			{
				"patchline" : 				{
					"source" : [ "obj-215", 5 ],
					"destination" : [ "obj-180", 0 ],
					"hidden" : 0,
					"midpoints" : [  ]
				}

			}
, 			{
				"patchline" : 				{
					"source" : [ "obj-215", 4 ],
					"destination" : [ "obj-186", 0 ],
					"hidden" : 0,
					"midpoints" : [  ]
				}

			}
, 			{
				"patchline" : 				{
					"source" : [ "obj-215", 3 ],
					"destination" : [ "obj-193", 0 ],
					"hidden" : 0,
					"midpoints" : [  ]
				}

			}
, 			{
				"patchline" : 				{
					"source" : [ "obj-215", 2 ],
					"destination" : [ "obj-194", 0 ],
					"hidden" : 0,
					"midpoints" : [  ]
				}

			}
, 			{
				"patchline" : 				{
					"source" : [ "obj-215", 1 ],
					"destination" : [ "obj-195", 0 ],
					"hidden" : 0,
					"midpoints" : [  ]
				}

			}
, 			{
				"patchline" : 				{
					"source" : [ "obj-215", 0 ],
					"destination" : [ "obj-10", 0 ],
					"hidden" : 0,
					"midpoints" : [  ]
				}

			}
, 			{
				"patchline" : 				{
					"source" : [ "obj-215", 0 ],
					"destination" : [ "obj-214", 1 ],
					"hidden" : 0,
					"midpoints" : [  ]
				}

			}
, 			{
				"patchline" : 				{
					"source" : [ "obj-215", 1 ],
					"destination" : [ "obj-212", 1 ],
					"hidden" : 0,
					"midpoints" : [  ]
				}

			}
, 			{
				"patchline" : 				{
					"source" : [ "obj-215", 2 ],
					"destination" : [ "obj-211", 1 ],
					"hidden" : 0,
					"midpoints" : [  ]
				}

			}
, 			{
				"patchline" : 				{
					"source" : [ "obj-215", 3 ],
					"destination" : [ "obj-210", 1 ],
					"hidden" : 0,
					"midpoints" : [  ]
				}

			}
, 			{
				"patchline" : 				{
					"source" : [ "obj-215", 4 ],
					"destination" : [ "obj-209", 1 ],
					"hidden" : 0,
					"midpoints" : [  ]
				}

			}
, 			{
				"patchline" : 				{
					"source" : [ "obj-215", 5 ],
					"destination" : [ "obj-208", 1 ],
					"hidden" : 0,
					"midpoints" : [  ]
				}

			}
, 			{
				"patchline" : 				{
					"source" : [ "obj-215", 6 ],
					"destination" : [ "obj-207", 1 ],
					"hidden" : 0,
					"midpoints" : [  ]
				}

			}
, 			{
				"patchline" : 				{
					"source" : [ "obj-215", 7 ],
					"destination" : [ "obj-206", 1 ],
					"hidden" : 0,
					"midpoints" : [  ]
				}

			}
, 			{
				"patchline" : 				{
					"source" : [ "obj-215", 8 ],
					"destination" : [ "obj-205", 1 ],
					"hidden" : 0,
					"midpoints" : [  ]
				}

			}
, 			{
				"patchline" : 				{
					"source" : [ "obj-215", 9 ],
					"destination" : [ "obj-204", 1 ],
					"hidden" : 0,
					"midpoints" : [  ]
				}

			}
 ]
	}

}
