{
	"patcher" : 	{
		"fileversion" : 1,
		"rect" : [ 69.0, 260.0, 1211.0, 447.0 ],
		"bglocked" : 0,
		"defrect" : [ 69.0, 260.0, 1211.0, 447.0 ],
		"openrect" : [ 0.0, 0.0, 0.0, 0.0 ],
		"openinpresentation" : 0,
		"default_fontsize" : 12.0,
		"default_fontface" : 0,
		"default_fontname" : "Arial",
		"gridonopen" : 0,
		"gridsize" : [ 15.0, 15.0 ],
		"gridsnaponopen" : 0,
		"toolbarvisible" : 1,
		"boxanimatetime" : 200,
		"imprint" : 0,
		"metadata" : [  ],
		"boxes" : [ 			{
				"box" : 				{
					"maxclass" : "newobj",
					"text" : "r presets",
					"outlettype" : [ "" ],
					"fontname" : "Arial",
					"patching_rect" : [ 540.0, 105.0, 57.0, 20.0 ],
					"id" : "obj-27",
					"hidden" : 1,
					"fontsize" : 12.0,
					"numinlets" : 0,
					"numoutlets" : 1
				}

			}
, 			{
				"box" : 				{
					"maxclass" : "inlet",
					"outlettype" : [ "" ],
					"patching_rect" : [ 570.0, 15.0, 25.0, 25.0 ],
					"id" : "obj-24",
					"hidden" : 1,
					"numinlets" : 0,
					"numoutlets" : 1,
					"comment" : "Clear"
				}

			}
, 			{
				"box" : 				{
					"maxclass" : "preset",
					"outlettype" : [ "preset", "int", "preset", "int" ],
					"patching_rect" : [ 540.0, 135.0, 89.0, 75.0 ],
					"id" : "obj-12",
					"hidden" : 1,
					"numinlets" : 1,
					"numoutlets" : 4,
					"preset_data" : [ 						{
							"number" : 1,
							"data" : [ 5, "obj-6", "toggle", "int", 0, 5, "obj-13", "toggle", "int", 0, 5, "obj-21", "toggle", "int", 0, 5, "obj-17", "toggle", "int", 0, 5, "obj-37", "toggle", "int", 0, 5, "obj-33", "toggle", "int", 0, 5, "obj-29", "toggle", "int", 0, 5, "obj-25", "toggle", "int", 0, 5, "obj-69", "toggle", "int", 0, 5, "obj-65", "toggle", "int", 0, 5, "obj-61", "toggle", "int", 0, 5, "obj-57", "toggle", "int", 0, 5, "obj-53", "toggle", "int", 0, 5, "obj-49", "toggle", "int", 0, 5, "obj-45", "toggle", "int", 0, 5, "obj-41", "toggle", "int", 0, 5, "obj-1", "led", "int", 0, 5, "obj-2", "led", "int", 0, 5, "obj-5", "led", "int", 0, 5, "obj-3", "led", "int", 0, 5, "obj-72", "led", "int", 0, 5, "obj-71", "led", "int", 0, 5, "obj-8", "led", "int", 0, 5, "obj-7", "led", "int", 0, 5, "obj-80", "led", "int", 0, 5, "obj-79", "led", "int", 0, 5, "obj-78", "led", "int", 0, 5, "obj-77", "led", "int", 0, 5, "obj-76", "led", "int", 0, 5, "obj-75", "led", "int", 0, 5, "obj-74", "led", "int", 0, 5, "obj-73", "led", "int", 0 ]
						}
, 						{
							"number" : 2,
							"data" : [ 5, "obj-6", "toggle", "int", 0, 5, "obj-13", "toggle", "int", 0, 5, "obj-21", "toggle", "int", 0, 5, "obj-17", "toggle", "int", 0, 5, "obj-37", "toggle", "int", 0, 5, "obj-33", "toggle", "int", 0, 5, "obj-29", "toggle", "int", 0, 5, "obj-25", "toggle", "int", 0, 5, "obj-69", "toggle", "int", 0, 5, "obj-65", "toggle", "int", 0, 5, "obj-61", "toggle", "int", 0, 5, "obj-57", "toggle", "int", 0, 5, "obj-53", "toggle", "int", 0, 5, "obj-49", "toggle", "int", 0, 5, "obj-45", "toggle", "int", 0, 5, "obj-41", "toggle", "int", 0, 5, "obj-1", "led", "int", 0, 5, "obj-2", "led", "int", 0, 5, "obj-5", "led", "int", 0, 5, "obj-3", "led", "int", 0, 5, "obj-72", "led", "int", 0, 5, "obj-71", "led", "int", 0, 5, "obj-8", "led", "int", 0, 5, "obj-7", "led", "int", 0, 5, "obj-80", "led", "int", 0, 5, "obj-79", "led", "int", 0, 5, "obj-78", "led", "int", 0, 5, "obj-77", "led", "int", 0, 5, "obj-76", "led", "int", 0, 5, "obj-75", "led", "int", 0, 5, "obj-74", "led", "int", 0, 5, "obj-73", "led", "int", 0 ]
						}
, 						{
							"number" : 3,
							"data" : [ 5, "obj-6", "toggle", "int", 0, 5, "obj-13", "toggle", "int", 0, 5, "obj-21", "toggle", "int", 0, 5, "obj-17", "toggle", "int", 0, 5, "obj-37", "toggle", "int", 0, 5, "obj-33", "toggle", "int", 0, 5, "obj-29", "toggle", "int", 0, 5, "obj-25", "toggle", "int", 0, 5, "obj-69", "toggle", "int", 0, 5, "obj-65", "toggle", "int", 0, 5, "obj-61", "toggle", "int", 0, 5, "obj-57", "toggle", "int", 0, 5, "obj-53", "toggle", "int", 0, 5, "obj-49", "toggle", "int", 0, 5, "obj-45", "toggle", "int", 0, 5, "obj-41", "toggle", "int", 0, 5, "obj-1", "led", "int", 0, 5, "obj-2", "led", "int", 0, 5, "obj-5", "led", "int", 0, 5, "obj-3", "led", "int", 0, 5, "obj-72", "led", "int", 0, 5, "obj-71", "led", "int", 0, 5, "obj-8", "led", "int", 0, 5, "obj-7", "led", "int", 0, 5, "obj-80", "led", "int", 0, 5, "obj-79", "led", "int", 0, 5, "obj-78", "led", "int", 0, 5, "obj-77", "led", "int", 0, 5, "obj-76", "led", "int", 0, 5, "obj-75", "led", "int", 0, 5, "obj-74", "led", "int", 0, 5, "obj-73", "led", "int", 0 ]
						}
 ]
				}

			}
, 			{
				"box" : 				{
					"maxclass" : "newobj",
					"text" : "universal",
					"fontname" : "Arial",
					"patching_rect" : [ 540.0, 75.0, 59.0, 20.0 ],
					"id" : "obj-31",
					"hidden" : 1,
					"fontsize" : 12.0,
					"numinlets" : 1,
					"numoutlets" : 0
				}

			}
, 			{
				"box" : 				{
					"maxclass" : "message",
					"text" : "send toggle 0",
					"outlettype" : [ "" ],
					"fontname" : "Arial",
					"patching_rect" : [ 540.0, 45.0, 83.0, 18.0 ],
					"id" : "obj-28",
					"hidden" : 1,
					"fontsize" : 12.0,
					"numinlets" : 2,
					"numoutlets" : 1
				}

			}
, 			{
				"box" : 				{
					"maxclass" : "button",
					"outlettype" : [ "bang" ],
					"blinkcolor" : [ 0.117647, 0.117647, 0.117647, 1.0 ],
					"patching_rect" : [ 500.0, 30.0, 20.0, 20.0 ],
					"bgcolor" : [ 0.501961, 0.501961, 0.501961, 1.0 ],
					"id" : "obj-20",
					"numinlets" : 1,
					"outlinecolor" : [ 0.501961, 0.501961, 0.501961, 1.0 ],
					"numoutlets" : 1
				}

			}
, 			{
				"box" : 				{
					"maxclass" : "newobj",
					"text" : "loadmess 1",
					"outlettype" : [ "" ],
					"fontname" : "Arial",
					"patching_rect" : [ 15.0, 135.0, 72.0, 20.0 ],
					"id" : "obj-15",
					"hidden" : 1,
					"fontsize" : 12.0,
					"numinlets" : 1,
					"numoutlets" : 1
				}

			}
, 			{
				"box" : 				{
					"maxclass" : "comment",
					"text" : "clear",
					"fontname" : "Arial",
					"patching_rect" : [ 493.0, 12.0, 42.0, 20.0 ],
					"id" : "obj-23",
					"textcolor" : [ 0.501961, 0.501961, 0.501961, 1.0 ],
					"frgb" : [ 0.501961, 0.501961, 0.501961, 1.0 ],
					"fontsize" : 12.0,
					"numinlets" : 1,
					"numoutlets" : 0
				}

			}
, 			{
				"box" : 				{
					"maxclass" : "outlet",
					"patching_rect" : [ 15.0, 195.0, 25.0, 25.0 ],
					"id" : "obj-19",
					"hidden" : 1,
					"numinlets" : 1,
					"numoutlets" : 0,
					"comment" : "Triggers"
				}

			}
, 			{
				"box" : 				{
					"maxclass" : "newobj",
					"text" : "gate",
					"outlettype" : [ "" ],
					"fontname" : "Arial",
					"patching_rect" : [ 15.0, 165.0, 34.0, 20.0 ],
					"id" : "obj-10",
					"hidden" : 1,
					"fontsize" : 12.0,
					"numinlets" : 2,
					"numoutlets" : 1
				}

			}
, 			{
				"box" : 				{
					"maxclass" : "newobj",
					"text" : "select 1 2 3 4 5 6 7 8 9 10 11 12 13 14 15 16",
					"outlettype" : [ "bang", "bang", "bang", "bang", "bang", "bang", "bang", "bang", "bang", "bang", "bang", "bang", "bang", "bang", "bang", "bang", "" ],
					"fontname" : "Arial",
					"patching_rect" : [ 30.0, 75.0, 499.0, 20.0 ],
					"id" : "obj-11",
					"hidden" : 1,
					"fontsize" : 12.0,
					"numinlets" : 1,
					"numoutlets" : 17
				}

			}
, 			{
				"box" : 				{
					"maxclass" : "led",
					"outlettype" : [ "int" ],
					"ignoreclick" : 1,
					"patching_rect" : [ 465.0, 30.0, 20.0, 20.0 ],
					"bgcolor" : [ 0.635294, 0.439216, 0.631373, 1.0 ],
					"id" : "obj-73",
					"blinktime" : 75,
					"offcolor" : [ 0.27451, 0.0, 0.27451, 1.0 ],
					"oncolor" : [ 1.0, 0.0, 1.0, 1.0 ],
					"numinlets" : 1,
					"numoutlets" : 1
				}

			}
, 			{
				"box" : 				{
					"maxclass" : "led",
					"outlettype" : [ "int" ],
					"ignoreclick" : 1,
					"patching_rect" : [ 435.0, 30.0, 20.0, 20.0 ],
					"bgcolor" : [ 0.635294, 0.439216, 0.631373, 1.0 ],
					"id" : "obj-74",
					"blinktime" : 75,
					"offcolor" : [ 0.27451, 0.0, 0.27451, 1.0 ],
					"oncolor" : [ 1.0, 0.0, 1.0, 1.0 ],
					"numinlets" : 1,
					"numoutlets" : 1
				}

			}
, 			{
				"box" : 				{
					"maxclass" : "led",
					"outlettype" : [ "int" ],
					"ignoreclick" : 1,
					"patching_rect" : [ 405.0, 30.0, 20.0, 20.0 ],
					"bgcolor" : [ 0.635294, 0.439216, 0.631373, 1.0 ],
					"id" : "obj-75",
					"blinktime" : 75,
					"offcolor" : [ 0.27451, 0.0, 0.27451, 1.0 ],
					"oncolor" : [ 1.0, 0.0, 1.0, 1.0 ],
					"numinlets" : 1,
					"numoutlets" : 1
				}

			}
, 			{
				"box" : 				{
					"maxclass" : "led",
					"outlettype" : [ "int" ],
					"ignoreclick" : 1,
					"patching_rect" : [ 375.0, 30.0, 20.0, 20.0 ],
					"bgcolor" : [ 0.635294, 0.439216, 0.631373, 1.0 ],
					"id" : "obj-76",
					"blinktime" : 75,
					"offcolor" : [ 0.27451, 0.0, 0.27451, 1.0 ],
					"oncolor" : [ 1.0, 0.0, 1.0, 1.0 ],
					"numinlets" : 1,
					"numoutlets" : 1
				}

			}
, 			{
				"box" : 				{
					"maxclass" : "led",
					"outlettype" : [ "int" ],
					"ignoreclick" : 1,
					"patching_rect" : [ 345.0, 30.0, 20.0, 20.0 ],
					"id" : "obj-77",
					"blinktime" : 75,
					"numinlets" : 1,
					"numoutlets" : 1
				}

			}
, 			{
				"box" : 				{
					"maxclass" : "led",
					"outlettype" : [ "int" ],
					"ignoreclick" : 1,
					"patching_rect" : [ 315.0, 30.0, 20.0, 20.0 ],
					"id" : "obj-78",
					"blinktime" : 75,
					"numinlets" : 1,
					"numoutlets" : 1
				}

			}
, 			{
				"box" : 				{
					"maxclass" : "led",
					"outlettype" : [ "int" ],
					"ignoreclick" : 1,
					"patching_rect" : [ 285.0, 30.0, 20.0, 20.0 ],
					"id" : "obj-79",
					"blinktime" : 75,
					"numinlets" : 1,
					"numoutlets" : 1
				}

			}
, 			{
				"box" : 				{
					"maxclass" : "led",
					"outlettype" : [ "int" ],
					"ignoreclick" : 1,
					"patching_rect" : [ 255.0, 30.0, 20.0, 20.0 ],
					"id" : "obj-80",
					"blinktime" : 75,
					"numinlets" : 1,
					"numoutlets" : 1
				}

			}
, 			{
				"box" : 				{
					"maxclass" : "led",
					"outlettype" : [ "int" ],
					"ignoreclick" : 1,
					"patching_rect" : [ 225.0, 30.0, 20.0, 20.0 ],
					"bgcolor" : [ 0.635294, 0.439216, 0.631373, 1.0 ],
					"id" : "obj-7",
					"blinktime" : 75,
					"offcolor" : [ 0.27451, 0.0, 0.27451, 1.0 ],
					"oncolor" : [ 1.0, 0.0, 1.0, 1.0 ],
					"numinlets" : 1,
					"numoutlets" : 1
				}

			}
, 			{
				"box" : 				{
					"maxclass" : "led",
					"outlettype" : [ "int" ],
					"ignoreclick" : 1,
					"patching_rect" : [ 195.0, 30.0, 20.0, 20.0 ],
					"bgcolor" : [ 0.635294, 0.439216, 0.631373, 1.0 ],
					"id" : "obj-8",
					"blinktime" : 75,
					"offcolor" : [ 0.27451, 0.0, 0.27451, 1.0 ],
					"oncolor" : [ 1.0, 0.0, 1.0, 1.0 ],
					"numinlets" : 1,
					"numoutlets" : 1
				}

			}
, 			{
				"box" : 				{
					"maxclass" : "led",
					"outlettype" : [ "int" ],
					"ignoreclick" : 1,
					"patching_rect" : [ 165.0, 30.0, 20.0, 20.0 ],
					"bgcolor" : [ 0.635294, 0.439216, 0.631373, 1.0 ],
					"id" : "obj-71",
					"blinktime" : 75,
					"offcolor" : [ 0.27451, 0.0, 0.27451, 1.0 ],
					"oncolor" : [ 1.0, 0.0, 1.0, 1.0 ],
					"numinlets" : 1,
					"numoutlets" : 1
				}

			}
, 			{
				"box" : 				{
					"maxclass" : "led",
					"outlettype" : [ "int" ],
					"ignoreclick" : 1,
					"patching_rect" : [ 135.0, 30.0, 20.0, 20.0 ],
					"bgcolor" : [ 0.635294, 0.439216, 0.631373, 1.0 ],
					"id" : "obj-72",
					"blinktime" : 75,
					"offcolor" : [ 0.27451, 0.0, 0.27451, 1.0 ],
					"oncolor" : [ 1.0, 0.0, 1.0, 1.0 ],
					"numinlets" : 1,
					"numoutlets" : 1
				}

			}
, 			{
				"box" : 				{
					"maxclass" : "led",
					"outlettype" : [ "int" ],
					"ignoreclick" : 1,
					"patching_rect" : [ 105.0, 30.0, 20.0, 20.0 ],
					"id" : "obj-3",
					"blinktime" : 75,
					"numinlets" : 1,
					"numoutlets" : 1
				}

			}
, 			{
				"box" : 				{
					"maxclass" : "led",
					"outlettype" : [ "int" ],
					"ignoreclick" : 1,
					"patching_rect" : [ 75.0, 30.0, 20.0, 20.0 ],
					"id" : "obj-5",
					"blinktime" : 75,
					"numinlets" : 1,
					"numoutlets" : 1
				}

			}
, 			{
				"box" : 				{
					"maxclass" : "led",
					"outlettype" : [ "int" ],
					"ignoreclick" : 1,
					"patching_rect" : [ 45.0, 30.0, 20.0, 20.0 ],
					"id" : "obj-2",
					"blinktime" : 75,
					"numinlets" : 1,
					"numoutlets" : 1
				}

			}
, 			{
				"box" : 				{
					"maxclass" : "led",
					"outlettype" : [ "int" ],
					"ignoreclick" : 1,
					"patching_rect" : [ 15.0, 30.0, 20.0, 20.0 ],
					"id" : "obj-1",
					"blinktime" : 75,
					"numinlets" : 1,
					"numoutlets" : 1
				}

			}
, 			{
				"box" : 				{
					"maxclass" : "toggle",
					"outlettype" : [ "int" ],
					"patching_rect" : [ 465.0, 15.0, 20.0, 20.0 ],
					"id" : "obj-41",
					"numinlets" : 1,
					"numoutlets" : 1
				}

			}
, 			{
				"box" : 				{
					"maxclass" : "newobj",
					"text" : "gate",
					"outlettype" : [ "" ],
					"fontname" : "Arial",
					"patching_rect" : [ 465.0, 105.0, 34.0, 20.0 ],
					"id" : "obj-42",
					"hidden" : 1,
					"fontsize" : 12.0,
					"numinlets" : 2,
					"numoutlets" : 1
				}

			}
, 			{
				"box" : 				{
					"maxclass" : "toggle",
					"outlettype" : [ "int" ],
					"patching_rect" : [ 435.0, 15.0, 20.0, 20.0 ],
					"id" : "obj-45",
					"numinlets" : 1,
					"numoutlets" : 1
				}

			}
, 			{
				"box" : 				{
					"maxclass" : "newobj",
					"text" : "gate",
					"outlettype" : [ "" ],
					"fontname" : "Arial",
					"patching_rect" : [ 435.0, 105.0, 34.0, 20.0 ],
					"id" : "obj-46",
					"hidden" : 1,
					"fontsize" : 12.0,
					"numinlets" : 2,
					"numoutlets" : 1
				}

			}
, 			{
				"box" : 				{
					"maxclass" : "toggle",
					"outlettype" : [ "int" ],
					"patching_rect" : [ 405.0, 15.0, 20.0, 20.0 ],
					"id" : "obj-49",
					"numinlets" : 1,
					"numoutlets" : 1
				}

			}
, 			{
				"box" : 				{
					"maxclass" : "newobj",
					"text" : "gate",
					"outlettype" : [ "" ],
					"fontname" : "Arial",
					"patching_rect" : [ 405.0, 105.0, 34.0, 20.0 ],
					"id" : "obj-50",
					"hidden" : 1,
					"fontsize" : 12.0,
					"numinlets" : 2,
					"numoutlets" : 1
				}

			}
, 			{
				"box" : 				{
					"maxclass" : "toggle",
					"outlettype" : [ "int" ],
					"patching_rect" : [ 375.0, 15.0, 20.0, 20.0 ],
					"id" : "obj-53",
					"numinlets" : 1,
					"numoutlets" : 1
				}

			}
, 			{
				"box" : 				{
					"maxclass" : "newobj",
					"text" : "gate",
					"outlettype" : [ "" ],
					"fontname" : "Arial",
					"patching_rect" : [ 375.0, 105.0, 34.0, 20.0 ],
					"id" : "obj-54",
					"hidden" : 1,
					"fontsize" : 12.0,
					"numinlets" : 2,
					"numoutlets" : 1
				}

			}
, 			{
				"box" : 				{
					"maxclass" : "toggle",
					"outlettype" : [ "int" ],
					"patching_rect" : [ 345.0, 15.0, 20.0, 20.0 ],
					"id" : "obj-57",
					"numinlets" : 1,
					"numoutlets" : 1
				}

			}
, 			{
				"box" : 				{
					"maxclass" : "newobj",
					"text" : "gate",
					"outlettype" : [ "" ],
					"fontname" : "Arial",
					"patching_rect" : [ 345.0, 105.0, 34.0, 20.0 ],
					"id" : "obj-58",
					"hidden" : 1,
					"fontsize" : 12.0,
					"numinlets" : 2,
					"numoutlets" : 1
				}

			}
, 			{
				"box" : 				{
					"maxclass" : "toggle",
					"outlettype" : [ "int" ],
					"patching_rect" : [ 315.0, 15.0, 20.0, 20.0 ],
					"id" : "obj-61",
					"numinlets" : 1,
					"numoutlets" : 1
				}

			}
, 			{
				"box" : 				{
					"maxclass" : "newobj",
					"text" : "gate",
					"outlettype" : [ "" ],
					"fontname" : "Arial",
					"patching_rect" : [ 315.0, 105.0, 34.0, 20.0 ],
					"id" : "obj-62",
					"hidden" : 1,
					"fontsize" : 12.0,
					"numinlets" : 2,
					"numoutlets" : 1
				}

			}
, 			{
				"box" : 				{
					"maxclass" : "toggle",
					"outlettype" : [ "int" ],
					"patching_rect" : [ 285.0, 15.0, 20.0, 20.0 ],
					"id" : "obj-65",
					"numinlets" : 1,
					"numoutlets" : 1
				}

			}
, 			{
				"box" : 				{
					"maxclass" : "newobj",
					"text" : "gate",
					"outlettype" : [ "" ],
					"fontname" : "Arial",
					"patching_rect" : [ 285.0, 105.0, 34.0, 20.0 ],
					"id" : "obj-66",
					"hidden" : 1,
					"fontsize" : 12.0,
					"numinlets" : 2,
					"numoutlets" : 1
				}

			}
, 			{
				"box" : 				{
					"maxclass" : "toggle",
					"outlettype" : [ "int" ],
					"patching_rect" : [ 255.0, 15.0, 20.0, 20.0 ],
					"id" : "obj-69",
					"numinlets" : 1,
					"numoutlets" : 1
				}

			}
, 			{
				"box" : 				{
					"maxclass" : "newobj",
					"text" : "gate",
					"outlettype" : [ "" ],
					"fontname" : "Arial",
					"patching_rect" : [ 255.0, 105.0, 34.0, 20.0 ],
					"id" : "obj-70",
					"hidden" : 1,
					"fontsize" : 12.0,
					"numinlets" : 2,
					"numoutlets" : 1
				}

			}
, 			{
				"box" : 				{
					"maxclass" : "toggle",
					"outlettype" : [ "int" ],
					"patching_rect" : [ 225.0, 15.0, 20.0, 20.0 ],
					"id" : "obj-25",
					"numinlets" : 1,
					"numoutlets" : 1
				}

			}
, 			{
				"box" : 				{
					"maxclass" : "newobj",
					"text" : "gate",
					"outlettype" : [ "" ],
					"fontname" : "Arial",
					"patching_rect" : [ 225.0, 105.0, 34.0, 20.0 ],
					"id" : "obj-26",
					"hidden" : 1,
					"fontsize" : 12.0,
					"numinlets" : 2,
					"numoutlets" : 1
				}

			}
, 			{
				"box" : 				{
					"maxclass" : "toggle",
					"outlettype" : [ "int" ],
					"patching_rect" : [ 195.0, 15.0, 20.0, 20.0 ],
					"id" : "obj-29",
					"numinlets" : 1,
					"numoutlets" : 1
				}

			}
, 			{
				"box" : 				{
					"maxclass" : "newobj",
					"text" : "gate",
					"outlettype" : [ "" ],
					"fontname" : "Arial",
					"patching_rect" : [ 195.0, 105.0, 34.0, 20.0 ],
					"id" : "obj-30",
					"hidden" : 1,
					"fontsize" : 12.0,
					"numinlets" : 2,
					"numoutlets" : 1
				}

			}
, 			{
				"box" : 				{
					"maxclass" : "toggle",
					"outlettype" : [ "int" ],
					"patching_rect" : [ 165.0, 15.0, 20.0, 20.0 ],
					"id" : "obj-33",
					"numinlets" : 1,
					"numoutlets" : 1
				}

			}
, 			{
				"box" : 				{
					"maxclass" : "newobj",
					"text" : "gate",
					"outlettype" : [ "" ],
					"fontname" : "Arial",
					"patching_rect" : [ 165.0, 105.0, 34.0, 20.0 ],
					"id" : "obj-34",
					"hidden" : 1,
					"fontsize" : 12.0,
					"numinlets" : 2,
					"numoutlets" : 1
				}

			}
, 			{
				"box" : 				{
					"maxclass" : "toggle",
					"outlettype" : [ "int" ],
					"patching_rect" : [ 135.0, 15.0, 20.0, 20.0 ],
					"id" : "obj-37",
					"numinlets" : 1,
					"numoutlets" : 1
				}

			}
, 			{
				"box" : 				{
					"maxclass" : "newobj",
					"text" : "gate",
					"outlettype" : [ "" ],
					"fontname" : "Arial",
					"patching_rect" : [ 135.0, 105.0, 34.0, 20.0 ],
					"id" : "obj-38",
					"hidden" : 1,
					"fontsize" : 12.0,
					"numinlets" : 2,
					"numoutlets" : 1
				}

			}
, 			{
				"box" : 				{
					"maxclass" : "toggle",
					"outlettype" : [ "int" ],
					"patching_rect" : [ 105.0, 15.0, 20.0, 20.0 ],
					"id" : "obj-17",
					"numinlets" : 1,
					"numoutlets" : 1
				}

			}
, 			{
				"box" : 				{
					"maxclass" : "newobj",
					"text" : "gate",
					"outlettype" : [ "" ],
					"fontname" : "Arial",
					"patching_rect" : [ 105.0, 105.0, 34.0, 20.0 ],
					"id" : "obj-18",
					"hidden" : 1,
					"fontsize" : 12.0,
					"numinlets" : 2,
					"numoutlets" : 1
				}

			}
, 			{
				"box" : 				{
					"maxclass" : "toggle",
					"outlettype" : [ "int" ],
					"patching_rect" : [ 75.0, 15.0, 20.0, 20.0 ],
					"id" : "obj-21",
					"numinlets" : 1,
					"numoutlets" : 1
				}

			}
, 			{
				"box" : 				{
					"maxclass" : "newobj",
					"text" : "gate",
					"outlettype" : [ "" ],
					"fontname" : "Arial",
					"patching_rect" : [ 75.0, 105.0, 34.0, 20.0 ],
					"id" : "obj-22",
					"hidden" : 1,
					"fontsize" : 12.0,
					"numinlets" : 2,
					"numoutlets" : 1
				}

			}
, 			{
				"box" : 				{
					"maxclass" : "toggle",
					"outlettype" : [ "int" ],
					"patching_rect" : [ 45.0, 15.0, 20.0, 20.0 ],
					"id" : "obj-13",
					"numinlets" : 1,
					"numoutlets" : 1
				}

			}
, 			{
				"box" : 				{
					"maxclass" : "newobj",
					"text" : "gate",
					"outlettype" : [ "" ],
					"fontname" : "Arial",
					"patching_rect" : [ 45.0, 105.0, 34.0, 20.0 ],
					"id" : "obj-14",
					"hidden" : 1,
					"fontsize" : 12.0,
					"numinlets" : 2,
					"numoutlets" : 1
				}

			}
, 			{
				"box" : 				{
					"maxclass" : "inlet",
					"outlettype" : [ "" ],
					"patching_rect" : [ 540.0, 15.0, 25.0, 25.0 ],
					"id" : "obj-9",
					"hidden" : 1,
					"numinlets" : 0,
					"numoutlets" : 1,
					"comment" : "Tempo"
				}

			}
, 			{
				"box" : 				{
					"maxclass" : "toggle",
					"outlettype" : [ "int" ],
					"patching_rect" : [ 15.0, 15.0, 20.0, 20.0 ],
					"id" : "obj-6",
					"numinlets" : 1,
					"numoutlets" : 1
				}

			}
, 			{
				"box" : 				{
					"maxclass" : "newobj",
					"text" : "gate",
					"outlettype" : [ "" ],
					"fontname" : "Arial",
					"patching_rect" : [ 15.0, 105.0, 34.0, 20.0 ],
					"id" : "obj-4",
					"hidden" : 1,
					"fontsize" : 12.0,
					"numinlets" : 2,
					"numoutlets" : 1
				}

			}
 ],
		"lines" : [ 			{
				"patchline" : 				{
					"source" : [ "obj-20", 0 ],
					"destination" : [ "obj-28", 0 ],
					"hidden" : 1,
					"midpoints" : [  ]
				}

			}
, 			{
				"patchline" : 				{
					"source" : [ "obj-28", 0 ],
					"destination" : [ "obj-31", 0 ],
					"hidden" : 1,
					"midpoints" : [  ]
				}

			}
, 			{
				"patchline" : 				{
					"source" : [ "obj-15", 0 ],
					"destination" : [ "obj-10", 0 ],
					"hidden" : 1,
					"midpoints" : [  ]
				}

			}
, 			{
				"patchline" : 				{
					"source" : [ "obj-4", 0 ],
					"destination" : [ "obj-10", 1 ],
					"hidden" : 1,
					"midpoints" : [  ]
				}

			}
, 			{
				"patchline" : 				{
					"source" : [ "obj-14", 0 ],
					"destination" : [ "obj-10", 1 ],
					"hidden" : 1,
					"midpoints" : [  ]
				}

			}
, 			{
				"patchline" : 				{
					"source" : [ "obj-22", 0 ],
					"destination" : [ "obj-10", 1 ],
					"hidden" : 1,
					"midpoints" : [  ]
				}

			}
, 			{
				"patchline" : 				{
					"source" : [ "obj-18", 0 ],
					"destination" : [ "obj-10", 1 ],
					"hidden" : 1,
					"midpoints" : [  ]
				}

			}
, 			{
				"patchline" : 				{
					"source" : [ "obj-38", 0 ],
					"destination" : [ "obj-10", 1 ],
					"hidden" : 1,
					"midpoints" : [  ]
				}

			}
, 			{
				"patchline" : 				{
					"source" : [ "obj-34", 0 ],
					"destination" : [ "obj-10", 1 ],
					"hidden" : 1,
					"midpoints" : [  ]
				}

			}
, 			{
				"patchline" : 				{
					"source" : [ "obj-30", 0 ],
					"destination" : [ "obj-10", 1 ],
					"hidden" : 1,
					"midpoints" : [  ]
				}

			}
, 			{
				"patchline" : 				{
					"source" : [ "obj-26", 0 ],
					"destination" : [ "obj-10", 1 ],
					"hidden" : 1,
					"midpoints" : [  ]
				}

			}
, 			{
				"patchline" : 				{
					"source" : [ "obj-70", 0 ],
					"destination" : [ "obj-10", 1 ],
					"hidden" : 1,
					"midpoints" : [  ]
				}

			}
, 			{
				"patchline" : 				{
					"source" : [ "obj-66", 0 ],
					"destination" : [ "obj-10", 1 ],
					"hidden" : 1,
					"midpoints" : [  ]
				}

			}
, 			{
				"patchline" : 				{
					"source" : [ "obj-62", 0 ],
					"destination" : [ "obj-10", 1 ],
					"hidden" : 1,
					"midpoints" : [  ]
				}

			}
, 			{
				"patchline" : 				{
					"source" : [ "obj-58", 0 ],
					"destination" : [ "obj-10", 1 ],
					"hidden" : 1,
					"midpoints" : [  ]
				}

			}
, 			{
				"patchline" : 				{
					"source" : [ "obj-54", 0 ],
					"destination" : [ "obj-10", 1 ],
					"hidden" : 1,
					"midpoints" : [  ]
				}

			}
, 			{
				"patchline" : 				{
					"source" : [ "obj-50", 0 ],
					"destination" : [ "obj-10", 1 ],
					"hidden" : 1,
					"midpoints" : [  ]
				}

			}
, 			{
				"patchline" : 				{
					"source" : [ "obj-46", 0 ],
					"destination" : [ "obj-10", 1 ],
					"hidden" : 1,
					"midpoints" : [  ]
				}

			}
, 			{
				"patchline" : 				{
					"source" : [ "obj-42", 0 ],
					"destination" : [ "obj-10", 1 ],
					"hidden" : 1,
					"midpoints" : [  ]
				}

			}
, 			{
				"patchline" : 				{
					"source" : [ "obj-10", 0 ],
					"destination" : [ "obj-19", 0 ],
					"hidden" : 1,
					"midpoints" : [  ]
				}

			}
, 			{
				"patchline" : 				{
					"source" : [ "obj-42", 0 ],
					"destination" : [ "obj-73", 0 ],
					"hidden" : 1,
					"midpoints" : [  ]
				}

			}
, 			{
				"patchline" : 				{
					"source" : [ "obj-46", 0 ],
					"destination" : [ "obj-74", 0 ],
					"hidden" : 1,
					"midpoints" : [  ]
				}

			}
, 			{
				"patchline" : 				{
					"source" : [ "obj-50", 0 ],
					"destination" : [ "obj-75", 0 ],
					"hidden" : 1,
					"midpoints" : [  ]
				}

			}
, 			{
				"patchline" : 				{
					"source" : [ "obj-54", 0 ],
					"destination" : [ "obj-76", 0 ],
					"hidden" : 1,
					"midpoints" : [  ]
				}

			}
, 			{
				"patchline" : 				{
					"source" : [ "obj-58", 0 ],
					"destination" : [ "obj-77", 0 ],
					"hidden" : 1,
					"midpoints" : [  ]
				}

			}
, 			{
				"patchline" : 				{
					"source" : [ "obj-62", 0 ],
					"destination" : [ "obj-78", 0 ],
					"hidden" : 1,
					"midpoints" : [  ]
				}

			}
, 			{
				"patchline" : 				{
					"source" : [ "obj-66", 0 ],
					"destination" : [ "obj-79", 0 ],
					"hidden" : 1,
					"midpoints" : [  ]
				}

			}
, 			{
				"patchline" : 				{
					"source" : [ "obj-70", 0 ],
					"destination" : [ "obj-80", 0 ],
					"hidden" : 1,
					"midpoints" : [  ]
				}

			}
, 			{
				"patchline" : 				{
					"source" : [ "obj-26", 0 ],
					"destination" : [ "obj-7", 0 ],
					"hidden" : 1,
					"midpoints" : [  ]
				}

			}
, 			{
				"patchline" : 				{
					"source" : [ "obj-30", 0 ],
					"destination" : [ "obj-8", 0 ],
					"hidden" : 1,
					"midpoints" : [  ]
				}

			}
, 			{
				"patchline" : 				{
					"source" : [ "obj-34", 0 ],
					"destination" : [ "obj-71", 0 ],
					"hidden" : 1,
					"midpoints" : [  ]
				}

			}
, 			{
				"patchline" : 				{
					"source" : [ "obj-38", 0 ],
					"destination" : [ "obj-72", 0 ],
					"hidden" : 1,
					"midpoints" : [  ]
				}

			}
, 			{
				"patchline" : 				{
					"source" : [ "obj-18", 0 ],
					"destination" : [ "obj-3", 0 ],
					"hidden" : 1,
					"midpoints" : [  ]
				}

			}
, 			{
				"patchline" : 				{
					"source" : [ "obj-22", 0 ],
					"destination" : [ "obj-5", 0 ],
					"hidden" : 1,
					"midpoints" : [  ]
				}

			}
, 			{
				"patchline" : 				{
					"source" : [ "obj-14", 0 ],
					"destination" : [ "obj-2", 0 ],
					"hidden" : 1,
					"midpoints" : [  ]
				}

			}
, 			{
				"patchline" : 				{
					"source" : [ "obj-4", 0 ],
					"destination" : [ "obj-1", 0 ],
					"hidden" : 1,
					"midpoints" : [  ]
				}

			}
, 			{
				"patchline" : 				{
					"source" : [ "obj-6", 0 ],
					"destination" : [ "obj-4", 0 ],
					"hidden" : 1,
					"midpoints" : [  ]
				}

			}
, 			{
				"patchline" : 				{
					"source" : [ "obj-13", 0 ],
					"destination" : [ "obj-14", 0 ],
					"hidden" : 1,
					"midpoints" : [  ]
				}

			}
, 			{
				"patchline" : 				{
					"source" : [ "obj-17", 0 ],
					"destination" : [ "obj-18", 0 ],
					"hidden" : 1,
					"midpoints" : [  ]
				}

			}
, 			{
				"patchline" : 				{
					"source" : [ "obj-21", 0 ],
					"destination" : [ "obj-22", 0 ],
					"hidden" : 1,
					"midpoints" : [  ]
				}

			}
, 			{
				"patchline" : 				{
					"source" : [ "obj-29", 0 ],
					"destination" : [ "obj-30", 0 ],
					"hidden" : 1,
					"midpoints" : [  ]
				}

			}
, 			{
				"patchline" : 				{
					"source" : [ "obj-25", 0 ],
					"destination" : [ "obj-26", 0 ],
					"hidden" : 1,
					"midpoints" : [  ]
				}

			}
, 			{
				"patchline" : 				{
					"source" : [ "obj-33", 0 ],
					"destination" : [ "obj-34", 0 ],
					"hidden" : 1,
					"midpoints" : [  ]
				}

			}
, 			{
				"patchline" : 				{
					"source" : [ "obj-37", 0 ],
					"destination" : [ "obj-38", 0 ],
					"hidden" : 1,
					"midpoints" : [  ]
				}

			}
, 			{
				"patchline" : 				{
					"source" : [ "obj-53", 0 ],
					"destination" : [ "obj-54", 0 ],
					"hidden" : 1,
					"midpoints" : [  ]
				}

			}
, 			{
				"patchline" : 				{
					"source" : [ "obj-49", 0 ],
					"destination" : [ "obj-50", 0 ],
					"hidden" : 1,
					"midpoints" : [  ]
				}

			}
, 			{
				"patchline" : 				{
					"source" : [ "obj-41", 0 ],
					"destination" : [ "obj-42", 0 ],
					"hidden" : 1,
					"midpoints" : [  ]
				}

			}
, 			{
				"patchline" : 				{
					"source" : [ "obj-45", 0 ],
					"destination" : [ "obj-46", 0 ],
					"hidden" : 1,
					"midpoints" : [  ]
				}

			}
, 			{
				"patchline" : 				{
					"source" : [ "obj-61", 0 ],
					"destination" : [ "obj-62", 0 ],
					"hidden" : 1,
					"midpoints" : [  ]
				}

			}
, 			{
				"patchline" : 				{
					"source" : [ "obj-57", 0 ],
					"destination" : [ "obj-58", 0 ],
					"hidden" : 1,
					"midpoints" : [  ]
				}

			}
, 			{
				"patchline" : 				{
					"source" : [ "obj-65", 0 ],
					"destination" : [ "obj-66", 0 ],
					"hidden" : 1,
					"midpoints" : [  ]
				}

			}
, 			{
				"patchline" : 				{
					"source" : [ "obj-69", 0 ],
					"destination" : [ "obj-70", 0 ],
					"hidden" : 1,
					"midpoints" : [  ]
				}

			}
, 			{
				"patchline" : 				{
					"source" : [ "obj-9", 0 ],
					"destination" : [ "obj-11", 0 ],
					"hidden" : 1,
					"midpoints" : [  ]
				}

			}
, 			{
				"patchline" : 				{
					"source" : [ "obj-11", 0 ],
					"destination" : [ "obj-4", 1 ],
					"hidden" : 1,
					"midpoints" : [  ]
				}

			}
, 			{
				"patchline" : 				{
					"source" : [ "obj-11", 1 ],
					"destination" : [ "obj-14", 1 ],
					"hidden" : 1,
					"midpoints" : [  ]
				}

			}
, 			{
				"patchline" : 				{
					"source" : [ "obj-11", 2 ],
					"destination" : [ "obj-22", 1 ],
					"hidden" : 1,
					"midpoints" : [  ]
				}

			}
, 			{
				"patchline" : 				{
					"source" : [ "obj-11", 3 ],
					"destination" : [ "obj-18", 1 ],
					"hidden" : 1,
					"midpoints" : [  ]
				}

			}
, 			{
				"patchline" : 				{
					"source" : [ "obj-11", 4 ],
					"destination" : [ "obj-38", 1 ],
					"hidden" : 1,
					"midpoints" : [  ]
				}

			}
, 			{
				"patchline" : 				{
					"source" : [ "obj-11", 5 ],
					"destination" : [ "obj-34", 1 ],
					"hidden" : 1,
					"midpoints" : [  ]
				}

			}
, 			{
				"patchline" : 				{
					"source" : [ "obj-11", 6 ],
					"destination" : [ "obj-30", 1 ],
					"hidden" : 1,
					"midpoints" : [  ]
				}

			}
, 			{
				"patchline" : 				{
					"source" : [ "obj-11", 7 ],
					"destination" : [ "obj-26", 1 ],
					"hidden" : 1,
					"midpoints" : [  ]
				}

			}
, 			{
				"patchline" : 				{
					"source" : [ "obj-11", 8 ],
					"destination" : [ "obj-70", 1 ],
					"hidden" : 1,
					"midpoints" : [  ]
				}

			}
, 			{
				"patchline" : 				{
					"source" : [ "obj-11", 9 ],
					"destination" : [ "obj-66", 1 ],
					"hidden" : 1,
					"midpoints" : [  ]
				}

			}
, 			{
				"patchline" : 				{
					"source" : [ "obj-11", 10 ],
					"destination" : [ "obj-62", 1 ],
					"hidden" : 1,
					"midpoints" : [  ]
				}

			}
, 			{
				"patchline" : 				{
					"source" : [ "obj-11", 11 ],
					"destination" : [ "obj-58", 1 ],
					"hidden" : 1,
					"midpoints" : [  ]
				}

			}
, 			{
				"patchline" : 				{
					"source" : [ "obj-11", 12 ],
					"destination" : [ "obj-54", 1 ],
					"hidden" : 1,
					"midpoints" : [  ]
				}

			}
, 			{
				"patchline" : 				{
					"source" : [ "obj-11", 13 ],
					"destination" : [ "obj-50", 1 ],
					"hidden" : 1,
					"midpoints" : [  ]
				}

			}
, 			{
				"patchline" : 				{
					"source" : [ "obj-11", 14 ],
					"destination" : [ "obj-46", 1 ],
					"hidden" : 1,
					"midpoints" : [  ]
				}

			}
, 			{
				"patchline" : 				{
					"source" : [ "obj-11", 15 ],
					"destination" : [ "obj-42", 1 ],
					"hidden" : 1,
					"midpoints" : [  ]
				}

			}
, 			{
				"patchline" : 				{
					"source" : [ "obj-24", 0 ],
					"destination" : [ "obj-20", 0 ],
					"hidden" : 1,
					"midpoints" : [  ]
				}

			}
, 			{
				"patchline" : 				{
					"source" : [ "obj-27", 0 ],
					"destination" : [ "obj-12", 0 ],
					"hidden" : 1,
					"midpoints" : [  ]
				}

			}
 ]
	}

}
