{
	"patcher" : 	{
		"fileversion" : 1,
		"rect" : [ 32.0, 64.0, 1180.0, 635.0 ],
		"bglocked" : 0,
		"defrect" : [ 32.0, 64.0, 1180.0, 635.0 ],
		"openrect" : [ 0.0, 0.0, 0.0, 0.0 ],
		"openinpresentation" : 0,
		"default_fontsize" : 12.0,
		"default_fontface" : 0,
		"default_fontname" : "Arial",
		"gridonopen" : 0,
		"gridsize" : [ 15.0, 15.0 ],
		"gridsnaponopen" : 0,
		"toolbarvisible" : 1,
		"boxanimatetime" : 200,
		"imprint" : 0,
		"metadata" : [  ],
		"boxes" : [ 			{
				"box" : 				{
					"maxclass" : "button",
					"outlettype" : [ "bang" ],
					"patching_rect" : [ 840.0, 15.0, 20.0, 20.0 ],
					"id" : "obj-51",
					"hidden" : 1,
					"numinlets" : 1,
					"numoutlets" : 1
				}

			}
, 			{
				"box" : 				{
					"maxclass" : "button",
					"outlettype" : [ "bang" ],
					"blinkcolor" : [ 0.117647, 0.117647, 0.117647, 1.0 ],
					"patching_rect" : [ 1085.0, 544.0, 20.0, 20.0 ],
					"bgcolor" : [ 0.501961, 0.501961, 0.501961, 1.0 ],
					"id" : "obj-39",
					"numinlets" : 1,
					"outlinecolor" : [ 0.501961, 0.501961, 0.501961, 1.0 ],
					"numoutlets" : 1
				}

			}
, 			{
				"box" : 				{
					"maxclass" : "comment",
					"text" : "clear all",
					"fontname" : "Arial",
					"patching_rect" : [ 1070.0, 528.0, 51.0, 20.0 ],
					"id" : "obj-40",
					"textcolor" : [ 0.501961, 0.501961, 0.501961, 1.0 ],
					"frgb" : [ 0.501961, 0.501961, 0.501961, 1.0 ],
					"fontsize" : 12.0,
					"numinlets" : 1,
					"numoutlets" : 0
				}

			}
, 			{
				"box" : 				{
					"maxclass" : "button",
					"outlettype" : [ "bang" ],
					"blinkcolor" : [ 0.117647, 0.117647, 0.117647, 1.0 ],
					"patching_rect" : [ 1085.0, 439.0, 20.0, 20.0 ],
					"bgcolor" : [ 0.501961, 0.501961, 0.501961, 1.0 ],
					"id" : "obj-41",
					"numinlets" : 1,
					"outlinecolor" : [ 0.501961, 0.501961, 0.501961, 1.0 ],
					"numoutlets" : 1
				}

			}
, 			{
				"box" : 				{
					"maxclass" : "comment",
					"text" : "clear all",
					"fontname" : "Arial",
					"patching_rect" : [ 1070.0, 423.0, 51.0, 20.0 ],
					"id" : "obj-42",
					"textcolor" : [ 0.501961, 0.501961, 0.501961, 1.0 ],
					"frgb" : [ 0.501961, 0.501961, 0.501961, 1.0 ],
					"fontsize" : 12.0,
					"numinlets" : 1,
					"numoutlets" : 0
				}

			}
, 			{
				"box" : 				{
					"maxclass" : "button",
					"outlettype" : [ "bang" ],
					"blinkcolor" : [ 0.117647, 0.117647, 0.117647, 1.0 ],
					"patching_rect" : [ 1085.0, 334.0, 20.0, 20.0 ],
					"bgcolor" : [ 0.501961, 0.501961, 0.501961, 1.0 ],
					"id" : "obj-43",
					"numinlets" : 1,
					"outlinecolor" : [ 0.501961, 0.501961, 0.501961, 1.0 ],
					"numoutlets" : 1
				}

			}
, 			{
				"box" : 				{
					"maxclass" : "comment",
					"text" : "clear all",
					"fontname" : "Arial",
					"patching_rect" : [ 1070.0, 318.0, 51.0, 20.0 ],
					"id" : "obj-44",
					"textcolor" : [ 0.501961, 0.501961, 0.501961, 1.0 ],
					"frgb" : [ 0.501961, 0.501961, 0.501961, 1.0 ],
					"fontsize" : 12.0,
					"numinlets" : 1,
					"numoutlets" : 0
				}

			}
, 			{
				"box" : 				{
					"maxclass" : "button",
					"outlettype" : [ "bang" ],
					"blinkcolor" : [ 0.117647, 0.117647, 0.117647, 1.0 ],
					"patching_rect" : [ 1085.0, 229.0, 20.0, 20.0 ],
					"bgcolor" : [ 0.501961, 0.501961, 0.501961, 1.0 ],
					"id" : "obj-45",
					"numinlets" : 1,
					"outlinecolor" : [ 0.501961, 0.501961, 0.501961, 1.0 ],
					"numoutlets" : 1
				}

			}
, 			{
				"box" : 				{
					"maxclass" : "comment",
					"text" : "clear all",
					"fontname" : "Arial",
					"patching_rect" : [ 1070.0, 213.0, 51.0, 20.0 ],
					"id" : "obj-46",
					"textcolor" : [ 0.501961, 0.501961, 0.501961, 1.0 ],
					"frgb" : [ 0.501961, 0.501961, 0.501961, 1.0 ],
					"fontsize" : 12.0,
					"numinlets" : 1,
					"numoutlets" : 0
				}

			}
, 			{
				"box" : 				{
					"maxclass" : "button",
					"outlettype" : [ "bang" ],
					"blinkcolor" : [ 0.117647, 0.117647, 0.117647, 1.0 ],
					"patching_rect" : [ 1085.0, 124.0, 20.0, 20.0 ],
					"bgcolor" : [ 0.501961, 0.501961, 0.501961, 1.0 ],
					"id" : "obj-47",
					"numinlets" : 1,
					"outlinecolor" : [ 0.501961, 0.501961, 0.501961, 1.0 ],
					"numoutlets" : 1
				}

			}
, 			{
				"box" : 				{
					"maxclass" : "comment",
					"text" : "clear all",
					"fontname" : "Arial",
					"patching_rect" : [ 1070.0, 108.0, 51.0, 20.0 ],
					"id" : "obj-49",
					"textcolor" : [ 0.501961, 0.501961, 0.501961, 1.0 ],
					"frgb" : [ 0.501961, 0.501961, 0.501961, 1.0 ],
					"fontsize" : 12.0,
					"numinlets" : 1,
					"numoutlets" : 0
				}

			}
, 			{
				"box" : 				{
					"maxclass" : "button",
					"outlettype" : [ "bang" ],
					"blinkcolor" : [ 0.117647, 0.117647, 0.117647, 1.0 ],
					"patching_rect" : [ 530.0, 544.0, 20.0, 20.0 ],
					"bgcolor" : [ 0.501961, 0.501961, 0.501961, 1.0 ],
					"id" : "obj-9",
					"numinlets" : 1,
					"outlinecolor" : [ 0.501961, 0.501961, 0.501961, 1.0 ],
					"numoutlets" : 1
				}

			}
, 			{
				"box" : 				{
					"maxclass" : "comment",
					"text" : "clear all",
					"fontname" : "Arial",
					"patching_rect" : [ 515.0, 528.0, 51.0, 20.0 ],
					"id" : "obj-11",
					"textcolor" : [ 0.501961, 0.501961, 0.501961, 1.0 ],
					"frgb" : [ 0.501961, 0.501961, 0.501961, 1.0 ],
					"fontsize" : 12.0,
					"numinlets" : 1,
					"numoutlets" : 0
				}

			}
, 			{
				"box" : 				{
					"maxclass" : "button",
					"outlettype" : [ "bang" ],
					"blinkcolor" : [ 0.117647, 0.117647, 0.117647, 1.0 ],
					"patching_rect" : [ 530.0, 439.0, 20.0, 20.0 ],
					"bgcolor" : [ 0.501961, 0.501961, 0.501961, 1.0 ],
					"id" : "obj-24",
					"numinlets" : 1,
					"outlinecolor" : [ 0.501961, 0.501961, 0.501961, 1.0 ],
					"numoutlets" : 1
				}

			}
, 			{
				"box" : 				{
					"maxclass" : "comment",
					"text" : "clear all",
					"fontname" : "Arial",
					"patching_rect" : [ 515.0, 423.0, 51.0, 20.0 ],
					"id" : "obj-37",
					"textcolor" : [ 0.501961, 0.501961, 0.501961, 1.0 ],
					"frgb" : [ 0.501961, 0.501961, 0.501961, 1.0 ],
					"fontsize" : 12.0,
					"numinlets" : 1,
					"numoutlets" : 0
				}

			}
, 			{
				"box" : 				{
					"maxclass" : "button",
					"outlettype" : [ "bang" ],
					"blinkcolor" : [ 0.117647, 0.117647, 0.117647, 1.0 ],
					"patching_rect" : [ 530.0, 334.0, 20.0, 20.0 ],
					"bgcolor" : [ 0.501961, 0.501961, 0.501961, 1.0 ],
					"id" : "obj-7",
					"numinlets" : 1,
					"outlinecolor" : [ 0.501961, 0.501961, 0.501961, 1.0 ],
					"numoutlets" : 1
				}

			}
, 			{
				"box" : 				{
					"maxclass" : "comment",
					"text" : "clear all",
					"fontname" : "Arial",
					"patching_rect" : [ 515.0, 318.0, 51.0, 20.0 ],
					"id" : "obj-8",
					"textcolor" : [ 0.501961, 0.501961, 0.501961, 1.0 ],
					"frgb" : [ 0.501961, 0.501961, 0.501961, 1.0 ],
					"fontsize" : 12.0,
					"numinlets" : 1,
					"numoutlets" : 0
				}

			}
, 			{
				"box" : 				{
					"maxclass" : "button",
					"outlettype" : [ "bang" ],
					"blinkcolor" : [ 0.117647, 0.117647, 0.117647, 1.0 ],
					"patching_rect" : [ 530.0, 229.0, 20.0, 20.0 ],
					"bgcolor" : [ 0.501961, 0.501961, 0.501961, 1.0 ],
					"id" : "obj-5",
					"numinlets" : 1,
					"outlinecolor" : [ 0.501961, 0.501961, 0.501961, 1.0 ],
					"numoutlets" : 1
				}

			}
, 			{
				"box" : 				{
					"maxclass" : "comment",
					"text" : "clear all",
					"fontname" : "Arial",
					"patching_rect" : [ 515.0, 213.0, 51.0, 20.0 ],
					"id" : "obj-6",
					"textcolor" : [ 0.501961, 0.501961, 0.501961, 1.0 ],
					"frgb" : [ 0.501961, 0.501961, 0.501961, 1.0 ],
					"fontsize" : 12.0,
					"numinlets" : 1,
					"numoutlets" : 0
				}

			}
, 			{
				"box" : 				{
					"maxclass" : "button",
					"outlettype" : [ "bang" ],
					"blinkcolor" : [ 0.117647, 0.117647, 0.117647, 1.0 ],
					"patching_rect" : [ 530.0, 124.0, 20.0, 20.0 ],
					"bgcolor" : [ 0.501961, 0.501961, 0.501961, 1.0 ],
					"id" : "obj-3",
					"numinlets" : 1,
					"outlinecolor" : [ 0.501961, 0.501961, 0.501961, 1.0 ],
					"numoutlets" : 1
				}

			}
, 			{
				"box" : 				{
					"maxclass" : "comment",
					"text" : "clear all",
					"fontname" : "Arial",
					"patching_rect" : [ 515.0, 108.0, 51.0, 20.0 ],
					"id" : "obj-4",
					"textcolor" : [ 0.501961, 0.501961, 0.501961, 1.0 ],
					"frgb" : [ 0.501961, 0.501961, 0.501961, 1.0 ],
					"fontsize" : 12.0,
					"numinlets" : 1,
					"numoutlets" : 0
				}

			}
, 			{
				"box" : 				{
					"maxclass" : "inlet",
					"outlettype" : [ "" ],
					"patching_rect" : [ 90.0, 15.0, 25.0, 25.0 ],
					"id" : "obj-12",
					"hidden" : 1,
					"numinlets" : 0,
					"numoutlets" : 1,
					"comment" : "Offset"
				}

			}
, 			{
				"box" : 				{
					"maxclass" : "newobj",
					"text" : "thispatcher",
					"outlettype" : [ "", "" ],
					"fontname" : "Arial",
					"patching_rect" : [ 120.0, 15.0, 69.0, 20.0 ],
					"id" : "obj-1",
					"hidden" : 1,
					"fontsize" : 12.0,
					"numinlets" : 1,
					"numoutlets" : 2,
					"save" : [ "#N", "thispatcher", ";", "#Q", "end", ";" ]
				}

			}
, 			{
				"box" : 				{
					"maxclass" : "inlet",
					"outlettype" : [ "" ],
					"patching_rect" : [ 30.0, 15.0, 25.0, 25.0 ],
					"id" : "obj-28",
					"hidden" : 1,
					"numinlets" : 0,
					"numoutlets" : 1,
					"comment" : "Tempo"
				}

			}
, 			{
				"box" : 				{
					"maxclass" : "outlet",
					"patching_rect" : [ 30.0, 120.0, 25.0, 25.0 ],
					"id" : "obj-26",
					"hidden" : 1,
					"numinlets" : 1,
					"numoutlets" : 0,
					"comment" : ""
				}

			}
, 			{
				"box" : 				{
					"maxclass" : "bpatcher",
					"outlettype" : [ "" ],
					"patching_rect" : [ 30.0, 45.0, 530.0, 62.0 ],
					"id" : "obj-27",
					"name" : "stepsequencer.maxpat",
					"numinlets" : 2,
					"args" : [  ],
					"numoutlets" : 1
				}

			}
, 			{
				"box" : 				{
					"maxclass" : "outlet",
					"patching_rect" : [ 645.0, 539.0, 25.0, 25.0 ],
					"id" : "obj-18",
					"hidden" : 1,
					"numinlets" : 1,
					"numoutlets" : 0,
					"comment" : ""
				}

			}
, 			{
				"box" : 				{
					"maxclass" : "outlet",
					"patching_rect" : [ 630.0, 435.0, 25.0, 25.0 ],
					"id" : "obj-20",
					"hidden" : 1,
					"numinlets" : 1,
					"numoutlets" : 0,
					"comment" : ""
				}

			}
, 			{
				"box" : 				{
					"maxclass" : "outlet",
					"patching_rect" : [ 615.0, 330.0, 25.0, 25.0 ],
					"id" : "obj-21",
					"hidden" : 1,
					"numinlets" : 1,
					"numoutlets" : 0,
					"comment" : ""
				}

			}
, 			{
				"box" : 				{
					"maxclass" : "outlet",
					"patching_rect" : [ 600.0, 224.0, 25.0, 25.0 ],
					"id" : "obj-22",
					"hidden" : 1,
					"numinlets" : 1,
					"numoutlets" : 0,
					"comment" : ""
				}

			}
, 			{
				"box" : 				{
					"maxclass" : "outlet",
					"patching_rect" : [ 585.0, 120.0, 25.0, 25.0 ],
					"id" : "obj-23",
					"hidden" : 1,
					"numinlets" : 1,
					"numoutlets" : 0,
					"comment" : ""
				}

			}
, 			{
				"box" : 				{
					"maxclass" : "outlet",
					"patching_rect" : [ 90.0, 540.0, 25.0, 25.0 ],
					"id" : "obj-17",
					"hidden" : 1,
					"numinlets" : 1,
					"numoutlets" : 0,
					"comment" : ""
				}

			}
, 			{
				"box" : 				{
					"maxclass" : "outlet",
					"patching_rect" : [ 75.0, 435.0, 25.0, 25.0 ],
					"id" : "obj-16",
					"hidden" : 1,
					"numinlets" : 1,
					"numoutlets" : 0,
					"comment" : ""
				}

			}
, 			{
				"box" : 				{
					"maxclass" : "outlet",
					"patching_rect" : [ 60.0, 330.0, 25.0, 25.0 ],
					"id" : "obj-15",
					"hidden" : 1,
					"numinlets" : 1,
					"numoutlets" : 0,
					"comment" : ""
				}

			}
, 			{
				"box" : 				{
					"maxclass" : "outlet",
					"patching_rect" : [ 45.0, 225.0, 25.0, 25.0 ],
					"id" : "obj-13",
					"hidden" : 1,
					"numinlets" : 1,
					"numoutlets" : 0,
					"comment" : ""
				}

			}
, 			{
				"box" : 				{
					"maxclass" : "comment",
					"text" : "10",
					"fontname" : "Arial",
					"patching_rect" : [ 569.0, 465.0, 35.0, 34.0 ],
					"id" : "obj-88",
					"textcolor" : [ 0.466667, 0.466667, 0.466667, 1.0 ],
					"frgb" : [ 0.466667, 0.466667, 0.466667, 1.0 ],
					"fontface" : 1,
					"fontsize" : 24.0,
					"numinlets" : 1,
					"numoutlets" : 0
				}

			}
, 			{
				"box" : 				{
					"maxclass" : "comment",
					"text" : "9",
					"fontname" : "Arial",
					"patching_rect" : [ 575.0, 360.0, 28.0, 34.0 ],
					"id" : "obj-89",
					"textcolor" : [ 0.466667, 0.466667, 0.466667, 1.0 ],
					"frgb" : [ 0.466667, 0.466667, 0.466667, 1.0 ],
					"fontface" : 1,
					"fontsize" : 24.0,
					"numinlets" : 1,
					"numoutlets" : 0
				}

			}
, 			{
				"box" : 				{
					"maxclass" : "comment",
					"text" : "8",
					"fontname" : "Arial",
					"patching_rect" : [ 575.0, 255.0, 28.0, 34.0 ],
					"id" : "obj-90",
					"textcolor" : [ 0.466667, 0.466667, 0.466667, 1.0 ],
					"frgb" : [ 0.466667, 0.466667, 0.466667, 1.0 ],
					"fontface" : 1,
					"fontsize" : 24.0,
					"numinlets" : 1,
					"numoutlets" : 0
				}

			}
, 			{
				"box" : 				{
					"maxclass" : "comment",
					"text" : "7",
					"fontname" : "Arial",
					"patching_rect" : [ 575.0, 150.0, 28.0, 34.0 ],
					"id" : "obj-91",
					"textcolor" : [ 0.466667, 0.466667, 0.466667, 1.0 ],
					"frgb" : [ 0.466667, 0.466667, 0.466667, 1.0 ],
					"fontface" : 1,
					"fontsize" : 24.0,
					"numinlets" : 1,
					"numoutlets" : 0
				}

			}
, 			{
				"box" : 				{
					"maxclass" : "comment",
					"text" : "6",
					"fontname" : "Arial",
					"patching_rect" : [ 575.0, 45.0, 28.0, 34.0 ],
					"id" : "obj-92",
					"textcolor" : [ 0.466667, 0.466667, 0.466667, 1.0 ],
					"frgb" : [ 0.466667, 0.466667, 0.466667, 1.0 ],
					"fontface" : 1,
					"fontsize" : 24.0,
					"numinlets" : 1,
					"numoutlets" : 0
				}

			}
, 			{
				"box" : 				{
					"maxclass" : "comment",
					"text" : "5",
					"fontname" : "Arial",
					"patching_rect" : [ 20.0, 465.0, 28.0, 34.0 ],
					"id" : "obj-86",
					"textcolor" : [ 0.466667, 0.466667, 0.466667, 1.0 ],
					"frgb" : [ 0.466667, 0.466667, 0.466667, 1.0 ],
					"fontface" : 1,
					"fontsize" : 24.0,
					"numinlets" : 1,
					"numoutlets" : 0
				}

			}
, 			{
				"box" : 				{
					"maxclass" : "comment",
					"text" : "4",
					"fontname" : "Arial",
					"patching_rect" : [ 20.0, 360.0, 28.0, 34.0 ],
					"id" : "obj-87",
					"textcolor" : [ 0.466667, 0.466667, 0.466667, 1.0 ],
					"frgb" : [ 0.466667, 0.466667, 0.466667, 1.0 ],
					"fontface" : 1,
					"fontsize" : 24.0,
					"numinlets" : 1,
					"numoutlets" : 0
				}

			}
, 			{
				"box" : 				{
					"maxclass" : "comment",
					"text" : "3",
					"fontname" : "Arial",
					"patching_rect" : [ 20.0, 255.0, 28.0, 34.0 ],
					"id" : "obj-85",
					"textcolor" : [ 0.466667, 0.466667, 0.466667, 1.0 ],
					"frgb" : [ 0.466667, 0.466667, 0.466667, 1.0 ],
					"fontface" : 1,
					"fontsize" : 24.0,
					"numinlets" : 1,
					"numoutlets" : 0
				}

			}
, 			{
				"box" : 				{
					"maxclass" : "comment",
					"text" : "2",
					"fontname" : "Arial",
					"patching_rect" : [ 20.0, 150.0, 28.0, 34.0 ],
					"id" : "obj-84",
					"textcolor" : [ 0.466667, 0.466667, 0.466667, 1.0 ],
					"frgb" : [ 0.466667, 0.466667, 0.466667, 1.0 ],
					"fontface" : 1,
					"fontsize" : 24.0,
					"numinlets" : 1,
					"numoutlets" : 0
				}

			}
, 			{
				"box" : 				{
					"maxclass" : "bpatcher",
					"outlettype" : [ "" ],
					"patching_rect" : [ 585.0, 465.0, 530.0, 62.0 ],
					"id" : "obj-63",
					"name" : "stepsequencer.maxpat",
					"numinlets" : 2,
					"args" : [  ],
					"numoutlets" : 1
				}

			}
, 			{
				"box" : 				{
					"maxclass" : "bpatcher",
					"outlettype" : [ "" ],
					"patching_rect" : [ 585.0, 360.0, 530.0, 62.0 ],
					"id" : "obj-74",
					"name" : "stepsequencer.maxpat",
					"numinlets" : 2,
					"args" : [  ],
					"numoutlets" : 1
				}

			}
, 			{
				"box" : 				{
					"maxclass" : "bpatcher",
					"outlettype" : [ "" ],
					"patching_rect" : [ 585.0, 255.0, 530.0, 62.0 ],
					"id" : "obj-75",
					"name" : "stepsequencer.maxpat",
					"numinlets" : 2,
					"args" : [  ],
					"numoutlets" : 1
				}

			}
, 			{
				"box" : 				{
					"maxclass" : "bpatcher",
					"outlettype" : [ "" ],
					"patching_rect" : [ 585.0, 150.0, 530.0, 62.0 ],
					"id" : "obj-76",
					"name" : "stepsequencer.maxpat",
					"numinlets" : 2,
					"args" : [  ],
					"numoutlets" : 1
				}

			}
, 			{
				"box" : 				{
					"maxclass" : "bpatcher",
					"outlettype" : [ "" ],
					"patching_rect" : [ 585.0, 45.0, 530.0, 62.0 ],
					"id" : "obj-79",
					"name" : "stepsequencer.maxpat",
					"numinlets" : 2,
					"args" : [  ],
					"numoutlets" : 1
				}

			}
, 			{
				"box" : 				{
					"maxclass" : "bpatcher",
					"outlettype" : [ "" ],
					"patching_rect" : [ 30.0, 465.0, 530.0, 62.0 ],
					"id" : "obj-19",
					"name" : "stepsequencer.maxpat",
					"numinlets" : 2,
					"args" : [  ],
					"numoutlets" : 1
				}

			}
, 			{
				"box" : 				{
					"maxclass" : "bpatcher",
					"outlettype" : [ "" ],
					"patching_rect" : [ 30.0, 360.0, 530.0, 62.0 ],
					"id" : "obj-10",
					"name" : "stepsequencer.maxpat",
					"numinlets" : 2,
					"args" : [  ],
					"numoutlets" : 1
				}

			}
, 			{
				"box" : 				{
					"maxclass" : "bpatcher",
					"outlettype" : [ "" ],
					"patching_rect" : [ 30.0, 255.0, 530.0, 62.0 ],
					"id" : "obj-14",
					"name" : "stepsequencer.maxpat",
					"numinlets" : 2,
					"args" : [  ],
					"numoutlets" : 1
				}

			}
, 			{
				"box" : 				{
					"maxclass" : "bpatcher",
					"outlettype" : [ "" ],
					"patching_rect" : [ 30.0, 150.0, 530.0, 62.0 ],
					"id" : "obj-48",
					"name" : "stepsequencer.maxpat",
					"numinlets" : 2,
					"args" : [  ],
					"numoutlets" : 1
				}

			}
, 			{
				"box" : 				{
					"maxclass" : "comment",
					"text" : "1",
					"fontname" : "Arial",
					"patching_rect" : [ 20.0, 45.0, 28.0, 34.0 ],
					"id" : "obj-82",
					"textcolor" : [ 0.466667, 0.466667, 0.466667, 1.0 ],
					"frgb" : [ 0.466667, 0.466667, 0.466667, 1.0 ],
					"fontface" : 1,
					"fontsize" : 24.0,
					"numinlets" : 1,
					"numoutlets" : 0
				}

			}
, 			{
				"box" : 				{
					"maxclass" : "panel",
					"patching_rect" : [ 15.0, 150.0, 548.0, 66.0 ],
					"bgcolor" : [ 0.184314, 0.776471, 0.776471, 1.0 ],
					"id" : "obj-25",
					"border" : 3,
					"numinlets" : 1,
					"bordercolor" : [ 0.501961, 0.501961, 0.501961, 1.0 ],
					"numoutlets" : 0
				}

			}
, 			{
				"box" : 				{
					"maxclass" : "panel",
					"patching_rect" : [ 15.0, 255.0, 548.0, 66.0 ],
					"bgcolor" : [ 0.07451, 0.45098, 0.607843, 1.0 ],
					"id" : "obj-29",
					"border" : 3,
					"numinlets" : 1,
					"bordercolor" : [ 0.501961, 0.501961, 0.501961, 1.0 ],
					"numoutlets" : 0
				}

			}
, 			{
				"box" : 				{
					"maxclass" : "panel",
					"patching_rect" : [ 15.0, 360.0, 548.0, 66.0 ],
					"bgcolor" : [ 0.062745, 0.235294, 0.564706, 1.0 ],
					"id" : "obj-30",
					"border" : 3,
					"numinlets" : 1,
					"bordercolor" : [ 0.501961, 0.501961, 0.501961, 1.0 ],
					"numoutlets" : 0
				}

			}
, 			{
				"box" : 				{
					"maxclass" : "panel",
					"patching_rect" : [ 15.0, 465.0, 548.0, 66.0 ],
					"bgcolor" : [ 0.058824, 0.058824, 0.556863, 1.0 ],
					"id" : "obj-31",
					"border" : 3,
					"numinlets" : 1,
					"bordercolor" : [ 0.501961, 0.501961, 0.501961, 1.0 ],
					"numoutlets" : 0
				}

			}
, 			{
				"box" : 				{
					"maxclass" : "panel",
					"patching_rect" : [ 570.0, 45.0, 548.0, 66.0 ],
					"bgcolor" : [ 0.223529, 0.039216, 0.407843, 1.0 ],
					"id" : "obj-32",
					"border" : 3,
					"numinlets" : 1,
					"bordercolor" : [ 0.501961, 0.501961, 0.501961, 1.0 ],
					"numoutlets" : 0
				}

			}
, 			{
				"box" : 				{
					"maxclass" : "panel",
					"patching_rect" : [ 570.0, 150.0, 548.0, 66.0 ],
					"bgcolor" : [ 0.384314, 0.054902, 0.466667, 1.0 ],
					"id" : "obj-33",
					"border" : 3,
					"numinlets" : 1,
					"bordercolor" : [ 0.501961, 0.501961, 0.501961, 1.0 ],
					"numoutlets" : 0
				}

			}
, 			{
				"box" : 				{
					"maxclass" : "panel",
					"patching_rect" : [ 570.0, 255.0, 548.0, 66.0 ],
					"bgcolor" : [ 0.556863, 0.058824, 0.431373, 1.0 ],
					"id" : "obj-34",
					"border" : 3,
					"numinlets" : 1,
					"bordercolor" : [ 0.501961, 0.501961, 0.501961, 1.0 ],
					"numoutlets" : 0
				}

			}
, 			{
				"box" : 				{
					"maxclass" : "panel",
					"patching_rect" : [ 570.0, 360.0, 548.0, 66.0 ],
					"bgcolor" : [ 0.556863, 0.058824, 0.231373, 1.0 ],
					"id" : "obj-35",
					"border" : 3,
					"numinlets" : 1,
					"bordercolor" : [ 0.501961, 0.501961, 0.501961, 1.0 ],
					"numoutlets" : 0
				}

			}
, 			{
				"box" : 				{
					"maxclass" : "panel",
					"patching_rect" : [ 570.0, 465.0, 548.0, 66.0 ],
					"bgcolor" : [ 0.556863, 0.058824, 0.082353, 1.0 ],
					"id" : "obj-36",
					"border" : 3,
					"numinlets" : 1,
					"bordercolor" : [ 0.501961, 0.501961, 0.501961, 1.0 ],
					"numoutlets" : 0
				}

			}
, 			{
				"box" : 				{
					"maxclass" : "panel",
					"patching_rect" : [ 15.0, 45.0, 548.0, 66.0 ],
					"bgcolor" : [ 0.133333, 0.784314, 0.52549, 1.0 ],
					"id" : "obj-38",
					"border" : 3,
					"numinlets" : 1,
					"bordercolor" : [ 0.501961, 0.501961, 0.501961, 1.0 ],
					"numoutlets" : 0
				}

			}
 ],
		"lines" : [ 			{
				"patchline" : 				{
					"source" : [ "obj-28", 0 ],
					"destination" : [ "obj-27", 0 ],
					"hidden" : 1,
					"midpoints" : [  ]
				}

			}
, 			{
				"patchline" : 				{
					"source" : [ "obj-27", 0 ],
					"destination" : [ "obj-26", 0 ],
					"hidden" : 1,
					"midpoints" : [  ]
				}

			}
, 			{
				"patchline" : 				{
					"source" : [ "obj-51", 0 ],
					"destination" : [ "obj-27", 1 ],
					"hidden" : 1,
					"midpoints" : [  ]
				}

			}
, 			{
				"patchline" : 				{
					"source" : [ "obj-28", 0 ],
					"destination" : [ "obj-63", 0 ],
					"hidden" : 1,
					"midpoints" : [  ]
				}

			}
, 			{
				"patchline" : 				{
					"source" : [ "obj-63", 0 ],
					"destination" : [ "obj-18", 0 ],
					"hidden" : 1,
					"midpoints" : [  ]
				}

			}
, 			{
				"patchline" : 				{
					"source" : [ "obj-51", 0 ],
					"destination" : [ "obj-63", 1 ],
					"hidden" : 1,
					"midpoints" : [  ]
				}

			}
, 			{
				"patchline" : 				{
					"source" : [ "obj-28", 0 ],
					"destination" : [ "obj-74", 0 ],
					"hidden" : 1,
					"midpoints" : [  ]
				}

			}
, 			{
				"patchline" : 				{
					"source" : [ "obj-74", 0 ],
					"destination" : [ "obj-20", 0 ],
					"hidden" : 1,
					"midpoints" : [  ]
				}

			}
, 			{
				"patchline" : 				{
					"source" : [ "obj-51", 0 ],
					"destination" : [ "obj-74", 1 ],
					"hidden" : 1,
					"midpoints" : [  ]
				}

			}
, 			{
				"patchline" : 				{
					"source" : [ "obj-28", 0 ],
					"destination" : [ "obj-75", 0 ],
					"hidden" : 1,
					"midpoints" : [  ]
				}

			}
, 			{
				"patchline" : 				{
					"source" : [ "obj-75", 0 ],
					"destination" : [ "obj-21", 0 ],
					"hidden" : 1,
					"midpoints" : [  ]
				}

			}
, 			{
				"patchline" : 				{
					"source" : [ "obj-51", 0 ],
					"destination" : [ "obj-75", 1 ],
					"hidden" : 1,
					"midpoints" : [  ]
				}

			}
, 			{
				"patchline" : 				{
					"source" : [ "obj-28", 0 ],
					"destination" : [ "obj-76", 0 ],
					"hidden" : 1,
					"midpoints" : [  ]
				}

			}
, 			{
				"patchline" : 				{
					"source" : [ "obj-76", 0 ],
					"destination" : [ "obj-22", 0 ],
					"hidden" : 1,
					"midpoints" : [  ]
				}

			}
, 			{
				"patchline" : 				{
					"source" : [ "obj-51", 0 ],
					"destination" : [ "obj-76", 1 ],
					"hidden" : 1,
					"midpoints" : [  ]
				}

			}
, 			{
				"patchline" : 				{
					"source" : [ "obj-28", 0 ],
					"destination" : [ "obj-79", 0 ],
					"hidden" : 1,
					"midpoints" : [  ]
				}

			}
, 			{
				"patchline" : 				{
					"source" : [ "obj-79", 0 ],
					"destination" : [ "obj-23", 0 ],
					"hidden" : 1,
					"midpoints" : [  ]
				}

			}
, 			{
				"patchline" : 				{
					"source" : [ "obj-51", 0 ],
					"destination" : [ "obj-79", 1 ],
					"hidden" : 1,
					"midpoints" : [  ]
				}

			}
, 			{
				"patchline" : 				{
					"source" : [ "obj-28", 0 ],
					"destination" : [ "obj-19", 0 ],
					"hidden" : 1,
					"midpoints" : [  ]
				}

			}
, 			{
				"patchline" : 				{
					"source" : [ "obj-19", 0 ],
					"destination" : [ "obj-17", 0 ],
					"hidden" : 1,
					"midpoints" : [  ]
				}

			}
, 			{
				"patchline" : 				{
					"source" : [ "obj-51", 0 ],
					"destination" : [ "obj-19", 1 ],
					"hidden" : 1,
					"midpoints" : [  ]
				}

			}
, 			{
				"patchline" : 				{
					"source" : [ "obj-28", 0 ],
					"destination" : [ "obj-10", 0 ],
					"hidden" : 1,
					"midpoints" : [  ]
				}

			}
, 			{
				"patchline" : 				{
					"source" : [ "obj-10", 0 ],
					"destination" : [ "obj-16", 0 ],
					"hidden" : 1,
					"midpoints" : [  ]
				}

			}
, 			{
				"patchline" : 				{
					"source" : [ "obj-51", 0 ],
					"destination" : [ "obj-10", 1 ],
					"hidden" : 1,
					"midpoints" : [  ]
				}

			}
, 			{
				"patchline" : 				{
					"source" : [ "obj-28", 0 ],
					"destination" : [ "obj-14", 0 ],
					"hidden" : 1,
					"midpoints" : [  ]
				}

			}
, 			{
				"patchline" : 				{
					"source" : [ "obj-14", 0 ],
					"destination" : [ "obj-15", 0 ],
					"hidden" : 1,
					"midpoints" : [  ]
				}

			}
, 			{
				"patchline" : 				{
					"source" : [ "obj-51", 0 ],
					"destination" : [ "obj-14", 1 ],
					"hidden" : 1,
					"midpoints" : [  ]
				}

			}
, 			{
				"patchline" : 				{
					"source" : [ "obj-28", 0 ],
					"destination" : [ "obj-48", 0 ],
					"hidden" : 1,
					"midpoints" : [  ]
				}

			}
, 			{
				"patchline" : 				{
					"source" : [ "obj-48", 0 ],
					"destination" : [ "obj-13", 0 ],
					"hidden" : 1,
					"midpoints" : [  ]
				}

			}
, 			{
				"patchline" : 				{
					"source" : [ "obj-51", 0 ],
					"destination" : [ "obj-48", 1 ],
					"hidden" : 1,
					"midpoints" : [  ]
				}

			}
, 			{
				"patchline" : 				{
					"source" : [ "obj-12", 0 ],
					"destination" : [ "obj-1", 0 ],
					"hidden" : 1,
					"midpoints" : [  ]
				}

			}
, 			{
				"patchline" : 				{
					"source" : [ "obj-3", 0 ],
					"destination" : [ "obj-51", 0 ],
					"hidden" : 1,
					"midpoints" : [  ]
				}

			}
, 			{
				"patchline" : 				{
					"source" : [ "obj-5", 0 ],
					"destination" : [ "obj-51", 0 ],
					"hidden" : 1,
					"midpoints" : [  ]
				}

			}
, 			{
				"patchline" : 				{
					"source" : [ "obj-7", 0 ],
					"destination" : [ "obj-51", 0 ],
					"hidden" : 1,
					"midpoints" : [  ]
				}

			}
, 			{
				"patchline" : 				{
					"source" : [ "obj-24", 0 ],
					"destination" : [ "obj-51", 0 ],
					"hidden" : 1,
					"midpoints" : [  ]
				}

			}
, 			{
				"patchline" : 				{
					"source" : [ "obj-9", 0 ],
					"destination" : [ "obj-51", 0 ],
					"hidden" : 1,
					"midpoints" : [  ]
				}

			}
, 			{
				"patchline" : 				{
					"source" : [ "obj-47", 0 ],
					"destination" : [ "obj-51", 0 ],
					"hidden" : 1,
					"midpoints" : [  ]
				}

			}
, 			{
				"patchline" : 				{
					"source" : [ "obj-45", 0 ],
					"destination" : [ "obj-51", 0 ],
					"hidden" : 1,
					"midpoints" : [  ]
				}

			}
, 			{
				"patchline" : 				{
					"source" : [ "obj-43", 0 ],
					"destination" : [ "obj-51", 0 ],
					"hidden" : 1,
					"midpoints" : [  ]
				}

			}
, 			{
				"patchline" : 				{
					"source" : [ "obj-41", 0 ],
					"destination" : [ "obj-51", 0 ],
					"hidden" : 1,
					"midpoints" : [  ]
				}

			}
, 			{
				"patchline" : 				{
					"source" : [ "obj-39", 0 ],
					"destination" : [ "obj-51", 0 ],
					"hidden" : 1,
					"midpoints" : [  ]
				}

			}
 ]
	}

}
