{
	"patcher" : 	{
		"fileversion" : 1,
		"rect" : [ 38.0, 127.0, 902.0, 371.0 ],
		"bglocked" : 0,
		"defrect" : [ 38.0, 127.0, 902.0, 371.0 ],
		"openrect" : [ 0.0, 0.0, 0.0, 0.0 ],
		"openinpresentation" : 0,
		"default_fontsize" : 12.0,
		"default_fontface" : 0,
		"default_fontname" : "Arial",
		"gridonopen" : 0,
		"gridsize" : [ 15.0, 15.0 ],
		"gridsnaponopen" : 0,
		"toolbarvisible" : 1,
		"boxanimatetime" : 200,
		"imprint" : 0,
		"metadata" : [  ],
		"boxes" : [ 			{
				"box" : 				{
					"maxclass" : "newobj",
					"text" : "loadbang",
					"numinlets" : 1,
					"numoutlets" : 1,
					"hidden" : 1,
					"fontname" : "Arial",
					"id" : "obj-59",
					"outlettype" : [ "bang" ],
					"patching_rect" : [ 585.0, 15.0, 60.0, 20.0 ],
					"fontsize" : 12.0
				}

			}
, 			{
				"box" : 				{
					"maxclass" : "message",
					"text" : "0",
					"numinlets" : 2,
					"numoutlets" : 1,
					"hidden" : 1,
					"fontname" : "Arial",
					"id" : "obj-63",
					"outlettype" : [ "" ],
					"patching_rect" : [ 600.0, 210.0, 32.5, 18.0 ],
					"fontsize" : 12.0
				}

			}
, 			{
				"box" : 				{
					"maxclass" : "message",
					"text" : "1",
					"numinlets" : 2,
					"numoutlets" : 1,
					"hidden" : 1,
					"fontname" : "Arial",
					"id" : "obj-60",
					"outlettype" : [ "" ],
					"patching_rect" : [ 15.0, 210.0, 32.5, 18.0 ],
					"fontsize" : 12.0
				}

			}
, 			{
				"box" : 				{
					"maxclass" : "newobj",
					"text" : "scale 0 1 1 2",
					"numinlets" : 6,
					"numoutlets" : 1,
					"hidden" : 1,
					"fontname" : "Arial",
					"id" : "obj-56",
					"outlettype" : [ "int" ],
					"patching_rect" : [ 690.0, 135.0, 86.5, 20.0 ],
					"fontsize" : 12.0
				}

			}
, 			{
				"box" : 				{
					"maxclass" : "newobj",
					"text" : "scale 0 1 1 2",
					"numinlets" : 6,
					"numoutlets" : 1,
					"hidden" : 1,
					"fontname" : "Arial",
					"id" : "obj-55",
					"outlettype" : [ "int" ],
					"patching_rect" : [ 645.0, 105.0, 86.5, 20.0 ],
					"fontsize" : 12.0
				}

			}
, 			{
				"box" : 				{
					"maxclass" : "newobj",
					"text" : "scale 0 1 1 2",
					"numinlets" : 6,
					"numoutlets" : 1,
					"hidden" : 1,
					"fontname" : "Arial",
					"id" : "obj-52",
					"outlettype" : [ "int" ],
					"patching_rect" : [ 600.0, 135.0, 86.5, 20.0 ],
					"fontsize" : 12.0
				}

			}
, 			{
				"box" : 				{
					"maxclass" : "newobj",
					"text" : "scale 0 1 1 2",
					"numinlets" : 6,
					"numoutlets" : 1,
					"hidden" : 1,
					"fontname" : "Arial",
					"id" : "obj-51",
					"outlettype" : [ "int" ],
					"patching_rect" : [ 555.0, 105.0, 86.5, 20.0 ],
					"fontsize" : 12.0
				}

			}
, 			{
				"box" : 				{
					"maxclass" : "newobj",
					"text" : "scale 0 1 1 2",
					"numinlets" : 6,
					"numoutlets" : 1,
					"hidden" : 1,
					"fontname" : "Arial",
					"id" : "obj-48",
					"outlettype" : [ "int" ],
					"patching_rect" : [ 510.0, 135.0, 86.5, 20.0 ],
					"fontsize" : 12.0
				}

			}
, 			{
				"box" : 				{
					"maxclass" : "newobj",
					"text" : "scale 0 1 1 2",
					"numinlets" : 6,
					"numoutlets" : 1,
					"hidden" : 1,
					"fontname" : "Arial",
					"id" : "obj-47",
					"outlettype" : [ "int" ],
					"patching_rect" : [ 465.0, 105.0, 86.5, 20.0 ],
					"fontsize" : 12.0
				}

			}
, 			{
				"box" : 				{
					"maxclass" : "newobj",
					"text" : "scale 0 1 1 2",
					"numinlets" : 6,
					"numoutlets" : 1,
					"hidden" : 1,
					"fontname" : "Arial",
					"id" : "obj-44",
					"outlettype" : [ "int" ],
					"patching_rect" : [ 420.0, 135.0, 86.5, 20.0 ],
					"fontsize" : 12.0
				}

			}
, 			{
				"box" : 				{
					"maxclass" : "newobj",
					"text" : "scale 0 1 1 2",
					"numinlets" : 6,
					"numoutlets" : 1,
					"hidden" : 1,
					"fontname" : "Arial",
					"id" : "obj-43",
					"outlettype" : [ "int" ],
					"patching_rect" : [ 375.0, 105.0, 86.5, 20.0 ],
					"fontsize" : 12.0
				}

			}
, 			{
				"box" : 				{
					"maxclass" : "newobj",
					"text" : "scale 0 1 1 2",
					"numinlets" : 6,
					"numoutlets" : 1,
					"hidden" : 1,
					"fontname" : "Arial",
					"id" : "obj-40",
					"outlettype" : [ "int" ],
					"patching_rect" : [ 330.0, 135.0, 86.5, 20.0 ],
					"fontsize" : 12.0
				}

			}
, 			{
				"box" : 				{
					"maxclass" : "newobj",
					"text" : "scale 0 1 1 2",
					"numinlets" : 6,
					"numoutlets" : 1,
					"hidden" : 1,
					"fontname" : "Arial",
					"id" : "obj-39",
					"outlettype" : [ "int" ],
					"patching_rect" : [ 285.0, 105.0, 86.5, 20.0 ],
					"fontsize" : 12.0
				}

			}
, 			{
				"box" : 				{
					"maxclass" : "newobj",
					"text" : "scale 0 1 1 2",
					"numinlets" : 6,
					"numoutlets" : 1,
					"hidden" : 1,
					"fontname" : "Arial",
					"id" : "obj-36",
					"outlettype" : [ "int" ],
					"patching_rect" : [ 240.0, 135.0, 86.5, 20.0 ],
					"fontsize" : 12.0
				}

			}
, 			{
				"box" : 				{
					"maxclass" : "newobj",
					"text" : "scale 0 1 1 2",
					"numinlets" : 6,
					"numoutlets" : 1,
					"hidden" : 1,
					"fontname" : "Arial",
					"id" : "obj-35",
					"outlettype" : [ "int" ],
					"patching_rect" : [ 195.0, 105.0, 86.5, 20.0 ],
					"fontsize" : 12.0
				}

			}
, 			{
				"box" : 				{
					"maxclass" : "newobj",
					"text" : "scale 0 1 1 2",
					"numinlets" : 6,
					"numoutlets" : 1,
					"hidden" : 1,
					"fontname" : "Arial",
					"id" : "obj-32",
					"outlettype" : [ "int" ],
					"patching_rect" : [ 150.0, 135.0, 86.5, 20.0 ],
					"fontsize" : 12.0
				}

			}
, 			{
				"box" : 				{
					"maxclass" : "newobj",
					"text" : "scale 0 1 1 2",
					"numinlets" : 6,
					"numoutlets" : 1,
					"hidden" : 1,
					"fontname" : "Arial",
					"id" : "obj-27",
					"outlettype" : [ "int" ],
					"patching_rect" : [ 105.0, 105.0, 86.5, 20.0 ],
					"fontsize" : 12.0
				}

			}
, 			{
				"box" : 				{
					"maxclass" : "newobj",
					"text" : "scale 0 1 1 2",
					"numinlets" : 6,
					"numoutlets" : 1,
					"hidden" : 1,
					"fontname" : "Arial",
					"id" : "obj-15",
					"outlettype" : [ "int" ],
					"patching_rect" : [ 60.0, 135.0, 86.5, 20.0 ],
					"fontsize" : 12.0
				}

			}
, 			{
				"box" : 				{
					"maxclass" : "newobj",
					"text" : "scale 0 1 1 2",
					"numinlets" : 6,
					"numoutlets" : 1,
					"hidden" : 1,
					"fontname" : "Arial",
					"id" : "obj-10",
					"outlettype" : [ "int" ],
					"patching_rect" : [ 15.0, 105.0, 86.5, 20.0 ],
					"fontsize" : 12.0
				}

			}
, 			{
				"box" : 				{
					"maxclass" : "inlet",
					"numinlets" : 0,
					"numoutlets" : 1,
					"hidden" : 1,
					"id" : "obj-24",
					"outlettype" : [ "" ],
					"patching_rect" : [ 375.0, 15.0, 25.0, 25.0 ],
					"comment" : "Clear"
				}

			}
, 			{
				"box" : 				{
					"maxclass" : "inlet",
					"numinlets" : 0,
					"numoutlets" : 1,
					"hidden" : 1,
					"id" : "obj-16",
					"outlettype" : [ "" ],
					"patching_rect" : [ 600.0, 240.0, 25.0, 25.0 ],
					"comment" : "Presets"
				}

			}
, 			{
				"box" : 				{
					"maxclass" : "preset",
					"numinlets" : 1,
					"numoutlets" : 4,
					"hidden" : 1,
					"id" : "obj-12",
					"outlettype" : [ "preset", "int", "preset", "int" ],
					"patching_rect" : [ 645.0, 195.0, 150.0, 127.0 ]
				}

			}
, 			{
				"box" : 				{
					"maxclass" : "newobj",
					"text" : "universal",
					"numinlets" : 1,
					"numoutlets" : 0,
					"hidden" : 1,
					"fontname" : "Arial",
					"id" : "obj-31",
					"patching_rect" : [ 675.0, 45.0, 59.0, 20.0 ],
					"fontsize" : 12.0
				}

			}
, 			{
				"box" : 				{
					"maxclass" : "message",
					"text" : "send toggle 0",
					"numinlets" : 2,
					"numoutlets" : 1,
					"hidden" : 1,
					"fontname" : "Arial",
					"id" : "obj-28",
					"outlettype" : [ "" ],
					"patching_rect" : [ 585.0, 45.0, 83.0, 18.0 ],
					"fontsize" : 12.0
				}

			}
, 			{
				"box" : 				{
					"maxclass" : "button",
					"numinlets" : 1,
					"numoutlets" : 1,
					"outlinecolor" : [ 0.501961, 0.501961, 0.501961, 1.0 ],
					"id" : "obj-20",
					"outlettype" : [ "bang" ],
					"patching_rect" : [ 308.0, 26.0, 19.0, 19.0 ],
					"bgcolor" : [ 0.501961, 0.501961, 0.501961, 1.0 ],
					"blinkcolor" : [ 0.0, 0.0, 0.0, 1.0 ]
				}

			}
, 			{
				"box" : 				{
					"maxclass" : "comment",
					"text" : "clear",
					"numinlets" : 1,
					"numoutlets" : 0,
					"fontname" : "Arial",
					"id" : "obj-23",
					"frgb" : [ 0.501961, 0.501961, 0.501961, 1.0 ],
					"textcolor" : [ 0.501961, 0.501961, 0.501961, 1.0 ],
					"patching_rect" : [ 301.0, 10.0, 42.0, 20.0 ],
					"fontsize" : 12.0
				}

			}
, 			{
				"box" : 				{
					"maxclass" : "outlet",
					"numinlets" : 1,
					"numoutlets" : 0,
					"hidden" : 1,
					"id" : "obj-19",
					"patching_rect" : [ 15.0, 255.0, 25.0, 25.0 ],
					"comment" : "Triggers"
				}

			}
, 			{
				"box" : 				{
					"maxclass" : "newobj",
					"text" : "select 1 2 3 4 5 6 7 8 9 10 11 12 13 14 15 16",
					"numinlets" : 1,
					"numoutlets" : 17,
					"hidden" : 1,
					"fontname" : "Arial",
					"id" : "obj-11",
					"outlettype" : [ "bang", "bang", "bang", "bang", "bang", "bang", "bang", "bang", "bang", "bang", "bang", "bang", "bang", "bang", "bang", "bang", "" ],
					"patching_rect" : [ 15.0, 75.0, 770.0, 20.0 ],
					"fontsize" : 12.0
				}

			}
, 			{
				"box" : 				{
					"maxclass" : "led",
					"numinlets" : 1,
					"blinktime" : 75,
					"ignoreclick" : 1,
					"numoutlets" : 1,
					"id" : "obj-73",
					"outlettype" : [ "int" ],
					"oncolor" : [ 1.0, 0.0, 1.0, 1.0 ],
					"offcolor" : [ 0.27451, 0.0, 0.27451, 1.0 ],
					"patching_rect" : [ 285.0, 27.0, 17.0, 17.0 ],
					"bgcolor" : [ 0.635294, 0.439216, 0.631373, 1.0 ]
				}

			}
, 			{
				"box" : 				{
					"maxclass" : "led",
					"numinlets" : 1,
					"blinktime" : 75,
					"ignoreclick" : 1,
					"numoutlets" : 1,
					"id" : "obj-74",
					"outlettype" : [ "int" ],
					"oncolor" : [ 1.0, 0.0, 1.0, 1.0 ],
					"offcolor" : [ 0.27451, 0.0, 0.27451, 1.0 ],
					"patching_rect" : [ 267.0, 27.0, 17.0, 17.0 ],
					"bgcolor" : [ 0.635294, 0.439216, 0.631373, 1.0 ]
				}

			}
, 			{
				"box" : 				{
					"maxclass" : "led",
					"numinlets" : 1,
					"blinktime" : 75,
					"ignoreclick" : 1,
					"numoutlets" : 1,
					"id" : "obj-75",
					"outlettype" : [ "int" ],
					"oncolor" : [ 1.0, 0.0, 1.0, 1.0 ],
					"offcolor" : [ 0.27451, 0.0, 0.27451, 1.0 ],
					"patching_rect" : [ 249.0, 27.0, 17.0, 17.0 ],
					"bgcolor" : [ 0.635294, 0.439216, 0.631373, 1.0 ]
				}

			}
, 			{
				"box" : 				{
					"maxclass" : "led",
					"numinlets" : 1,
					"blinktime" : 75,
					"ignoreclick" : 1,
					"numoutlets" : 1,
					"id" : "obj-76",
					"outlettype" : [ "int" ],
					"oncolor" : [ 1.0, 0.0, 1.0, 1.0 ],
					"offcolor" : [ 0.27451, 0.0, 0.27451, 1.0 ],
					"patching_rect" : [ 231.0, 27.0, 17.0, 17.0 ],
					"bgcolor" : [ 0.635294, 0.439216, 0.631373, 1.0 ]
				}

			}
, 			{
				"box" : 				{
					"maxclass" : "led",
					"numinlets" : 1,
					"blinktime" : 75,
					"ignoreclick" : 1,
					"numoutlets" : 1,
					"id" : "obj-77",
					"outlettype" : [ "int" ],
					"patching_rect" : [ 213.0, 27.0, 17.0, 17.0 ]
				}

			}
, 			{
				"box" : 				{
					"maxclass" : "led",
					"numinlets" : 1,
					"blinktime" : 75,
					"ignoreclick" : 1,
					"numoutlets" : 1,
					"id" : "obj-78",
					"outlettype" : [ "int" ],
					"patching_rect" : [ 195.0, 27.0, 17.0, 17.0 ]
				}

			}
, 			{
				"box" : 				{
					"maxclass" : "led",
					"numinlets" : 1,
					"blinktime" : 75,
					"ignoreclick" : 1,
					"numoutlets" : 1,
					"id" : "obj-79",
					"outlettype" : [ "int" ],
					"patching_rect" : [ 177.0, 27.0, 17.0, 17.0 ]
				}

			}
, 			{
				"box" : 				{
					"maxclass" : "led",
					"numinlets" : 1,
					"blinktime" : 75,
					"ignoreclick" : 1,
					"numoutlets" : 1,
					"id" : "obj-80",
					"outlettype" : [ "int" ],
					"patching_rect" : [ 159.0, 27.0, 17.0, 17.0 ]
				}

			}
, 			{
				"box" : 				{
					"maxclass" : "led",
					"numinlets" : 1,
					"blinktime" : 75,
					"ignoreclick" : 1,
					"numoutlets" : 1,
					"id" : "obj-7",
					"outlettype" : [ "int" ],
					"oncolor" : [ 1.0, 0.0, 1.0, 1.0 ],
					"offcolor" : [ 0.27451, 0.0, 0.27451, 1.0 ],
					"patching_rect" : [ 141.0, 27.0, 17.0, 17.0 ],
					"bgcolor" : [ 0.635294, 0.439216, 0.631373, 1.0 ]
				}

			}
, 			{
				"box" : 				{
					"maxclass" : "led",
					"numinlets" : 1,
					"blinktime" : 75,
					"ignoreclick" : 1,
					"numoutlets" : 1,
					"id" : "obj-8",
					"outlettype" : [ "int" ],
					"oncolor" : [ 1.0, 0.0, 1.0, 1.0 ],
					"offcolor" : [ 0.27451, 0.0, 0.27451, 1.0 ],
					"patching_rect" : [ 123.0, 27.0, 17.0, 17.0 ],
					"bgcolor" : [ 0.635294, 0.439216, 0.631373, 1.0 ]
				}

			}
, 			{
				"box" : 				{
					"maxclass" : "led",
					"numinlets" : 1,
					"blinktime" : 75,
					"ignoreclick" : 1,
					"numoutlets" : 1,
					"id" : "obj-71",
					"outlettype" : [ "int" ],
					"oncolor" : [ 1.0, 0.0, 1.0, 1.0 ],
					"offcolor" : [ 0.27451, 0.0, 0.27451, 1.0 ],
					"patching_rect" : [ 105.0, 27.0, 17.0, 17.0 ],
					"bgcolor" : [ 0.635294, 0.439216, 0.631373, 1.0 ]
				}

			}
, 			{
				"box" : 				{
					"maxclass" : "led",
					"numinlets" : 1,
					"blinktime" : 75,
					"ignoreclick" : 1,
					"numoutlets" : 1,
					"id" : "obj-72",
					"outlettype" : [ "int" ],
					"oncolor" : [ 1.0, 0.0, 1.0, 1.0 ],
					"offcolor" : [ 0.27451, 0.0, 0.27451, 1.0 ],
					"patching_rect" : [ 87.0, 27.0, 17.0, 17.0 ],
					"bgcolor" : [ 0.635294, 0.439216, 0.631373, 1.0 ]
				}

			}
, 			{
				"box" : 				{
					"maxclass" : "led",
					"numinlets" : 1,
					"blinktime" : 75,
					"ignoreclick" : 1,
					"numoutlets" : 1,
					"id" : "obj-3",
					"outlettype" : [ "int" ],
					"patching_rect" : [ 69.0, 27.0, 17.0, 17.0 ]
				}

			}
, 			{
				"box" : 				{
					"maxclass" : "led",
					"numinlets" : 1,
					"blinktime" : 75,
					"ignoreclick" : 1,
					"numoutlets" : 1,
					"id" : "obj-5",
					"outlettype" : [ "int" ],
					"patching_rect" : [ 51.0, 27.0, 17.0, 17.0 ]
				}

			}
, 			{
				"box" : 				{
					"maxclass" : "led",
					"numinlets" : 1,
					"blinktime" : 75,
					"ignoreclick" : 1,
					"numoutlets" : 1,
					"id" : "obj-2",
					"outlettype" : [ "int" ],
					"patching_rect" : [ 33.0, 27.0, 17.0, 17.0 ]
				}

			}
, 			{
				"box" : 				{
					"maxclass" : "led",
					"numinlets" : 1,
					"blinktime" : 75,
					"ignoreclick" : 1,
					"numoutlets" : 1,
					"id" : "obj-1",
					"outlettype" : [ "int" ],
					"patching_rect" : [ 15.0, 27.0, 17.0, 17.0 ]
				}

			}
, 			{
				"box" : 				{
					"maxclass" : "toggle",
					"numinlets" : 1,
					"numoutlets" : 1,
					"id" : "obj-41",
					"outlettype" : [ "int" ],
					"patching_rect" : [ 285.0, 15.0, 17.0, 17.0 ]
				}

			}
, 			{
				"box" : 				{
					"maxclass" : "newobj",
					"text" : "gate 2",
					"numinlets" : 2,
					"numoutlets" : 2,
					"hidden" : 1,
					"fontname" : "Arial",
					"id" : "obj-42",
					"outlettype" : [ "", "" ],
					"patching_rect" : [ 690.0, 165.0, 44.0, 20.0 ],
					"fontsize" : 12.0
				}

			}
, 			{
				"box" : 				{
					"maxclass" : "toggle",
					"numinlets" : 1,
					"numoutlets" : 1,
					"id" : "obj-45",
					"outlettype" : [ "int" ],
					"patching_rect" : [ 267.0, 15.0, 17.0, 17.0 ]
				}

			}
, 			{
				"box" : 				{
					"maxclass" : "newobj",
					"text" : "gate 2",
					"numinlets" : 2,
					"numoutlets" : 2,
					"hidden" : 1,
					"fontname" : "Arial",
					"id" : "obj-46",
					"outlettype" : [ "", "" ],
					"patching_rect" : [ 645.0, 165.0, 44.0, 20.0 ],
					"fontsize" : 12.0
				}

			}
, 			{
				"box" : 				{
					"maxclass" : "toggle",
					"numinlets" : 1,
					"numoutlets" : 1,
					"id" : "obj-49",
					"outlettype" : [ "int" ],
					"patching_rect" : [ 249.0, 15.0, 17.0, 17.0 ]
				}

			}
, 			{
				"box" : 				{
					"maxclass" : "newobj",
					"text" : "gate 2",
					"numinlets" : 2,
					"numoutlets" : 2,
					"hidden" : 1,
					"fontname" : "Arial",
					"id" : "obj-50",
					"outlettype" : [ "", "" ],
					"patching_rect" : [ 600.0, 165.0, 44.0, 20.0 ],
					"fontsize" : 12.0
				}

			}
, 			{
				"box" : 				{
					"maxclass" : "toggle",
					"numinlets" : 1,
					"numoutlets" : 1,
					"id" : "obj-53",
					"outlettype" : [ "int" ],
					"patching_rect" : [ 231.0, 15.0, 17.0, 17.0 ]
				}

			}
, 			{
				"box" : 				{
					"maxclass" : "newobj",
					"text" : "gate 2",
					"numinlets" : 2,
					"numoutlets" : 2,
					"hidden" : 1,
					"fontname" : "Arial",
					"id" : "obj-54",
					"outlettype" : [ "", "" ],
					"patching_rect" : [ 555.0, 165.0, 44.0, 20.0 ],
					"fontsize" : 12.0
				}

			}
, 			{
				"box" : 				{
					"maxclass" : "toggle",
					"numinlets" : 1,
					"numoutlets" : 1,
					"id" : "obj-57",
					"outlettype" : [ "int" ],
					"patching_rect" : [ 213.0, 15.0, 17.0, 17.0 ]
				}

			}
, 			{
				"box" : 				{
					"maxclass" : "newobj",
					"text" : "gate 2",
					"numinlets" : 2,
					"numoutlets" : 2,
					"hidden" : 1,
					"fontname" : "Arial",
					"id" : "obj-58",
					"outlettype" : [ "", "" ],
					"patching_rect" : [ 510.0, 165.0, 44.0, 20.0 ],
					"fontsize" : 12.0
				}

			}
, 			{
				"box" : 				{
					"maxclass" : "toggle",
					"numinlets" : 1,
					"numoutlets" : 1,
					"id" : "obj-61",
					"outlettype" : [ "int" ],
					"patching_rect" : [ 195.0, 15.0, 17.0, 17.0 ]
				}

			}
, 			{
				"box" : 				{
					"maxclass" : "newobj",
					"text" : "gate 2",
					"numinlets" : 2,
					"numoutlets" : 2,
					"hidden" : 1,
					"fontname" : "Arial",
					"id" : "obj-62",
					"outlettype" : [ "", "" ],
					"patching_rect" : [ 465.0, 165.0, 44.0, 20.0 ],
					"fontsize" : 12.0
				}

			}
, 			{
				"box" : 				{
					"maxclass" : "toggle",
					"numinlets" : 1,
					"numoutlets" : 1,
					"id" : "obj-65",
					"outlettype" : [ "int" ],
					"patching_rect" : [ 177.0, 15.0, 17.0, 17.0 ]
				}

			}
, 			{
				"box" : 				{
					"maxclass" : "newobj",
					"text" : "gate 2",
					"numinlets" : 2,
					"numoutlets" : 2,
					"hidden" : 1,
					"fontname" : "Arial",
					"id" : "obj-66",
					"outlettype" : [ "", "" ],
					"patching_rect" : [ 420.0, 165.0, 44.0, 20.0 ],
					"fontsize" : 12.0
				}

			}
, 			{
				"box" : 				{
					"maxclass" : "toggle",
					"numinlets" : 1,
					"numoutlets" : 1,
					"id" : "obj-69",
					"outlettype" : [ "int" ],
					"patching_rect" : [ 159.0, 15.0, 17.0, 17.0 ]
				}

			}
, 			{
				"box" : 				{
					"maxclass" : "newobj",
					"text" : "gate 2",
					"numinlets" : 2,
					"numoutlets" : 2,
					"hidden" : 1,
					"fontname" : "Arial",
					"id" : "obj-70",
					"outlettype" : [ "", "" ],
					"patching_rect" : [ 375.0, 165.0, 44.0, 20.0 ],
					"fontsize" : 12.0
				}

			}
, 			{
				"box" : 				{
					"maxclass" : "toggle",
					"numinlets" : 1,
					"numoutlets" : 1,
					"id" : "obj-25",
					"outlettype" : [ "int" ],
					"patching_rect" : [ 141.0, 15.0, 17.0, 17.0 ]
				}

			}
, 			{
				"box" : 				{
					"maxclass" : "newobj",
					"text" : "gate 2",
					"numinlets" : 2,
					"numoutlets" : 2,
					"hidden" : 1,
					"fontname" : "Arial",
					"id" : "obj-26",
					"outlettype" : [ "", "" ],
					"patching_rect" : [ 330.0, 165.0, 44.0, 20.0 ],
					"fontsize" : 12.0
				}

			}
, 			{
				"box" : 				{
					"maxclass" : "toggle",
					"numinlets" : 1,
					"numoutlets" : 1,
					"id" : "obj-29",
					"outlettype" : [ "int" ],
					"patching_rect" : [ 123.0, 15.0, 17.0, 17.0 ]
				}

			}
, 			{
				"box" : 				{
					"maxclass" : "newobj",
					"text" : "gate 2",
					"numinlets" : 2,
					"numoutlets" : 2,
					"hidden" : 1,
					"fontname" : "Arial",
					"id" : "obj-30",
					"outlettype" : [ "", "" ],
					"patching_rect" : [ 285.0, 165.0, 44.0, 20.0 ],
					"fontsize" : 12.0
				}

			}
, 			{
				"box" : 				{
					"maxclass" : "toggle",
					"numinlets" : 1,
					"numoutlets" : 1,
					"id" : "obj-33",
					"outlettype" : [ "int" ],
					"patching_rect" : [ 105.0, 15.0, 17.0, 17.0 ]
				}

			}
, 			{
				"box" : 				{
					"maxclass" : "newobj",
					"text" : "gate 2",
					"numinlets" : 2,
					"numoutlets" : 2,
					"hidden" : 1,
					"fontname" : "Arial",
					"id" : "obj-34",
					"outlettype" : [ "", "" ],
					"patching_rect" : [ 240.0, 165.0, 44.0, 20.0 ],
					"fontsize" : 12.0
				}

			}
, 			{
				"box" : 				{
					"maxclass" : "toggle",
					"numinlets" : 1,
					"numoutlets" : 1,
					"id" : "obj-37",
					"outlettype" : [ "int" ],
					"patching_rect" : [ 87.0, 15.0, 17.0, 17.0 ]
				}

			}
, 			{
				"box" : 				{
					"maxclass" : "newobj",
					"text" : "gate 2",
					"numinlets" : 2,
					"numoutlets" : 2,
					"hidden" : 1,
					"fontname" : "Arial",
					"id" : "obj-38",
					"outlettype" : [ "", "" ],
					"patching_rect" : [ 195.0, 165.0, 44.0, 20.0 ],
					"fontsize" : 12.0
				}

			}
, 			{
				"box" : 				{
					"maxclass" : "toggle",
					"numinlets" : 1,
					"numoutlets" : 1,
					"id" : "obj-17",
					"outlettype" : [ "int" ],
					"patching_rect" : [ 69.0, 15.0, 17.0, 17.0 ]
				}

			}
, 			{
				"box" : 				{
					"maxclass" : "newobj",
					"text" : "gate 2",
					"numinlets" : 2,
					"numoutlets" : 2,
					"hidden" : 1,
					"fontname" : "Arial",
					"id" : "obj-18",
					"outlettype" : [ "", "" ],
					"patching_rect" : [ 150.0, 165.0, 44.0, 20.0 ],
					"fontsize" : 12.0
				}

			}
, 			{
				"box" : 				{
					"maxclass" : "toggle",
					"numinlets" : 1,
					"numoutlets" : 1,
					"id" : "obj-21",
					"outlettype" : [ "int" ],
					"patching_rect" : [ 51.0, 15.0, 17.0, 17.0 ]
				}

			}
, 			{
				"box" : 				{
					"maxclass" : "newobj",
					"text" : "gate 2",
					"numinlets" : 2,
					"numoutlets" : 2,
					"hidden" : 1,
					"fontname" : "Arial",
					"id" : "obj-22",
					"outlettype" : [ "", "" ],
					"patching_rect" : [ 105.0, 165.0, 44.0, 20.0 ],
					"fontsize" : 12.0
				}

			}
, 			{
				"box" : 				{
					"maxclass" : "toggle",
					"numinlets" : 1,
					"numoutlets" : 1,
					"id" : "obj-13",
					"outlettype" : [ "int" ],
					"patching_rect" : [ 33.0, 15.0, 17.0, 17.0 ]
				}

			}
, 			{
				"box" : 				{
					"maxclass" : "newobj",
					"text" : "gate 2",
					"numinlets" : 2,
					"numoutlets" : 2,
					"hidden" : 1,
					"fontname" : "Arial",
					"id" : "obj-14",
					"outlettype" : [ "", "" ],
					"patching_rect" : [ 60.0, 165.0, 44.0, 20.0 ],
					"fontsize" : 12.0
				}

			}
, 			{
				"box" : 				{
					"maxclass" : "inlet",
					"numinlets" : 0,
					"numoutlets" : 1,
					"hidden" : 1,
					"id" : "obj-9",
					"outlettype" : [ "" ],
					"patching_rect" : [ 345.0, 15.0, 25.0, 25.0 ],
					"comment" : "Tempo"
				}

			}
, 			{
				"box" : 				{
					"maxclass" : "toggle",
					"numinlets" : 1,
					"numoutlets" : 1,
					"id" : "obj-6",
					"outlettype" : [ "int" ],
					"patching_rect" : [ 15.0, 15.0, 17.0, 17.0 ]
				}

			}
, 			{
				"box" : 				{
					"maxclass" : "newobj",
					"text" : "gate 2",
					"numinlets" : 2,
					"numoutlets" : 2,
					"hidden" : 1,
					"fontname" : "Arial",
					"id" : "obj-4",
					"outlettype" : [ "", "" ],
					"patching_rect" : [ 15.0, 165.0, 44.0, 20.0 ],
					"fontsize" : 12.0
				}

			}
 ],
		"lines" : [ 			{
				"patchline" : 				{
					"source" : [ "obj-11", 15 ],
					"destination" : [ "obj-42", 1 ],
					"hidden" : 1,
					"midpoints" : [  ]
				}

			}
, 			{
				"patchline" : 				{
					"source" : [ "obj-11", 14 ],
					"destination" : [ "obj-46", 1 ],
					"hidden" : 1,
					"midpoints" : [  ]
				}

			}
, 			{
				"patchline" : 				{
					"source" : [ "obj-11", 13 ],
					"destination" : [ "obj-50", 1 ],
					"hidden" : 1,
					"midpoints" : [  ]
				}

			}
, 			{
				"patchline" : 				{
					"source" : [ "obj-11", 12 ],
					"destination" : [ "obj-54", 1 ],
					"hidden" : 1,
					"midpoints" : [  ]
				}

			}
, 			{
				"patchline" : 				{
					"source" : [ "obj-11", 11 ],
					"destination" : [ "obj-58", 1 ],
					"hidden" : 1,
					"midpoints" : [  ]
				}

			}
, 			{
				"patchline" : 				{
					"source" : [ "obj-11", 10 ],
					"destination" : [ "obj-62", 1 ],
					"hidden" : 1,
					"midpoints" : [  ]
				}

			}
, 			{
				"patchline" : 				{
					"source" : [ "obj-11", 9 ],
					"destination" : [ "obj-66", 1 ],
					"hidden" : 1,
					"midpoints" : [  ]
				}

			}
, 			{
				"patchline" : 				{
					"source" : [ "obj-11", 8 ],
					"destination" : [ "obj-70", 1 ],
					"hidden" : 1,
					"midpoints" : [  ]
				}

			}
, 			{
				"patchline" : 				{
					"source" : [ "obj-11", 7 ],
					"destination" : [ "obj-26", 1 ],
					"hidden" : 1,
					"midpoints" : [  ]
				}

			}
, 			{
				"patchline" : 				{
					"source" : [ "obj-11", 6 ],
					"destination" : [ "obj-30", 1 ],
					"hidden" : 1,
					"midpoints" : [  ]
				}

			}
, 			{
				"patchline" : 				{
					"source" : [ "obj-11", 5 ],
					"destination" : [ "obj-34", 1 ],
					"hidden" : 1,
					"midpoints" : [  ]
				}

			}
, 			{
				"patchline" : 				{
					"source" : [ "obj-11", 4 ],
					"destination" : [ "obj-38", 1 ],
					"hidden" : 1,
					"midpoints" : [  ]
				}

			}
, 			{
				"patchline" : 				{
					"source" : [ "obj-11", 3 ],
					"destination" : [ "obj-18", 1 ],
					"hidden" : 1,
					"midpoints" : [  ]
				}

			}
, 			{
				"patchline" : 				{
					"source" : [ "obj-11", 2 ],
					"destination" : [ "obj-22", 1 ],
					"hidden" : 1,
					"midpoints" : [  ]
				}

			}
, 			{
				"patchline" : 				{
					"source" : [ "obj-11", 1 ],
					"destination" : [ "obj-14", 1 ],
					"hidden" : 1,
					"midpoints" : [  ]
				}

			}
, 			{
				"patchline" : 				{
					"source" : [ "obj-11", 0 ],
					"destination" : [ "obj-4", 1 ],
					"hidden" : 1,
					"midpoints" : [  ]
				}

			}
, 			{
				"patchline" : 				{
					"source" : [ "obj-9", 0 ],
					"destination" : [ "obj-11", 0 ],
					"hidden" : 1,
					"midpoints" : [  ]
				}

			}
, 			{
				"patchline" : 				{
					"source" : [ "obj-59", 0 ],
					"destination" : [ "obj-28", 0 ],
					"hidden" : 1,
					"midpoints" : [  ]
				}

			}
, 			{
				"patchline" : 				{
					"source" : [ "obj-41", 0 ],
					"destination" : [ "obj-56", 0 ],
					"hidden" : 1,
					"midpoints" : [  ]
				}

			}
, 			{
				"patchline" : 				{
					"source" : [ "obj-56", 0 ],
					"destination" : [ "obj-42", 0 ],
					"hidden" : 1,
					"midpoints" : [  ]
				}

			}
, 			{
				"patchline" : 				{
					"source" : [ "obj-45", 0 ],
					"destination" : [ "obj-55", 0 ],
					"hidden" : 1,
					"midpoints" : [  ]
				}

			}
, 			{
				"patchline" : 				{
					"source" : [ "obj-55", 0 ],
					"destination" : [ "obj-46", 0 ],
					"hidden" : 1,
					"midpoints" : [  ]
				}

			}
, 			{
				"patchline" : 				{
					"source" : [ "obj-49", 0 ],
					"destination" : [ "obj-52", 0 ],
					"hidden" : 1,
					"midpoints" : [  ]
				}

			}
, 			{
				"patchline" : 				{
					"source" : [ "obj-52", 0 ],
					"destination" : [ "obj-50", 0 ],
					"hidden" : 1,
					"midpoints" : [  ]
				}

			}
, 			{
				"patchline" : 				{
					"source" : [ "obj-53", 0 ],
					"destination" : [ "obj-51", 0 ],
					"hidden" : 1,
					"midpoints" : [  ]
				}

			}
, 			{
				"patchline" : 				{
					"source" : [ "obj-51", 0 ],
					"destination" : [ "obj-54", 0 ],
					"hidden" : 1,
					"midpoints" : [  ]
				}

			}
, 			{
				"patchline" : 				{
					"source" : [ "obj-57", 0 ],
					"destination" : [ "obj-48", 0 ],
					"hidden" : 1,
					"midpoints" : [  ]
				}

			}
, 			{
				"patchline" : 				{
					"source" : [ "obj-48", 0 ],
					"destination" : [ "obj-58", 0 ],
					"hidden" : 1,
					"midpoints" : [  ]
				}

			}
, 			{
				"patchline" : 				{
					"source" : [ "obj-61", 0 ],
					"destination" : [ "obj-47", 0 ],
					"hidden" : 1,
					"midpoints" : [  ]
				}

			}
, 			{
				"patchline" : 				{
					"source" : [ "obj-47", 0 ],
					"destination" : [ "obj-62", 0 ],
					"hidden" : 1,
					"midpoints" : [  ]
				}

			}
, 			{
				"patchline" : 				{
					"source" : [ "obj-65", 0 ],
					"destination" : [ "obj-44", 0 ],
					"hidden" : 1,
					"midpoints" : [  ]
				}

			}
, 			{
				"patchline" : 				{
					"source" : [ "obj-44", 0 ],
					"destination" : [ "obj-66", 0 ],
					"hidden" : 1,
					"midpoints" : [  ]
				}

			}
, 			{
				"patchline" : 				{
					"source" : [ "obj-69", 0 ],
					"destination" : [ "obj-43", 0 ],
					"hidden" : 1,
					"midpoints" : [  ]
				}

			}
, 			{
				"patchline" : 				{
					"source" : [ "obj-43", 0 ],
					"destination" : [ "obj-70", 0 ],
					"hidden" : 1,
					"midpoints" : [  ]
				}

			}
, 			{
				"patchline" : 				{
					"source" : [ "obj-25", 0 ],
					"destination" : [ "obj-40", 0 ],
					"hidden" : 1,
					"midpoints" : [  ]
				}

			}
, 			{
				"patchline" : 				{
					"source" : [ "obj-40", 0 ],
					"destination" : [ "obj-26", 0 ],
					"hidden" : 1,
					"midpoints" : [  ]
				}

			}
, 			{
				"patchline" : 				{
					"source" : [ "obj-29", 0 ],
					"destination" : [ "obj-39", 0 ],
					"hidden" : 1,
					"midpoints" : [  ]
				}

			}
, 			{
				"patchline" : 				{
					"source" : [ "obj-39", 0 ],
					"destination" : [ "obj-30", 0 ],
					"hidden" : 1,
					"midpoints" : [  ]
				}

			}
, 			{
				"patchline" : 				{
					"source" : [ "obj-33", 0 ],
					"destination" : [ "obj-36", 0 ],
					"hidden" : 1,
					"midpoints" : [  ]
				}

			}
, 			{
				"patchline" : 				{
					"source" : [ "obj-36", 0 ],
					"destination" : [ "obj-34", 0 ],
					"hidden" : 1,
					"midpoints" : [  ]
				}

			}
, 			{
				"patchline" : 				{
					"source" : [ "obj-37", 0 ],
					"destination" : [ "obj-35", 0 ],
					"hidden" : 1,
					"midpoints" : [  ]
				}

			}
, 			{
				"patchline" : 				{
					"source" : [ "obj-35", 0 ],
					"destination" : [ "obj-38", 0 ],
					"hidden" : 1,
					"midpoints" : [  ]
				}

			}
, 			{
				"patchline" : 				{
					"source" : [ "obj-17", 0 ],
					"destination" : [ "obj-32", 0 ],
					"hidden" : 1,
					"midpoints" : [  ]
				}

			}
, 			{
				"patchline" : 				{
					"source" : [ "obj-32", 0 ],
					"destination" : [ "obj-18", 0 ],
					"hidden" : 1,
					"midpoints" : [  ]
				}

			}
, 			{
				"patchline" : 				{
					"source" : [ "obj-21", 0 ],
					"destination" : [ "obj-27", 0 ],
					"hidden" : 1,
					"midpoints" : [  ]
				}

			}
, 			{
				"patchline" : 				{
					"source" : [ "obj-27", 0 ],
					"destination" : [ "obj-22", 0 ],
					"hidden" : 1,
					"midpoints" : [  ]
				}

			}
, 			{
				"patchline" : 				{
					"source" : [ "obj-15", 0 ],
					"destination" : [ "obj-14", 0 ],
					"hidden" : 1,
					"midpoints" : [  ]
				}

			}
, 			{
				"patchline" : 				{
					"source" : [ "obj-13", 0 ],
					"destination" : [ "obj-15", 0 ],
					"hidden" : 1,
					"midpoints" : [  ]
				}

			}
, 			{
				"patchline" : 				{
					"source" : [ "obj-6", 0 ],
					"destination" : [ "obj-10", 0 ],
					"hidden" : 1,
					"midpoints" : [  ]
				}

			}
, 			{
				"patchline" : 				{
					"source" : [ "obj-10", 0 ],
					"destination" : [ "obj-4", 0 ],
					"hidden" : 1,
					"midpoints" : [  ]
				}

			}
, 			{
				"patchline" : 				{
					"source" : [ "obj-63", 0 ],
					"destination" : [ "obj-19", 0 ],
					"hidden" : 1,
					"midpoints" : [  ]
				}

			}
, 			{
				"patchline" : 				{
					"source" : [ "obj-60", 0 ],
					"destination" : [ "obj-19", 0 ],
					"hidden" : 1,
					"midpoints" : [  ]
				}

			}
, 			{
				"patchline" : 				{
					"source" : [ "obj-42", 0 ],
					"destination" : [ "obj-60", 0 ],
					"hidden" : 1,
					"midpoints" : [  ]
				}

			}
, 			{
				"patchline" : 				{
					"source" : [ "obj-46", 0 ],
					"destination" : [ "obj-60", 0 ],
					"hidden" : 1,
					"midpoints" : [  ]
				}

			}
, 			{
				"patchline" : 				{
					"source" : [ "obj-50", 0 ],
					"destination" : [ "obj-60", 0 ],
					"hidden" : 1,
					"midpoints" : [  ]
				}

			}
, 			{
				"patchline" : 				{
					"source" : [ "obj-54", 0 ],
					"destination" : [ "obj-60", 0 ],
					"hidden" : 1,
					"midpoints" : [  ]
				}

			}
, 			{
				"patchline" : 				{
					"source" : [ "obj-58", 0 ],
					"destination" : [ "obj-60", 0 ],
					"hidden" : 1,
					"midpoints" : [  ]
				}

			}
, 			{
				"patchline" : 				{
					"source" : [ "obj-62", 0 ],
					"destination" : [ "obj-60", 0 ],
					"hidden" : 1,
					"midpoints" : [  ]
				}

			}
, 			{
				"patchline" : 				{
					"source" : [ "obj-66", 0 ],
					"destination" : [ "obj-60", 0 ],
					"hidden" : 1,
					"midpoints" : [  ]
				}

			}
, 			{
				"patchline" : 				{
					"source" : [ "obj-70", 0 ],
					"destination" : [ "obj-60", 0 ],
					"hidden" : 1,
					"midpoints" : [  ]
				}

			}
, 			{
				"patchline" : 				{
					"source" : [ "obj-26", 0 ],
					"destination" : [ "obj-60", 0 ],
					"hidden" : 1,
					"midpoints" : [  ]
				}

			}
, 			{
				"patchline" : 				{
					"source" : [ "obj-30", 0 ],
					"destination" : [ "obj-60", 0 ],
					"hidden" : 1,
					"midpoints" : [  ]
				}

			}
, 			{
				"patchline" : 				{
					"source" : [ "obj-34", 0 ],
					"destination" : [ "obj-60", 0 ],
					"hidden" : 1,
					"midpoints" : [  ]
				}

			}
, 			{
				"patchline" : 				{
					"source" : [ "obj-38", 0 ],
					"destination" : [ "obj-60", 0 ],
					"hidden" : 1,
					"midpoints" : [  ]
				}

			}
, 			{
				"patchline" : 				{
					"source" : [ "obj-18", 0 ],
					"destination" : [ "obj-60", 0 ],
					"hidden" : 1,
					"midpoints" : [  ]
				}

			}
, 			{
				"patchline" : 				{
					"source" : [ "obj-22", 0 ],
					"destination" : [ "obj-60", 0 ],
					"hidden" : 1,
					"midpoints" : [  ]
				}

			}
, 			{
				"patchline" : 				{
					"source" : [ "obj-14", 0 ],
					"destination" : [ "obj-60", 0 ],
					"hidden" : 1,
					"midpoints" : [  ]
				}

			}
, 			{
				"patchline" : 				{
					"source" : [ "obj-4", 0 ],
					"destination" : [ "obj-60", 0 ],
					"hidden" : 1,
					"midpoints" : [  ]
				}

			}
, 			{
				"patchline" : 				{
					"source" : [ "obj-42", 1 ],
					"destination" : [ "obj-63", 0 ],
					"hidden" : 1,
					"midpoints" : [  ]
				}

			}
, 			{
				"patchline" : 				{
					"source" : [ "obj-46", 1 ],
					"destination" : [ "obj-63", 0 ],
					"hidden" : 1,
					"midpoints" : [  ]
				}

			}
, 			{
				"patchline" : 				{
					"source" : [ "obj-50", 1 ],
					"destination" : [ "obj-63", 0 ],
					"hidden" : 1,
					"midpoints" : [  ]
				}

			}
, 			{
				"patchline" : 				{
					"source" : [ "obj-54", 1 ],
					"destination" : [ "obj-63", 0 ],
					"hidden" : 1,
					"midpoints" : [  ]
				}

			}
, 			{
				"patchline" : 				{
					"source" : [ "obj-58", 1 ],
					"destination" : [ "obj-63", 0 ],
					"hidden" : 1,
					"midpoints" : [  ]
				}

			}
, 			{
				"patchline" : 				{
					"source" : [ "obj-62", 1 ],
					"destination" : [ "obj-63", 0 ],
					"hidden" : 1,
					"midpoints" : [  ]
				}

			}
, 			{
				"patchline" : 				{
					"source" : [ "obj-66", 1 ],
					"destination" : [ "obj-63", 0 ],
					"hidden" : 1,
					"midpoints" : [  ]
				}

			}
, 			{
				"patchline" : 				{
					"source" : [ "obj-70", 1 ],
					"destination" : [ "obj-63", 0 ],
					"hidden" : 1,
					"midpoints" : [  ]
				}

			}
, 			{
				"patchline" : 				{
					"source" : [ "obj-26", 1 ],
					"destination" : [ "obj-63", 0 ],
					"hidden" : 1,
					"midpoints" : [  ]
				}

			}
, 			{
				"patchline" : 				{
					"source" : [ "obj-30", 1 ],
					"destination" : [ "obj-63", 0 ],
					"hidden" : 1,
					"midpoints" : [  ]
				}

			}
, 			{
				"patchline" : 				{
					"source" : [ "obj-34", 1 ],
					"destination" : [ "obj-63", 0 ],
					"hidden" : 1,
					"midpoints" : [  ]
				}

			}
, 			{
				"patchline" : 				{
					"source" : [ "obj-38", 1 ],
					"destination" : [ "obj-63", 0 ],
					"hidden" : 1,
					"midpoints" : [  ]
				}

			}
, 			{
				"patchline" : 				{
					"source" : [ "obj-18", 1 ],
					"destination" : [ "obj-63", 0 ],
					"hidden" : 1,
					"midpoints" : [  ]
				}

			}
, 			{
				"patchline" : 				{
					"source" : [ "obj-22", 1 ],
					"destination" : [ "obj-63", 0 ],
					"hidden" : 1,
					"midpoints" : [  ]
				}

			}
, 			{
				"patchline" : 				{
					"source" : [ "obj-14", 1 ],
					"destination" : [ "obj-63", 0 ],
					"hidden" : 1,
					"midpoints" : [  ]
				}

			}
, 			{
				"patchline" : 				{
					"source" : [ "obj-4", 1 ],
					"destination" : [ "obj-63", 0 ],
					"hidden" : 1,
					"midpoints" : [  ]
				}

			}
, 			{
				"patchline" : 				{
					"source" : [ "obj-42", 0 ],
					"destination" : [ "obj-73", 0 ],
					"hidden" : 1,
					"midpoints" : [  ]
				}

			}
, 			{
				"patchline" : 				{
					"source" : [ "obj-46", 0 ],
					"destination" : [ "obj-74", 0 ],
					"hidden" : 1,
					"midpoints" : [  ]
				}

			}
, 			{
				"patchline" : 				{
					"source" : [ "obj-50", 0 ],
					"destination" : [ "obj-75", 0 ],
					"hidden" : 1,
					"midpoints" : [  ]
				}

			}
, 			{
				"patchline" : 				{
					"source" : [ "obj-54", 0 ],
					"destination" : [ "obj-76", 0 ],
					"hidden" : 1,
					"midpoints" : [  ]
				}

			}
, 			{
				"patchline" : 				{
					"source" : [ "obj-58", 0 ],
					"destination" : [ "obj-77", 0 ],
					"hidden" : 1,
					"midpoints" : [  ]
				}

			}
, 			{
				"patchline" : 				{
					"source" : [ "obj-62", 0 ],
					"destination" : [ "obj-78", 0 ],
					"hidden" : 1,
					"midpoints" : [  ]
				}

			}
, 			{
				"patchline" : 				{
					"source" : [ "obj-66", 0 ],
					"destination" : [ "obj-79", 0 ],
					"hidden" : 1,
					"midpoints" : [  ]
				}

			}
, 			{
				"patchline" : 				{
					"source" : [ "obj-70", 0 ],
					"destination" : [ "obj-80", 0 ],
					"hidden" : 1,
					"midpoints" : [  ]
				}

			}
, 			{
				"patchline" : 				{
					"source" : [ "obj-26", 0 ],
					"destination" : [ "obj-7", 0 ],
					"hidden" : 1,
					"midpoints" : [  ]
				}

			}
, 			{
				"patchline" : 				{
					"source" : [ "obj-30", 0 ],
					"destination" : [ "obj-8", 0 ],
					"hidden" : 1,
					"midpoints" : [  ]
				}

			}
, 			{
				"patchline" : 				{
					"source" : [ "obj-34", 0 ],
					"destination" : [ "obj-71", 0 ],
					"hidden" : 1,
					"midpoints" : [  ]
				}

			}
, 			{
				"patchline" : 				{
					"source" : [ "obj-38", 0 ],
					"destination" : [ "obj-72", 0 ],
					"hidden" : 1,
					"midpoints" : [  ]
				}

			}
, 			{
				"patchline" : 				{
					"source" : [ "obj-18", 0 ],
					"destination" : [ "obj-3", 0 ],
					"hidden" : 1,
					"midpoints" : [  ]
				}

			}
, 			{
				"patchline" : 				{
					"source" : [ "obj-22", 0 ],
					"destination" : [ "obj-5", 0 ],
					"hidden" : 1,
					"midpoints" : [  ]
				}

			}
, 			{
				"patchline" : 				{
					"source" : [ "obj-14", 0 ],
					"destination" : [ "obj-2", 0 ],
					"hidden" : 1,
					"midpoints" : [  ]
				}

			}
, 			{
				"patchline" : 				{
					"source" : [ "obj-4", 0 ],
					"destination" : [ "obj-1", 0 ],
					"hidden" : 1,
					"midpoints" : [  ]
				}

			}
, 			{
				"patchline" : 				{
					"source" : [ "obj-20", 0 ],
					"destination" : [ "obj-28", 0 ],
					"hidden" : 1,
					"midpoints" : [  ]
				}

			}
, 			{
				"patchline" : 				{
					"source" : [ "obj-28", 0 ],
					"destination" : [ "obj-31", 0 ],
					"hidden" : 1,
					"midpoints" : [  ]
				}

			}
, 			{
				"patchline" : 				{
					"source" : [ "obj-16", 0 ],
					"destination" : [ "obj-12", 0 ],
					"hidden" : 1,
					"midpoints" : [  ]
				}

			}
, 			{
				"patchline" : 				{
					"source" : [ "obj-24", 0 ],
					"destination" : [ "obj-20", 0 ],
					"hidden" : 1,
					"midpoints" : [  ]
				}

			}
 ]
	}

}
